<?xml version="1.0" encoding="UTF-8"?>
<!DOCTYPE svg PUBLIC "-//W3C//DTD SVG 1.1//EN" "http://www.w3.org/Graphics/SVG/1.1/DTD/svg11.dtd">
<svg xmlns="http://www.w3.org/2000/svg" version="1.1" width="352px" height="462px" style="shape-rendering:geometricPrecision; text-rendering:geometricPrecision; image-rendering:optimizeQuality; fill-rule:evenodd; clip-rule:evenodd" xmlns:xlink="http://www.w3.org/1999/xlink">
<g><path style="opacity:0.008" fill="#7f807f" d="M 331.5,-0.5 C 331.833,-0.5 332.167,-0.5 332.5,-0.5C 332.315,0.170143 331.981,0.170143 331.5,-0.5 Z"/></g>
<g><path style="opacity:0.999" fill="#dbc4aa" d="M 60.5,6.5 C 63.8333,6.5 67.1667,6.5 70.5,6.5C 70.5,9.83333 70.5,13.1667 70.5,16.5C 70.5,13.1667 70.5,9.83333 70.5,6.5C 67.1667,6.5 63.8333,6.5 60.5,6.5 Z"/></g>
<g><path style="opacity:1" fill="#c5806c" d="M 39.5,-0.5 C 46.8333,-0.5 54.1667,-0.5 61.5,-0.5C 60.6314,1.71702 60.298,4.05035 60.5,6.5C 60.5,9.83333 60.5,13.1667 60.5,16.5C 63.8333,16.5 67.1667,16.5 70.5,16.5C 70.5,19.5 70.5,22.5 70.5,25.5C 69.1667,28.8333 69.1667,32.1667 70.5,35.5C 73.2869,36.4767 76.2869,36.81 79.5,36.5C 79.5,42.8333 79.5,49.1667 79.5,55.5C 76.1667,55.5 72.8333,55.5 69.5,55.5C 69.5,49.1667 69.5,42.8333 69.5,36.5C 66.5,36.5 63.5,36.5 60.5,36.5C 60.8235,29.9779 60.4902,23.6446 59.5,17.5C 56.7131,16.5233 53.7131,16.19 50.5,16.5C 50.5,13.5 50.5,10.5 50.5,7.5C 47.1667,7.5 43.8333,7.5 40.5,7.5C 40.5,10.5 40.5,13.5 40.5,16.5C 37.5,16.5 34.5,16.5 31.5,16.5C 31.5,19.8333 31.5,23.1667 31.5,26.5C 27.7307,26.756 24.0641,26.4227 20.5,25.5C 20.2601,22.4212 20.5934,19.4212 21.5,16.5C 23.9866,16.2176 26.6533,16.2176 29.5,16.5C 29.3512,13.3926 29.8512,10.3926 31,7.5C 33.926,6.2227 36.7594,5.55604 39.5,5.5C 40.2483,3.58414 40.2483,1.58414 39.5,-0.5 Z"/></g>
<g><path style="opacity:0.031" fill="#9dad88" d="M 308.5,15.5 C 307.475,15.1034 307.308,14.4368 308,13.5C 308.464,14.0944 308.631,14.7611 308.5,15.5 Z"/></g>
<g><path style="opacity:1" fill="#fac5ae" d="M 59.5,17.5 C 59.6663,24.5079 59.4996,31.5079 59,38.5C 55.9798,37.9187 52.9798,37.5853 50,37.5C 49.296,35.7216 48.796,33.8882 48.5,32C 49.3293,27.8737 49.6626,23.7071 49.5,19.5C 46.6544,19.0301 44.3211,19.8634 42.5,22C 45.474,23.5057 45.8073,25.1724 43.5,27C 39.5138,27.4988 35.5138,27.6655 31.5,27.5C 31.5,27.1667 31.5,26.8333 31.5,26.5C 31.5,23.1667 31.5,19.8333 31.5,16.5C 34.5,16.5 37.5,16.5 40.5,16.5C 40.5,13.5 40.5,10.5 40.5,7.5C 43.8333,7.5 47.1667,7.5 50.5,7.5C 50.5,10.5 50.5,13.5 50.5,16.5C 53.7131,16.19 56.7131,16.5233 59.5,17.5 Z"/></g>
<g><path style="opacity:0.012" fill="#9db19c" d="M 289.5,24.5 C 289.897,23.475 290.563,23.3083 291.5,24C 290.906,24.4643 290.239,24.631 289.5,24.5 Z"/></g>
<g><path style="opacity:1" fill="#fdd4b8" d="M 339.5,16.5 C 339.5,16.8333 339.5,17.1667 339.5,17.5C 335.833,17.5 332.167,17.5 328.5,17.5C 328.471,23.5454 328.304,29.5454 328,35.5C 331.645,36.0931 334.979,37.4264 338,39.5C 338.667,51.1667 338.667,62.8333 338,74.5C 335.646,74.8916 333.146,74.8916 330.5,74.5C 329.608,84.1343 329.275,93.8009 329.5,103.5C 326.167,103.5 322.833,103.5 319.5,103.5C 319.655,116.653 319.655,129.653 319.5,142.5C 322.448,142.777 325.281,142.444 328,141.5C 329.576,147.388 329.909,153.388 329,159.5C 326.436,161.077 323.603,162.077 320.5,162.5C 319.582,164.758 318.915,167.091 318.5,169.5C 319.754,171.334 320.421,173.334 320.5,175.5C 320.5,176.167 320.5,176.833 320.5,177.5C 319.596,178.209 319.263,179.209 319.5,180.5C 316.5,180.5 313.5,180.5 310.5,180.5C 310.823,173.978 310.49,167.645 309.5,161.5C 306.552,161.777 303.719,161.444 301,160.5C 300.5,151.173 300.334,141.839 300.5,132.5C 297.713,131.523 294.713,131.19 291.5,131.5C 291.5,122.167 291.5,112.833 291.5,103.5C 294.5,103.5 297.5,103.5 300.5,103.5C 300.5,93.8333 300.5,84.1667 300.5,74.5C 303.5,74.5 306.5,74.5 309.5,74.5C 309.334,65.1607 309.5,55.8274 310,46.5C 313.057,45.5495 316.223,45.2161 319.5,45.5C 319.5,39.1667 319.5,32.8333 319.5,26.5C 319.5,23.1667 319.5,19.8333 319.5,16.5C 326.167,16.5 332.833,16.5 339.5,16.5 Z"/></g>
<g><path style="opacity:1" fill="#fbc0a1" d="M 319.5,26.5 C 319.5,32.8333 319.5,39.1667 319.5,45.5C 316.223,45.2161 313.057,45.5495 310,46.5C 309.5,55.8274 309.334,65.1607 309.5,74.5C 306.5,74.5 303.5,74.5 300.5,74.5C 300.5,84.1667 300.5,93.8333 300.5,103.5C 297.5,103.5 294.5,103.5 291.5,103.5C 291.5,112.833 291.5,122.167 291.5,131.5C 294.713,131.19 297.713,131.523 300.5,132.5C 297.167,132.5 293.833,132.5 290.5,132.5C 290.5,135.5 290.5,138.5 290.5,141.5C 287.833,141.5 285.167,141.5 282.5,141.5C 282.784,138.223 282.451,135.057 281.5,132C 278.183,131.502 274.85,131.335 271.5,131.5C 271.5,119.167 271.5,106.833 271.5,94.5C 271.5,94.1667 271.5,93.8333 271.5,93.5C 274.833,93.5 278.167,93.5 281.5,93.5C 281.5,87.1667 281.5,80.8333 281.5,74.5C 284.833,74.5 288.167,74.5 291.5,74.5C 291.5,68.1667 291.5,61.8333 291.5,55.5C 294.5,55.5 297.5,55.5 300.5,55.5C 300.5,49.1667 300.5,42.8333 300.5,36.5C 303.833,36.5 307.167,36.5 310.5,36.5C 310.5,33.1667 310.5,29.8333 310.5,26.5C 313.5,26.5 316.5,26.5 319.5,26.5 Z"/></g>
<g><path style="opacity:0.985" fill="#dfc0a9" d="M 70.5,25.5 C 73.5184,25.3354 76.5184,25.502 79.5,26C 80.1786,29.245 80.5119,32.4117 80.5,35.5C 77.1667,35.5 73.8333,35.5 70.5,35.5C 69.1667,32.1667 69.1667,28.8333 70.5,25.5 Z"/></g>
<g><path style="opacity:1" fill="#fdd5b8" d="M 20.5,25.5 C 24.0641,26.4227 27.7307,26.756 31.5,26.5C 31.5,26.8333 31.5,27.1667 31.5,27.5C 31.5,36.8333 31.5,46.1667 31.5,55.5C 34.8333,55.5 38.1667,55.5 41.5,55.5C 41.5,58.5 41.5,61.5 41.5,64.5C 44.4475,64.2229 47.2809,64.5562 50,65.5C 50.498,68.4816 50.6646,71.4816 50.5,74.5C 53.7766,74.2161 56.9433,74.5495 60,75.5C 60.4995,81.4908 60.6662,87.4908 60.5,93.5C 63.4475,93.2229 66.2809,93.5562 69,94.5C 69.4999,106.829 69.6665,119.162 69.5,131.5C 61.8285,133.153 58.8285,130.153 60.5,122.5C 54.1667,122.5 47.8333,122.5 41.5,122.5C 41.5,119.167 41.5,115.833 41.5,112.5C 38.1667,112.5 34.8333,112.5 31.5,112.5C 31.5,109.5 31.5,106.5 31.5,103.5C 28.5,103.5 25.5,103.5 22.5,103.5C 22.6662,97.1579 22.4995,90.8246 22,84.5C 18.9433,83.5495 15.7766,83.2161 12.5,83.5C 13.12,77.0738 12.4533,71.0738 10.5,65.5C 11.7815,62.0641 11.7815,58.7307 10.5,55.5C 10.3338,49.1579 10.5005,42.8246 11,36.5C 11.7387,35.4258 12.7387,34.7591 14,34.5C 16.0989,35.2865 18.2655,35.6199 20.5,35.5C 20.5,32.1667 20.5,28.8333 20.5,25.5 Z"/></g>
<g><path style="opacity:1" fill="#d4a188" d="M 319.5,-0.5 C 323.167,-0.5 326.833,-0.5 330.5,-0.5C 330.337,1.85684 330.503,4.19018 331,6.5C 331.807,2.55096 332.307,2.55096 332.5,6.5C 335.119,6.23166 337.619,6.565 340,7.5C 340.498,10.4816 340.665,13.4816 340.5,16.5C 340.167,16.5 339.833,16.5 339.5,16.5C 332.833,16.5 326.167,16.5 319.5,16.5C 319.5,19.8333 319.5,23.1667 319.5,26.5C 316.5,26.5 313.5,26.5 310.5,26.5C 310.5,29.8333 310.5,33.1667 310.5,36.5C 307.167,36.5 303.833,36.5 300.5,36.5C 300.5,42.8333 300.5,49.1667 300.5,55.5C 297.5,55.5 294.5,55.5 291.5,55.5C 291.5,61.8333 291.5,68.1667 291.5,74.5C 288.167,74.5 284.833,74.5 281.5,74.5C 281.5,80.8333 281.5,87.1667 281.5,93.5C 278.167,93.5 274.833,93.5 271.5,93.5C 271.5,84.1667 271.5,74.8333 271.5,65.5C 268.5,65.5 265.5,65.5 262.5,65.5C 262.823,71.69 262.49,77.69 261.5,83.5C 261.334,77.1579 261.5,70.8246 262,64.5C 264.893,64.6826 267.893,64.3493 271,63.5C 271.498,60.5184 271.665,57.5184 271.5,54.5C 274.5,54.5 277.5,54.5 280.5,54.5C 280.17,48.1318 280.504,41.7985 281.5,35.5C 283.11,34.4478 284.777,34.4478 286.5,35.5C 288.107,35.363 289.441,34.6964 290.5,33.5C 290.413,31.0367 290.413,28.5367 290.5,26C 293.482,25.502 296.482,25.3354 299.5,25.5C 299.26,22.4212 299.593,19.4212 300.5,16.5C 302.996,14.6026 305.163,14.6026 307,16.5C 307.765,16.4301 308.265,16.0967 308.5,15.5C 308.981,12.2176 309.981,9.05091 311.5,6C 314.061,6.4012 316.728,6.23453 319.5,5.5C 319.5,3.5 319.5,1.5 319.5,-0.5 Z"/></g>
<g><path style="opacity:1" fill="#c67d6a" d="M 272.5,55.5 C 275.5,55.5 278.5,55.5 281.5,55.5C 281.5,58.5 281.5,61.5 281.5,64.5C 278.5,64.5 275.5,64.5 272.5,64.5C 272.5,61.5 272.5,58.5 272.5,55.5 Z"/></g>
<g><path style="opacity:0.071" fill="#acbb5f" d="M 257.5,82.5 C 257.897,81.475 258.563,81.3083 259.5,82C 258.906,82.4643 258.239,82.631 257.5,82.5 Z"/></g>
<g><path style="opacity:1" fill="#d6a28a" d="M 99.5,54.5 C 99.5,57.8333 99.5,61.1667 99.5,64.5C 102.5,64.5 105.5,64.5 108.5,64.5C 108.5,71.1667 108.5,77.8333 108.5,84.5C 111.5,84.5 114.5,84.5 117.5,84.5C 117.335,87.5184 117.502,90.5184 118,93.5C 121.057,94.4505 124.223,94.7839 127.5,94.5C 127.5,97.5 127.5,100.5 127.5,103.5C 130.777,103.784 133.943,103.451 137,102.5C 137.5,122.164 137.667,141.831 137.5,161.5C 134.167,161.5 130.833,161.5 127.5,161.5C 120.745,162.123 114.412,161.456 108.5,159.5C 108.5,150.833 108.5,142.167 108.5,133.5C 111.607,133.649 114.607,133.149 117.5,132C 120.268,123.683 117.268,120.516 108.5,122.5C 108.665,119.482 108.498,116.482 108,113.5C 104.943,112.549 101.777,112.216 98.5,112.5C 98.5,106.5 98.5,100.5 98.5,94.5C 99.3195,97.3054 99.8195,100.305 100,103.5C 100.513,97.1348 100.179,90.8014 99,84.5C 96.5272,83.8803 94.0272,83.2136 91.5,82.5C 90.0393,76.9435 89.206,71.2769 89,65.5C 85.9433,64.5495 82.7766,64.2161 79.5,64.5C 79.5,61.5 79.5,58.5 79.5,55.5C 79.5,49.1667 79.5,42.8333 79.5,36.5C 76.2869,36.81 73.2869,36.4767 70.5,35.5C 73.8333,35.5 77.1667,35.5 80.5,35.5C 83.1194,35.7683 85.6194,35.435 88,34.5C 90.619,37.446 91.119,40.7794 89.5,44.5C 91.4672,44.7394 93.3005,44.4061 95,43.5C 96.4194,44.4601 97.9194,45.2935 99.5,46C 99.7036,48.6213 99.7036,51.4547 99.5,54.5 Z"/></g>
<g><path style="opacity:1" fill="#d18a76" d="M 79.5,64.5 C 82.7766,64.2161 85.9433,64.5495 89,65.5C 89.206,71.2769 90.0393,76.9435 91.5,82.5C 94.0272,83.2136 96.5272,83.8803 99,84.5C 100.179,90.8014 100.513,97.1348 100,103.5C 99.8195,100.305 99.3195,97.3054 98.5,94.5C 95.1667,94.5 91.8333,94.5 88.5,94.5C 88.6662,88.1579 88.4995,81.8246 88,75.5C 85.2809,74.5562 82.4475,74.2229 79.5,74.5C 79.5,71.1667 79.5,67.8333 79.5,64.5 Z"/></g>
<g><path style="opacity:1" fill="#d6a188" d="M 271.5,94.5 C 271.5,106.833 271.5,119.167 271.5,131.5C 271.5,135.167 271.5,138.833 271.5,142.5C 268.5,142.5 265.5,142.5 262.5,142.5C 262.5,126.5 262.5,110.5 262.5,94.5C 265.5,94.5 268.5,94.5 271.5,94.5 Z"/></g>
<g><path style="opacity:1" fill="#fac5b4" d="M 2.5,92.5 C 4.66332,93.7201 6.82999,93.7201 9,92.5C 10.7259,92.9459 12.2259,93.7792 13.5,95C 12.1888,100.5 12.1888,106 13.5,111.5C 12.5,111.833 11.8333,112.5 11.5,113.5C 8.5,113.5 5.5,113.5 2.5,113.5C 2.5,106.5 2.5,99.5 2.5,92.5 Z"/></g>
<g><path style="opacity:1" fill="#ece5c7" d="M 339.5,16.5 C 339.833,16.5 340.167,16.5 340.5,16.5C 340.183,19.5719 340.516,22.5719 341.5,25.5C 342.086,25.2907 342.586,24.9574 343,24.5C 345.069,25.2638 347.236,25.7638 349.5,26C 350.059,26.7247 350.392,27.5581 350.5,28.5C 349.518,53.8075 349.185,79.1408 349.5,104.5C 346.5,104.5 343.5,104.5 340.5,104.5C 340.666,113.839 340.5,123.173 340,132.5C 337.281,133.444 334.448,133.777 331.5,133.5C 333.607,132.532 335.941,132.198 338.5,132.5C 338.831,124.804 338.497,117.138 337.5,109.5C 336.914,109.709 336.414,110.043 336,110.5C 335.788,108.22 334.955,106.22 333.5,104.5C 334.26,102.596 334.26,100.596 333.5,98.5C 333.833,97.5 334.167,96.5 334.5,95.5C 336.167,96.3333 337.833,97.1667 339.5,98C 338.833,98.6667 338.167,99.3333 337.5,100C 337.446,101.351 337.946,102.518 339,103.5C 342.105,102.633 345.272,102.299 348.5,102.5C 348.5,77.1667 348.5,51.8333 348.5,26.5C 345.482,26.6646 342.482,26.498 339.5,26C 339.075,23.2419 339.075,20.4085 339.5,17.5C 339.5,17.1667 339.5,16.8333 339.5,16.5 Z"/></g>
<g><path style="opacity:0.956" fill="#bf8971" d="M 254.5,82.5 C 253.496,84.4924 252.83,86.6591 252.5,89C 253.73,100.167 253.73,111.334 252.5,122.5C 251.833,123.5 251.167,124.5 250.5,125.5C 248.562,122.921 246.729,122.921 245,125.5C 243.905,130.78 243.405,136.113 243.5,141.5C 246.713,141.19 249.713,141.523 252.5,142.5C 249.167,142.5 245.833,142.5 242.5,142.5C 242.5,139.167 242.5,135.833 242.5,132.5C 242.5,131.833 242.5,131.167 242.5,130.5C 241.643,128.138 241.309,125.804 241.5,123.5C 242.328,122.585 243.328,121.919 244.5,121.5C 246.5,122.833 248.5,122.833 250.5,121.5C 251.167,108.833 251.833,96.1667 252.5,83.5C 253.183,83.1373 253.85,82.8039 254.5,82.5 Z"/></g>
<g><path style="opacity:1" fill="#fbe0c6" d="M 339.5,17.5 C 339.075,20.4085 339.075,23.2419 339.5,26C 342.482,26.498 345.482,26.6646 348.5,26.5C 348.5,51.8333 348.5,77.1667 348.5,102.5C 345.272,102.299 342.105,102.633 339,103.5C 337.946,102.518 337.446,101.351 337.5,100C 338.167,99.3333 338.833,98.6667 339.5,98C 337.833,97.1667 336.167,96.3333 334.5,95.5C 334.167,96.5 333.833,97.5 333.5,98.5C 334.26,100.596 334.26,102.596 333.5,104.5C 334.955,106.22 335.788,108.22 336,110.5C 336.414,110.043 336.914,109.709 337.5,109.5C 338.497,117.138 338.831,124.804 338.5,132.5C 335.941,132.198 333.607,132.532 331.5,133.5C 330.532,135.607 330.198,137.941 330.5,140.5C 339.305,138.849 342.639,142.516 340.5,151.5C 342.639,160.484 339.305,164.151 330.5,162.5C 330.74,165.579 330.407,168.579 329.5,171.5C 327.102,172.578 324.435,172.578 321.5,171.5C 321.768,173.099 321.434,174.432 320.5,175.5C 320.421,173.334 319.754,171.334 318.5,169.5C 318.915,167.091 319.582,164.758 320.5,162.5C 323.603,162.077 326.436,161.077 329,159.5C 329.909,153.388 329.576,147.388 328,141.5C 325.281,142.444 322.448,142.777 319.5,142.5C 319.655,129.653 319.655,116.653 319.5,103.5C 322.833,103.5 326.167,103.5 329.5,103.5C 329.275,93.8009 329.608,84.1343 330.5,74.5C 333.146,74.8916 335.646,74.8916 338,74.5C 338.667,62.8333 338.667,51.1667 338,39.5C 334.979,37.4264 331.645,36.0931 328,35.5C 328.304,29.5454 328.471,23.5454 328.5,17.5C 332.167,17.5 335.833,17.5 339.5,17.5 Z"/></g>
<g><path style="opacity:0.341" fill="#cfbfa1" d="M 10.5,55.5 C 11.7815,58.7307 11.7815,62.0641 10.5,65.5C 7.83333,65.5 5.16667,65.5 2.5,65.5C 2.5,74.5 2.5,83.5 2.5,92.5C 2.5,99.5 2.5,106.5 2.5,113.5C 5.5,113.5 8.5,113.5 11.5,113.5C 12.4936,122.652 12.8269,131.985 12.5,141.5C 14.7354,141.205 16.7354,141.539 18.5,142.5C 16.7753,143.278 15.1086,143.611 13.5,143.5C 12.0256,142.564 11.0256,141.23 10.5,139.5C 11.4699,131.222 11.8032,122.889 11.5,114.5C 7.77395,114.823 4.10728,114.489 0.5,113.5C 1.15276,97.2005 1.81943,80.8671 2.5,64.5C 5.05297,64.2939 7.55297,63.9606 10,63.5C 10.4974,60.854 10.6641,58.1873 10.5,55.5 Z"/></g>
<g><path style="opacity:1" fill="#fbc0a2" d="M 59.5,17.5 C 60.4902,23.6446 60.8235,29.9779 60.5,36.5C 60.5,45.5 60.5,54.5 60.5,63.5C 63.8067,64.0508 67.1401,64.3841 70.5,64.5C 70.5,77.5 70.5,90.5 70.5,103.5C 73.5,103.5 76.5,103.5 79.5,103.5C 79.5,106.833 79.5,110.167 79.5,113.5C 82.4475,113.223 85.2809,113.556 88,114.5C 88.4998,123.494 88.6664,132.494 88.5,141.5C 79.0576,141.06 69.7243,141.727 60.5,143.5C 60.5,146.167 60.5,148.833 60.5,151.5C 57.5,151.5 54.5,151.5 51.5,151.5C 51.5,148.167 51.5,144.833 51.5,141.5C 49.1432,141.663 46.8098,141.497 44.5,141C 43.7476,138.075 42.4142,135.075 40.5,132C 37.7752,130.805 35.1085,130.472 32.5,131C 31.5562,128.281 31.2229,125.448 31.5,122.5C 28.4816,122.665 25.4816,122.498 22.5,122C 21.5495,118.943 21.2161,115.777 21.5,112.5C 18.6146,112.806 15.9479,112.473 13.5,111.5C 12.1888,106 12.1888,100.5 13.5,95C 12.2259,93.7792 10.7259,92.9459 9,92.5C 6.82999,93.7201 4.66332,93.7201 2.5,92.5C 2.5,83.5 2.5,74.5 2.5,65.5C 5.16667,65.5 7.83333,65.5 10.5,65.5C 12.4533,71.0738 13.12,77.0738 12.5,83.5C 15.7766,83.2161 18.9433,83.5495 22,84.5C 22.4995,90.8246 22.6662,97.1579 22.5,103.5C 25.5,103.5 28.5,103.5 31.5,103.5C 31.5,106.5 31.5,109.5 31.5,112.5C 34.8333,112.5 38.1667,112.5 41.5,112.5C 41.5,115.833 41.5,119.167 41.5,122.5C 47.8333,122.5 54.1667,122.5 60.5,122.5C 58.8285,130.153 61.8285,133.153 69.5,131.5C 69.6665,119.162 69.4999,106.829 69,94.5C 66.2809,93.5562 63.4475,93.2229 60.5,93.5C 60.6662,87.4908 60.4995,81.4908 60,75.5C 56.9433,74.5495 53.7766,74.2161 50.5,74.5C 50.6646,71.4816 50.498,68.4816 50,65.5C 47.2809,64.5562 44.4475,64.2229 41.5,64.5C 41.5,61.5 41.5,58.5 41.5,55.5C 38.1667,55.5 34.8333,55.5 31.5,55.5C 31.5,46.1667 31.5,36.8333 31.5,27.5C 35.5138,27.6655 39.5138,27.4988 43.5,27C 45.8073,25.1724 45.474,23.5057 42.5,22C 44.3211,19.8634 46.6544,19.0301 49.5,19.5C 49.6626,23.7071 49.3293,27.8737 48.5,32C 48.796,33.8882 49.296,35.7216 50,37.5C 52.9798,37.5853 55.9798,37.9187 59,38.5C 59.4996,31.5079 59.6663,24.5079 59.5,17.5 Z"/></g>
<g><path style="opacity:1" fill="#fdd4b8" d="M 194.5,124.5 C 194.232,127.119 194.565,129.619 195.5,132C 201.491,132.499 207.491,132.666 213.5,132.5C 214.12,135.34 214.787,138.174 215.5,141C 221.167,141.333 226.833,141.667 232.5,142C 233.451,145.057 233.784,148.223 233.5,151.5C 239.833,151.5 246.167,151.5 252.5,151.5C 255.833,151.5 259.167,151.5 262.5,151.5C 262.5,154.833 262.5,158.167 262.5,161.5C 265.5,161.5 268.5,161.5 271.5,161.5C 272.403,164.391 272.736,167.391 272.5,170.5C 275.5,170.5 278.5,170.5 281.5,170.5C 284.625,171.479 287.958,171.813 291.5,171.5C 291.5,174.5 291.5,177.5 291.5,180.5C 297.833,180.5 304.167,180.5 310.5,180.5C 310.185,184.371 310.518,188.038 311.5,191.5C 311.232,194.119 311.565,196.619 312.5,199C 315.482,199.498 318.482,199.665 321.5,199.5C 320.541,205.857 320.541,212.19 321.5,218.5C 324.512,217.314 327.512,217.48 330.5,219C 331.774,219.977 331.774,220.811 330.5,221.5C 329.58,229.665 328.913,237.998 328.5,246.5C 326.799,246.034 325.299,246.034 324,246.5C 323.692,245.692 323.192,245.025 322.5,244.5C 321.667,245.5 320.833,246.5 320,247.5C 319.754,250.89 319.254,254.223 318.5,257.5C 319.407,260.421 319.74,263.421 319.5,266.5C 316.813,266.336 314.146,266.503 311.5,267C 310.536,268.725 309.869,270.559 309.5,272.5C 309.5,273.833 309.5,275.167 309.5,276.5C 306.5,276.5 303.5,276.5 300.5,276.5C 300.5,273.5 300.5,270.5 300.5,267.5C 297.5,267.5 294.5,267.5 291.5,267.5C 291.5,273.833 291.5,280.167 291.5,286.5C 288.061,286.253 284.728,286.586 281.5,287.5C 281.5,286.833 281.5,286.167 281.5,285.5C 284.5,285.5 287.5,285.5 290.5,285.5C 290.5,279.5 290.5,273.5 290.5,267.5C 284.167,267.5 277.833,267.5 271.5,267.5C 265.167,267.5 258.833,267.5 252.5,267.5C 252.5,270.5 252.5,273.5 252.5,276.5C 255.833,276.5 259.167,276.5 262.5,276.5C 262.5,279.833 262.5,283.167 262.5,286.5C 261.523,283.713 261.19,280.713 261.5,277.5C 258.5,277.5 255.5,277.5 252.5,277.5C 252.5,280.5 252.5,283.5 252.5,286.5C 246.491,286.334 240.491,286.501 234.5,287C 233.875,289.8 233.208,292.634 232.5,295.5C 226.886,296.621 221.22,296.788 215.5,296C 214.833,293 214.167,290 213.5,287C 207.509,286.501 201.509,286.334 195.5,286.5C 195.784,283.223 195.451,280.057 194.5,277C 191.183,276.502 187.85,276.335 184.5,276.5C 184.301,279.941 184.801,283.274 186,286.5C 188.719,287.444 191.552,287.777 194.5,287.5C 194.212,293.229 194.546,298.896 195.5,304.5C 198.428,305.484 201.428,305.817 204.5,305.5C 204.5,311.833 204.5,318.167 204.5,324.5C 207.833,324.5 211.167,324.5 214.5,324.5C 214.5,330.833 214.5,337.167 214.5,343.5C 220.833,343.5 227.167,343.5 233.5,343.5C 233.183,347.702 233.517,351.702 234.5,355.5C 234.5,357.833 234.5,360.167 234.5,362.5C 237.777,362.216 240.943,362.549 244,363.5C 243.528,369.619 243.362,375.619 243.5,381.5C 242.673,376.349 242.173,371.016 242,365.5C 239.539,364.782 237.039,364.115 234.5,363.5C 232.888,358.274 231.721,352.941 231,347.5C 224.915,346.688 218.748,346.188 212.5,346C 213.252,345.329 213.586,344.496 213.5,343.5C 213.5,340.5 213.5,337.5 213.5,334.5C 210.5,334.5 207.5,334.5 204.5,334.5C 204.817,331.428 204.484,328.428 203.5,325.5C 197.561,324.543 191.561,324.21 185.5,324.5C 185.5,321.5 185.5,318.5 185.5,315.5C 182.167,315.5 178.833,315.5 175.5,315.5C 175.5,309.167 175.5,302.833 175.5,296.5C 166.841,298.324 164.174,295.158 167.5,287C 160.508,286.5 153.508,286.334 146.5,286.5C 146.665,283.482 146.498,280.482 146,277.5C 143.281,276.556 140.448,276.223 137.5,276.5C 138.845,268.489 135.512,265.489 127.5,267.5C 127.5,248.167 127.5,228.833 127.5,209.5C 130.518,209.665 133.518,209.498 136.5,209C 137.167,206 137.833,203 138.5,200C 141.146,199.503 143.813,199.336 146.5,199.5C 146.5,193.5 146.5,187.5 146.5,181.5C 147.414,178.272 147.747,174.939 147.5,171.5C 150.249,171.726 152.916,171.393 155.5,170.5C 156.496,164.202 156.83,157.868 156.5,151.5C 160.66,151.898 163.993,150.565 166.5,147.5C 166.474,141.261 166.307,134.928 166,128.5C 164.887,127.24 164.72,126.073 165.5,125C 168.84,124.547 172.174,124.047 175.5,123.5C 181.802,124.373 188.135,124.706 194.5,124.5 Z"/></g>
<g><path style="opacity:1" fill="#f8c2a3" d="M 205.5,121.5 C 206.167,121.5 206.833,121.5 207.5,121.5C 208.919,122.451 210.585,122.784 212.5,122.5C 212.253,125.939 212.586,129.272 213.5,132.5C 207.491,132.666 201.491,132.499 195.5,132C 194.565,129.619 194.232,127.119 194.5,124.5C 198.146,123.224 201.813,122.224 205.5,121.5 Z"/></g>
<g><path style="opacity:1" fill="#dec6a4" d="M 207.5,121.5 C 210.482,121.104 213.149,121.771 215.5,123.5C 214.167,125.833 214.167,128.167 215.5,130.5C 224.835,131.723 233.835,131.723 242.5,130.5C 242.5,131.167 242.5,131.833 242.5,132.5C 232.833,132.5 223.167,132.5 213.5,132.5C 212.586,129.272 212.253,125.939 212.5,122.5C 210.585,122.784 208.919,122.451 207.5,121.5 Z"/></g>
<g><path style="opacity:1" fill="#c87d69" d="M 271.5,93.5 C 271.5,93.8333 271.5,94.1667 271.5,94.5C 268.5,94.5 265.5,94.5 262.5,94.5C 262.5,110.5 262.5,126.5 262.5,142.5C 265.5,142.5 268.5,142.5 271.5,142.5C 271.5,145.5 271.5,148.5 271.5,151.5C 271.5,154.833 271.5,158.167 271.5,161.5C 268.5,161.5 265.5,161.5 262.5,161.5C 262.5,158.167 262.5,154.833 262.5,151.5C 259.167,151.5 255.833,151.5 252.5,151.5C 252.5,148.5 252.5,145.5 252.5,142.5C 249.713,141.523 246.713,141.19 243.5,141.5C 243.405,136.113 243.905,130.78 245,125.5C 246.729,122.921 248.562,122.921 250.5,125.5C 251.167,124.5 251.833,123.5 252.5,122.5C 253.73,111.334 253.73,100.167 252.5,89C 252.83,86.6591 253.496,84.4924 254.5,82.5C 256.717,83.3686 259.05,83.702 261.5,83.5C 262.49,77.69 262.823,71.69 262.5,65.5C 265.5,65.5 268.5,65.5 271.5,65.5C 271.5,74.8333 271.5,84.1667 271.5,93.5 Z"/></g>
<g><path style="opacity:1" fill="#fbc0a2" d="M 213.5,132.5 C 223.167,132.5 232.833,132.5 242.5,132.5C 242.5,135.833 242.5,139.167 242.5,142.5C 245.833,142.5 249.167,142.5 252.5,142.5C 252.5,145.5 252.5,148.5 252.5,151.5C 246.167,151.5 239.833,151.5 233.5,151.5C 233.784,148.223 233.451,145.057 232.5,142C 226.833,141.667 221.167,141.333 215.5,141C 214.787,138.174 214.12,135.34 213.5,132.5 Z"/></g>
<g><path style="opacity:0.004" fill="#fefffe" d="M 19.5,143.5 C 18.8333,144.167 18.8333,144.167 19.5,143.5 Z"/></g>
<g><path style="opacity:1" fill="#faaa98" d="M 60.5,36.5 C 63.5,36.5 66.5,36.5 69.5,36.5C 69.5,42.8333 69.5,49.1667 69.5,55.5C 72.8333,55.5 76.1667,55.5 79.5,55.5C 79.5,58.5 79.5,61.5 79.5,64.5C 79.5,67.8333 79.5,71.1667 79.5,74.5C 82.4475,74.2229 85.2809,74.5562 88,75.5C 88.4995,81.8246 88.6662,88.1579 88.5,94.5C 91.8333,94.5 95.1667,94.5 98.5,94.5C 98.5,100.5 98.5,106.5 98.5,112.5C 101.777,112.216 104.943,112.549 108,113.5C 108.498,116.482 108.665,119.482 108.5,122.5C 117.268,120.516 120.268,123.683 117.5,132C 114.607,133.149 111.607,133.649 108.5,133.5C 108.5,142.167 108.5,150.833 108.5,159.5C 107.672,153.681 107.172,147.681 107,141.5C 104.667,142.167 102.333,142.833 100,143.5C 99.3333,148.833 99.3333,154.167 100,159.5C 102.94,159.846 105.44,160.846 107.5,162.5C 104.66,161.88 101.826,161.213 99,160.5C 98.6667,154.167 98.3333,147.833 98,141.5C 96.9148,140.707 95.7481,140.04 94.5,139.5C 93.4495,140.885 92.1161,141.885 90.5,142.5C 89.792,145.366 89.1253,148.2 88.5,151C 85.5184,151.498 82.5184,151.665 79.5,151.5C 79.5,148.5 79.5,145.5 79.5,142.5C 76.1501,142.335 72.8168,142.502 69.5,143C 68.6886,145.105 67.6886,147.105 66.5,149C 67.8118,151.151 69.6451,152.651 72,153.5C 73.6667,153.167 75.3333,152.833 77,152.5C 78.5403,154.955 78.8736,157.621 78,160.5C 73.7214,159.903 69.7214,158.57 66,156.5C 65.3076,157.025 64.8076,157.692 64.5,158.5C 65.6316,163.362 67.2983,168.029 69.5,172.5C 72.4212,173.407 75.4212,173.74 78.5,173.5C 78.2322,175.099 78.5655,176.432 79.5,177.5C 79.5,178.5 79.5,179.5 79.5,180.5C 69.8333,180.5 60.1667,180.5 50.5,180.5C 51.5,173.5 48.5,170.5 41.5,171.5C 41.7839,168.223 41.4505,165.057 40.5,162C 34.2041,160.988 27.8708,160.488 21.5,160.5C 22.12,154.074 21.4533,148.074 19.5,142.5C 19.1667,142.5 18.8333,142.5 18.5,142.5C 16.7354,141.539 14.7354,141.205 12.5,141.5C 12.8269,131.985 12.4936,122.652 11.5,113.5C 11.8333,112.5 12.5,111.833 13.5,111.5C 15.9479,112.473 18.6146,112.806 21.5,112.5C 21.2161,115.777 21.5495,118.943 22.5,122C 25.4816,122.498 28.4816,122.665 31.5,122.5C 31.2229,125.448 31.5562,128.281 32.5,131C 35.1085,130.472 37.7752,130.805 40.5,132C 42.4142,135.075 43.7476,138.075 44.5,141C 46.8098,141.497 49.1432,141.663 51.5,141.5C 51.5,144.833 51.5,148.167 51.5,151.5C 54.5,151.5 57.5,151.5 60.5,151.5C 60.5,148.833 60.5,146.167 60.5,143.5C 69.7243,141.727 79.0576,141.06 88.5,141.5C 88.6664,132.494 88.4998,123.494 88,114.5C 85.2809,113.556 82.4475,113.223 79.5,113.5C 79.5,110.167 79.5,106.833 79.5,103.5C 76.5,103.5 73.5,103.5 70.5,103.5C 70.5,90.5 70.5,77.5 70.5,64.5C 67.1401,64.3841 63.8067,64.0508 60.5,63.5C 60.5,54.5 60.5,45.5 60.5,36.5 Z"/></g>
<g><path style="opacity:1" fill="#fba296" d="M 107.5,162.5 C 108.473,164.948 108.806,167.615 108.5,170.5C 114.826,168.841 117.826,171.174 117.5,177.5C 116.766,176.122 116.099,174.622 115.5,173C 112.776,172.73 110.109,172.23 107.5,171.5C 106.727,169.187 106.06,166.854 105.5,164.5C 101.693,164.163 98.3597,162.829 95.5,160.5C 96.4571,154.561 96.7904,148.561 96.5,142.5C 94.2776,142.178 92.4443,142.845 91,144.5C 90.7744,147.095 90.2744,149.595 89.5,152C 86.6074,153.149 83.6074,153.649 80.5,153.5C 80.2606,155.467 80.5939,157.301 81.5,159C 84.146,159.497 86.8127,159.664 89.5,159.5C 90.158,162.156 90.8246,164.822 91.5,167.5C 91.423,169.299 90.923,170.966 90,172.5C 86.6506,172.746 83.1506,172.746 79.5,172.5C 79.5,174.167 79.5,175.833 79.5,177.5C 78.5655,176.432 78.2322,175.099 78.5,173.5C 75.4212,173.74 72.4212,173.407 69.5,172.5C 67.2983,168.029 65.6316,163.362 64.5,158.5C 64.8076,157.692 65.3076,157.025 66,156.5C 69.7214,158.57 73.7214,159.903 78,160.5C 78.8736,157.621 78.5403,154.955 77,152.5C 75.3333,152.833 73.6667,153.167 72,153.5C 69.6451,152.651 67.8118,151.151 66.5,149C 67.6886,147.105 68.6886,145.105 69.5,143C 72.8168,142.502 76.1501,142.335 79.5,142.5C 79.5,145.5 79.5,148.5 79.5,151.5C 82.5184,151.665 85.5184,151.498 88.5,151C 89.1253,148.2 89.792,145.366 90.5,142.5C 92.1161,141.885 93.4495,140.885 94.5,139.5C 95.7481,140.04 96.9148,140.707 98,141.5C 98.3333,147.833 98.6667,154.167 99,160.5C 101.826,161.213 104.66,161.88 107.5,162.5 Z"/></g>
<g><path style="opacity:1" fill="#fb9d94" d="M 271.5,131.5 C 274.85,131.335 278.183,131.502 281.5,132C 282.451,135.057 282.784,138.223 282.5,141.5C 285.167,141.5 287.833,141.5 290.5,141.5C 290.5,138.5 290.5,135.5 290.5,132.5C 293.833,132.5 297.167,132.5 300.5,132.5C 300.334,141.839 300.5,151.173 301,160.5C 303.719,161.444 306.552,161.777 309.5,161.5C 309.5,164.833 309.5,168.167 309.5,171.5C 303.5,171.5 297.5,171.5 291.5,171.5C 287.958,171.813 284.625,171.479 281.5,170.5C 284.833,170.5 288.167,170.5 291.5,170.5C 291.5,167.167 291.5,163.833 291.5,160.5C 288.167,160.5 284.833,160.5 281.5,160.5C 281.5,157.5 281.5,154.5 281.5,151.5C 278.167,151.5 274.833,151.5 271.5,151.5C 271.5,148.5 271.5,145.5 271.5,142.5C 271.5,138.833 271.5,135.167 271.5,131.5 Z"/></g>
<g><path style="opacity:1" fill="#e67775" d="M 271.5,151.5 C 274.833,151.5 278.167,151.5 281.5,151.5C 281.5,154.5 281.5,157.5 281.5,160.5C 284.833,160.5 288.167,160.5 291.5,160.5C 291.5,163.833 291.5,167.167 291.5,170.5C 288.167,170.5 284.833,170.5 281.5,170.5C 281.5,167.5 281.5,164.5 281.5,161.5C 278.167,161.5 274.833,161.5 271.5,161.5C 271.5,158.167 271.5,154.833 271.5,151.5 Z"/></g>
<g><path style="opacity:1" fill="#e7d1b5" d="M 205.5,121.5 C 201.813,122.224 198.146,123.224 194.5,124.5C 188.135,124.706 181.802,124.373 175.5,123.5C 172.174,124.047 168.84,124.547 165.5,125C 164.72,126.073 164.887,127.24 166,128.5C 166.307,134.928 166.474,141.261 166.5,147.5C 163.993,150.565 160.66,151.898 156.5,151.5C 156.83,157.868 156.496,164.202 155.5,170.5C 152.916,171.393 150.249,171.726 147.5,171.5C 147.747,174.939 147.414,178.272 146.5,181.5C 143.482,181.335 140.482,181.502 137.5,182C 136.848,184.09 136.681,186.257 137,188.5C 134.139,189.921 131.139,190.921 128,191.5C 127.503,194.146 127.336,196.813 127.5,199.5C 124.167,199.5 120.833,199.5 117.5,199.5C 117.5,196.5 117.5,193.5 117.5,190.5C 117.5,190.167 117.5,189.833 117.5,189.5C 120.833,189.5 124.167,189.5 127.5,189.5C 127.5,180.167 127.5,170.833 127.5,161.5C 130.833,161.5 134.167,161.5 137.5,161.5C 137.667,141.831 137.5,122.164 137,102.5C 133.943,103.451 130.777,103.784 127.5,103.5C 127.5,100.5 127.5,97.5 127.5,94.5C 124.223,94.7839 121.057,94.4505 118,93.5C 117.502,90.5184 117.335,87.5184 117.5,84.5C 114.5,84.5 111.5,84.5 108.5,84.5C 108.5,77.8333 108.5,71.1667 108.5,64.5C 105.5,64.5 102.5,64.5 99.5,64.5C 99.5,61.1667 99.5,57.8333 99.5,54.5C 100.117,54.3893 100.617,54.056 101,53.5C 103.405,54.2744 105.905,54.7744 108.5,55C 109.444,57.7191 109.777,60.5525 109.5,63.5C 111.722,64.3862 113.888,64.3862 116,63.5C 117.261,63.7591 118.261,64.4258 119,65.5C 118.745,68.0816 118.578,70.7482 118.5,73.5C 121.518,73.3354 124.518,73.502 127.5,74C 128.451,77.0567 128.784,80.2234 128.5,83.5C 131.545,83.2964 134.379,83.2964 137,83.5C 138.416,89.7145 138.916,96.0478 138.5,102.5C 141.187,102.336 143.854,102.503 146.5,103C 147.167,106 147.833,109 148.5,112C 150.899,112.711 153.232,112.544 155.5,111.5C 157.183,114.602 157.849,117.936 157.5,121.5C 173.504,122.731 189.504,122.731 205.5,121.5 Z"/></g>
<g><path style="opacity:1" fill="#d89f89" d="M 271.5,161.5 C 274.833,161.5 278.167,161.5 281.5,161.5C 281.5,164.5 281.5,167.5 281.5,170.5C 278.5,170.5 275.5,170.5 272.5,170.5C 272.736,167.391 272.403,164.391 271.5,161.5 Z"/></g>
<g><path style="opacity:1" fill="#fd9b94" d="M 117.5,177.5 C 117.5,178.5 117.5,179.5 117.5,180.5C 114.5,180.5 111.5,180.5 108.5,180.5C 108.848,184.085 108.181,187.418 106.5,190.5C 103.833,190.5 101.167,190.5 98.5,190.5C 98.5,187.167 98.5,183.833 98.5,180.5C 95.1667,180.5 91.8333,180.5 88.5,180.5C 88.5,183.833 88.5,187.167 88.5,190.5C 85.5,190.5 82.5,190.5 79.5,190.5C 79.5,187.167 79.5,183.833 79.5,180.5C 79.5,179.5 79.5,178.5 79.5,177.5C 79.5,175.833 79.5,174.167 79.5,172.5C 83.1506,172.746 86.6506,172.746 90,172.5C 90.923,170.966 91.423,169.299 91.5,167.5C 90.8246,164.822 90.158,162.156 89.5,159.5C 86.8127,159.664 84.146,159.497 81.5,159C 80.5939,157.301 80.2606,155.467 80.5,153.5C 83.6074,153.649 86.6074,153.149 89.5,152C 90.2744,149.595 90.7744,147.095 91,144.5C 92.4443,142.845 94.2776,142.178 96.5,142.5C 96.7904,148.561 96.4571,154.561 95.5,160.5C 98.3597,162.829 101.693,164.163 105.5,164.5C 106.06,166.854 106.727,169.187 107.5,171.5C 110.109,172.23 112.776,172.73 115.5,173C 116.099,174.622 116.766,176.122 117.5,177.5 Z"/></g>
<g><path style="opacity:1" fill="#fabcae" d="M 108.5,159.5 C 114.412,161.456 120.745,162.123 127.5,161.5C 127.5,170.833 127.5,180.167 127.5,189.5C 124.167,189.5 120.833,189.5 117.5,189.5C 117.5,186.5 117.5,183.5 117.5,180.5C 117.5,179.5 117.5,178.5 117.5,177.5C 117.826,171.174 114.826,168.841 108.5,170.5C 108.806,167.615 108.473,164.948 107.5,162.5C 105.44,160.846 102.94,159.846 100,159.5C 99.3333,154.167 99.3333,148.833 100,143.5C 102.333,142.833 104.667,142.167 107,141.5C 107.172,147.681 107.672,153.681 108.5,159.5 Z"/></g>
<g><path style="opacity:0.004" fill="#fefffe" d="M 35.5,173.5 C 35.8966,172.475 36.5632,172.308 37.5,173C 36.9056,173.464 36.2389,173.631 35.5,173.5 Z"/></g>
<g><path style="opacity:0.008" fill="#7f807f" d="M 39.5,172.5 C 38.8333,173.167 38.8333,173.167 39.5,172.5 Z"/></g>
<g><path style="opacity:1" fill="#d7a18b" d="M 309.5,161.5 C 310.49,167.645 310.823,173.978 310.5,180.5C 304.167,180.5 297.833,180.5 291.5,180.5C 291.5,177.5 291.5,174.5 291.5,171.5C 297.5,171.5 303.5,171.5 309.5,171.5C 309.5,168.167 309.5,164.833 309.5,161.5 Z"/></g>
<g><path style="opacity:0.004" fill="#fefffe" d="M 41.5,182.5 C 42.8333,183.167 42.8333,183.167 41.5,182.5 Z"/></g>
<g><path style="opacity:1" fill="#d5a28a" d="M 19.5,143.5 C 19.5,143.167 19.5,142.833 19.5,142.5C 21.4533,148.074 22.12,154.074 21.5,160.5C 27.8708,160.488 34.2041,160.988 40.5,162C 41.4505,165.057 41.7839,168.223 41.5,171.5C 48.5,170.5 51.5,173.5 50.5,180.5C 60.1667,180.5 69.8333,180.5 79.5,180.5C 79.5,183.833 79.5,187.167 79.5,190.5C 79.5,193.5 79.5,196.5 79.5,199.5C 79.5,202.833 79.5,206.167 79.5,209.5C 85.8333,209.5 92.1667,209.5 98.5,209.5C 98.5,212.833 98.5,216.167 98.5,219.5C 92.1667,219.5 85.8333,219.5 79.5,219.5C 79.5,222.5 79.5,225.5 79.5,228.5C 76.5,228.5 73.5,228.5 70.5,228.5C 71.12,222.074 70.4533,216.074 68.5,210.5C 65.8127,210.664 63.146,210.497 60.5,210C 59.6919,209.692 59.0253,209.192 58.5,208.5C 59.7888,202.857 59.7888,197.19 58.5,191.5C 55.8596,190.665 53.1929,190.498 50.5,191C 49.7178,188.26 49.2178,185.426 49,182.5C 46,181.833 43,181.167 40,180.5C 40.4922,177.681 40.3256,175.014 39.5,172.5C 36.4371,171.799 33.2704,171.132 30,170.5C 29.6909,167.416 29.5242,164.582 29.5,162C 26.9023,162.422 24.2356,162.422 21.5,162C 20.8333,161.333 20.1667,160.667 19.5,160C 20.8248,154.401 20.8248,148.901 19.5,143.5 Z"/></g>
<g><path style="opacity:1" fill="#e98977" d="M 117.5,180.5 C 117.5,183.5 117.5,186.5 117.5,189.5C 117.5,189.833 117.5,190.167 117.5,190.5C 114.5,190.5 111.5,190.5 108.5,190.5C 108.81,193.713 108.477,196.713 107.5,199.5C 107.81,196.287 107.477,193.287 106.5,190.5C 108.181,187.418 108.848,184.085 108.5,180.5C 111.5,180.5 114.5,180.5 117.5,180.5 Z"/></g>
<g><path style="opacity:1" fill="#d0a58b" d="M 320.5,177.5 C 321.625,182.249 321.458,186.916 320,191.5C 317.168,190.214 314.335,190.214 311.5,191.5C 310.518,188.038 310.185,184.371 310.5,180.5C 313.5,180.5 316.5,180.5 319.5,180.5C 319.263,179.209 319.596,178.209 320.5,177.5 Z"/></g>
<g><path style="opacity:1" fill="#e77673" d="M 106.5,190.5 C 107.477,193.287 107.81,196.287 107.5,199.5C 98.1667,199.5 88.8333,199.5 79.5,199.5C 79.5,196.5 79.5,193.5 79.5,190.5C 82.5,190.5 85.5,190.5 88.5,190.5C 88.5,187.167 88.5,183.833 88.5,180.5C 91.8333,180.5 95.1667,180.5 98.5,180.5C 98.5,183.833 98.5,187.167 98.5,190.5C 101.167,190.5 103.833,190.5 106.5,190.5 Z"/></g>
<g><path style="opacity:1" fill="#fcc0a1" d="M 146.5,181.5 C 146.5,187.5 146.5,193.5 146.5,199.5C 143.813,199.336 141.146,199.503 138.5,200C 137.833,203 137.167,206 136.5,209C 133.518,209.498 130.518,209.665 127.5,209.5C 127.5,228.833 127.5,248.167 127.5,267.5C 135.512,265.489 138.845,268.489 137.5,276.5C 140.448,276.223 143.281,276.556 146,277.5C 146.498,280.482 146.665,283.482 146.5,286.5C 153.508,286.334 160.508,286.5 167.5,287C 164.174,295.158 166.841,298.324 175.5,296.5C 175.5,302.833 175.5,309.167 175.5,315.5C 178.833,315.5 182.167,315.5 185.5,315.5C 185.5,318.5 185.5,321.5 185.5,324.5C 191.561,324.21 197.561,324.543 203.5,325.5C 204.484,328.428 204.817,331.428 204.5,334.5C 192.162,334.667 179.829,334.5 167.5,334C 166.549,330.943 166.216,327.777 166.5,324.5C 161.156,324.666 155.823,324.499 150.5,324C 149.584,323.626 148.75,323.126 148,322.5C 147.503,320.19 147.337,317.857 147.5,315.5C 140.833,315.5 134.167,315.5 127.5,315.5C 127.5,312.167 127.5,308.833 127.5,305.5C 124.5,305.5 121.5,305.5 118.5,305.5C 121.115,296.778 117.782,293.445 108.5,295.5C 108.5,292.5 108.5,289.5 108.5,286.5C 105.5,286.5 102.5,286.5 99.5,286.5C 99.9746,289.082 99.3079,291.082 97.5,292.5C 98.2341,291.292 98.5674,289.959 98.5,288.5C 98.3893,287.883 98.056,287.383 97.5,287C 95.1902,286.503 92.8568,286.337 90.5,286.5C 90.6664,277.494 90.4998,268.494 90,259.5C 87.1963,257.656 84.0297,256.989 80.5,257.5C 80.6646,254.482 80.498,251.482 80,248.5C 77.4372,247.259 74.9372,245.926 72.5,244.5C 73.5,243.833 74.5,243.167 75.5,242.5C 73.5,241.833 71.5,241.167 69.5,240.5C 70.4328,236.571 70.7662,232.571 70.5,228.5C 73.5,228.5 76.5,228.5 79.5,228.5C 79.5,225.5 79.5,222.5 79.5,219.5C 85.8333,219.5 92.1667,219.5 98.5,219.5C 98.5,216.167 98.5,212.833 98.5,209.5C 92.1667,209.5 85.8333,209.5 79.5,209.5C 79.5,206.167 79.5,202.833 79.5,199.5C 88.8333,199.5 98.1667,199.5 107.5,199.5C 108.477,196.713 108.81,193.713 108.5,190.5C 111.5,190.5 114.5,190.5 117.5,190.5C 117.5,193.5 117.5,196.5 117.5,199.5C 120.833,199.5 124.167,199.5 127.5,199.5C 127.336,196.813 127.503,194.146 128,191.5C 131.139,190.921 134.139,189.921 137,188.5C 136.681,186.257 136.848,184.09 137.5,182C 140.482,181.502 143.482,181.335 146.5,181.5 Z"/></g>
<g><path style="opacity:1" fill="#fdedd9" d="M 290.5,210.5 C 290.5,213.167 290.5,215.833 290.5,218.5C 287.287,218.19 284.287,218.523 281.5,219.5C 278.167,219.5 274.833,219.5 271.5,219.5C 271.5,225.833 271.5,232.167 271.5,238.5C 274.939,238.747 278.272,238.414 281.5,237.5C 281.5,240.833 281.5,244.167 281.5,247.5C 281.5,251.167 281.5,254.833 281.5,258.5C 284.5,258.5 287.5,258.5 290.5,258.5C 290.5,261.167 290.5,263.833 290.5,266.5C 277.833,266.5 265.167,266.5 252.5,266.5C 252.5,260.167 252.5,253.833 252.5,247.5C 249.5,247.5 246.5,247.5 243.5,247.5C 243.5,241.167 243.5,234.833 243.5,228.5C 240.167,228.5 236.833,228.5 233.5,228.5C 233.665,225.482 233.498,222.482 233,219.5C 229.943,218.549 226.777,218.216 223.5,218.5C 223.5,215.5 223.5,212.5 223.5,209.5C 226.518,209.665 229.518,209.498 232.5,209C 233.451,205.943 233.784,202.777 233.5,199.5C 243.167,199.5 252.833,199.5 262.5,199.5C 262.5,202.833 262.5,206.167 262.5,209.5C 267.511,209.666 272.511,209.499 277.5,209C 278.5,208.5 279.5,208 280.5,207.5C 279.436,214.671 282.436,218.004 289.5,217.5C 289.198,214.941 289.532,212.607 290.5,210.5 Z"/></g>
<g><path style="opacity:1" fill="#968c7f" d="M 291.5,209.5 C 291.5,212.833 291.5,216.167 291.5,219.5C 288.167,219.5 284.833,219.5 281.5,219.5C 284.287,218.523 287.287,218.19 290.5,218.5C 290.5,215.833 290.5,213.167 290.5,210.5C 290.5,209.833 290.833,209.5 291.5,209.5 Z"/></g>
<g><path style="opacity:1" fill="#f4f1e0" d="M 310.5,238.5 C 310.5,235.167 310.5,231.833 310.5,228.5C 307.5,228.5 304.5,228.5 301.5,228.5C 301.5,225.5 301.5,222.5 301.5,219.5C 307.5,219.5 313.5,219.5 319.5,219.5C 319.5,225.833 319.5,232.167 319.5,238.5C 316.5,238.5 313.5,238.5 310.5,238.5 Z"/></g>
<g><path style="opacity:1" fill="#f8c1a3" d="M 281.5,219.5 C 281.5,222.5 281.5,225.5 281.5,228.5C 281.5,231.5 281.5,234.5 281.5,237.5C 278.272,238.414 274.939,238.747 271.5,238.5C 271.5,232.167 271.5,225.833 271.5,219.5C 274.833,219.5 278.167,219.5 281.5,219.5 Z"/></g>
<g><path style="opacity:1" fill="#232b2b" d="M 291.5,209.5 C 297.833,209.5 304.167,209.5 310.5,209.5C 310.5,212.5 310.5,215.5 310.5,218.5C 307.167,218.5 303.833,218.5 300.5,218.5C 300.5,221.833 300.5,225.167 300.5,228.5C 300.369,229.239 300.536,229.906 301,230.5C 303.719,229.556 306.552,229.223 309.5,229.5C 309.5,232.167 309.5,234.833 309.5,237.5C 303.5,237.5 297.5,237.5 291.5,237.5C 291.5,234.5 291.5,231.5 291.5,228.5C 288.167,228.5 284.833,228.5 281.5,228.5C 281.5,225.5 281.5,222.5 281.5,219.5C 284.833,219.5 288.167,219.5 291.5,219.5C 291.5,216.167 291.5,212.833 291.5,209.5 Z"/></g>
<g><path style="opacity:1" fill="#fbc1a1" d="M 213.5,257.5 C 214.477,254.713 214.81,251.713 214.5,248.5C 217.5,248.5 220.5,248.5 223.5,248.5C 223.5,242.167 223.5,235.833 223.5,229.5C 215.167,231.167 211.833,227.833 213.5,219.5C 211.365,217.631 208.698,216.964 205.5,217.5C 205.5,214.833 205.5,212.167 205.5,209.5C 211.167,209.5 216.833,209.5 222.5,209.5C 223.231,213.603 222.231,217.103 219.5,220C 220,220.5 220.5,221 221,221.5C 224.149,219.638 227.649,218.971 231.5,219.5C 229.369,227.858 232.535,231.858 241,231.5C 241.333,236.833 241.667,242.167 242,247.5C 245.057,248.451 248.223,248.784 251.5,248.5C 251.829,254.206 251.495,259.872 250.5,265.5C 248.591,266.348 246.591,266.682 244.5,266.5C 244.846,263.398 244.179,260.565 242.5,258C 236.175,257.5 229.842,257.334 223.5,257.5C 223.5,260.833 223.5,264.167 223.5,267.5C 207.5,267.5 191.5,267.5 175.5,267.5C 175.5,264.5 175.5,261.5 175.5,258.5C 188.344,258.829 201.011,258.495 213.5,257.5 Z"/></g>
<g><path style="opacity:1" fill="#242d2d" d="M 175.5,209.5 C 185.167,209.5 194.833,209.5 204.5,209.5C 204.5,212.5 204.5,215.5 204.5,218.5C 197.978,218.177 191.645,218.51 185.5,219.5C 185.5,222.5 185.5,225.5 185.5,228.5C 191.5,228.5 197.5,228.5 203.5,228.5C 204.479,231.625 204.813,234.958 204.5,238.5C 201.5,238.5 198.5,238.5 195.5,238.5C 194.523,241.287 194.19,244.287 194.5,247.5C 191.5,247.5 188.5,247.5 185.5,247.5C 185.81,244.287 185.477,241.287 184.5,238.5C 181.5,238.5 178.5,238.5 175.5,238.5C 175.5,232.167 175.5,225.833 175.5,219.5C 175.5,216.167 175.5,212.833 175.5,209.5 Z"/></g>
<g><path style="opacity:1" fill="#d9f3f3" d="M 175.5,219.5 C 175.5,225.833 175.5,232.167 175.5,238.5C 178.5,238.5 181.5,238.5 184.5,238.5C 184.5,241.833 184.5,245.167 184.5,248.5C 188.167,248.5 191.833,248.5 195.5,248.5C 195.5,245.167 195.5,241.833 195.5,238.5C 198.5,238.5 201.5,238.5 204.5,238.5C 204.813,234.958 204.479,231.625 203.5,228.5C 203.627,225.628 204.294,222.628 205.5,219.5C 208.167,219.5 210.833,219.5 213.5,219.5C 211.833,227.833 215.167,231.167 223.5,229.5C 223.5,235.833 223.5,242.167 223.5,248.5C 220.5,248.5 217.5,248.5 214.5,248.5C 214.81,251.713 214.477,254.713 213.5,257.5C 200.833,257.5 188.167,257.5 175.5,257.5C 175.5,254.167 175.5,250.833 175.5,247.5C 172.167,247.5 168.833,247.5 165.5,247.5C 165.5,238.167 165.5,228.833 165.5,219.5C 168.833,219.5 172.167,219.5 175.5,219.5 Z"/></g>
<g><path style="opacity:1" fill="#faf0dd" d="M 185.5,219.5 C 192.167,219.5 198.833,219.5 205.5,219.5C 204.294,222.628 203.627,225.628 203.5,228.5C 197.5,228.5 191.5,228.5 185.5,228.5C 185.5,225.5 185.5,222.5 185.5,219.5 Z"/></g>
<g><path style="opacity:1" fill="#495656" d="M 300.5,228.5 C 300.833,228.5 301.167,228.5 301.5,228.5C 304.5,228.5 307.5,228.5 310.5,228.5C 310.5,231.833 310.5,235.167 310.5,238.5C 304.167,238.5 297.833,238.5 291.5,238.5C 291.5,238.167 291.5,237.833 291.5,237.5C 297.5,237.5 303.5,237.5 309.5,237.5C 309.5,234.833 309.5,232.167 309.5,229.5C 306.552,229.223 303.719,229.556 301,230.5C 300.536,229.906 300.369,229.239 300.5,228.5 Z"/></g>
<g><path style="opacity:1" fill="#d2f0f1" d="M 291.5,238.5 C 297.833,238.5 304.167,238.5 310.5,238.5C 310.5,241.5 310.5,244.5 310.5,247.5C 303.833,247.5 297.167,247.5 290.5,247.5C 291.999,245.547 291.665,243.88 289.5,242.5C 290.326,241.549 290.492,240.549 290,239.5C 287.618,238.446 285.118,237.779 282.5,237.5C 282.5,234.833 282.5,232.167 282.5,229.5C 285.167,229.5 287.833,229.5 290.5,229.5C 290.19,232.713 290.523,235.713 291.5,238.5 Z"/></g>
<g><path style="opacity:1" fill="#e0c0a0" d="M 68.5,210.5 C 70.4533,216.074 71.12,222.074 70.5,228.5C 70.7662,232.571 70.4328,236.571 69.5,240.5C 71.5,241.167 73.5,241.833 75.5,242.5C 74.5,243.167 73.5,243.833 72.5,244.5C 74.9372,245.926 77.4372,247.259 80,248.5C 80.498,251.482 80.6646,254.482 80.5,257.5C 84.0297,256.989 87.1963,257.656 90,259.5C 90.4998,268.494 90.6664,277.494 90.5,286.5C 92.8568,286.337 95.1902,286.503 97.5,287C 98.056,287.383 98.3893,287.883 98.5,288.5C 94.393,288.38 90.7263,287.213 87.5,285C 88.4839,276.251 88.8172,267.418 88.5,258.5C 85.4816,258.665 82.4816,258.498 79.5,258C 78.8333,257 78.1667,256 77.5,255C 77.7451,252.911 77.7451,250.911 77.5,249C 74.5248,248.956 71.5248,249.123 68.5,249.5C 68.5,236.5 68.5,223.5 68.5,210.5 Z"/></g>
<g><path style="opacity:1" fill="#afe2e4" d="M 281.5,228.5 C 284.833,228.5 288.167,228.5 291.5,228.5C 291.5,231.5 291.5,234.5 291.5,237.5C 291.5,237.833 291.5,238.167 291.5,238.5C 290.523,235.713 290.19,232.713 290.5,229.5C 287.833,229.5 285.167,229.5 282.5,229.5C 282.5,232.167 282.5,234.833 282.5,237.5C 285.118,237.779 287.618,238.446 290,239.5C 290.492,240.549 290.326,241.549 289.5,242.5C 291.665,243.88 291.999,245.547 290.5,247.5C 287.5,247.5 284.5,247.5 281.5,247.5C 281.5,244.167 281.5,240.833 281.5,237.5C 281.5,234.5 281.5,231.5 281.5,228.5 Z"/></g>
<g><path style="opacity:1" fill="#f9c6a9" d="M 175.5,209.5 C 175.5,212.833 175.5,216.167 175.5,219.5C 172.167,219.5 168.833,219.5 165.5,219.5C 165.5,228.833 165.5,238.167 165.5,247.5C 168.833,247.5 172.167,247.5 175.5,247.5C 175.5,250.833 175.5,254.167 175.5,257.5C 172.167,257.5 168.833,257.5 165.5,257.5C 165.65,254.541 164.65,252.041 162.5,250C 160.865,249.46 159.532,249.96 158.5,251.5C 157.201,250.91 156.368,249.91 156,248.5C 155.5,238.506 155.334,228.506 155.5,218.5C 161.838,218.233 168.171,217.9 174.5,217.5C 174.194,214.615 174.527,211.948 175.5,209.5 Z"/></g>
<g><path style="opacity:1" fill="#98abad" d="M 184.5,238.5 C 185.477,241.287 185.81,244.287 185.5,247.5C 188.5,247.5 191.5,247.5 194.5,247.5C 194.19,244.287 194.523,241.287 195.5,238.5C 195.5,241.833 195.5,245.167 195.5,248.5C 191.833,248.5 188.167,248.5 184.5,248.5C 184.5,245.167 184.5,241.833 184.5,238.5 Z"/></g>
<g><path style="opacity:0.455" fill="#ead9b8" d="M 330.5,221.5 C 330.666,230.506 330.5,239.506 330,248.5C 327.903,248.694 325.737,248.694 323.5,248.5C 322.354,249.145 321.354,249.978 320.5,251C 321.317,255.276 321.651,259.776 321.5,264.5C 320.96,265.748 320.293,266.915 319.5,268C 317.102,268.374 314.769,268.374 312.5,268C 311.62,269.356 311.286,270.856 311.5,272.5C 310.833,272.5 310.167,272.5 309.5,272.5C 309.869,270.559 310.536,268.725 311.5,267C 314.146,266.503 316.813,266.336 319.5,266.5C 319.74,263.421 319.407,260.421 318.5,257.5C 319.254,254.223 319.754,250.89 320,247.5C 320.833,246.5 321.667,245.5 322.5,244.5C 323.192,245.025 323.692,245.692 324,246.5C 325.299,246.034 326.799,246.034 328.5,246.5C 328.913,237.998 329.58,229.665 330.5,221.5 Z"/></g>
<g><path style="opacity:1" fill="#fac0a3" d="M 282.5,249.5 C 289.841,249.334 297.174,249.5 304.5,250C 305.191,251.067 305.691,252.234 306,253.5C 307,252.167 308,252.167 309,253.5C 309.49,254.793 309.657,256.127 309.5,257.5C 306.5,257.5 303.5,257.5 300.5,257.5C 300.5,260.5 300.5,263.5 300.5,266.5C 297.5,266.5 294.5,266.5 291.5,266.5C 291.665,263.482 291.498,260.482 291,257.5C 288.281,256.556 285.448,256.223 282.5,256.5C 282.5,254.167 282.5,251.833 282.5,249.5 Z"/></g>
<g><path style="opacity:1" fill="#f7918f" d="M 271.5,267.5 C 271.5,270.5 271.5,273.5 271.5,276.5C 274.518,276.335 277.518,276.502 280.5,277C 281.444,279.719 281.777,282.552 281.5,285.5C 281.5,286.167 281.5,286.833 281.5,287.5C 281.5,290.167 281.5,292.833 281.5,295.5C 281.167,295.5 280.833,295.5 280.5,295.5C 280.5,292.5 280.5,289.5 280.5,286.5C 277.833,286.5 275.167,286.5 272.5,286.5C 272.5,289.5 272.5,292.5 272.5,295.5C 272.167,295.5 271.833,295.5 271.5,295.5C 271.5,292.5 271.5,289.5 271.5,286.5C 268.5,286.5 265.5,286.5 262.5,286.5C 262.5,283.167 262.5,279.833 262.5,276.5C 259.167,276.5 255.833,276.5 252.5,276.5C 252.5,273.5 252.5,270.5 252.5,267.5C 258.833,267.5 265.167,267.5 271.5,267.5 Z"/></g>
<g><path style="opacity:0.992" fill="#fcefdb" d="M 309.5,272.5 C 310.167,272.5 310.833,272.5 311.5,272.5C 311.5,276.833 311.5,281.167 311.5,285.5C 314.572,285.183 317.572,285.516 320.5,286.5C 321.022,287.607 321.355,288.774 321.5,290C 320.468,298.027 320.302,306.194 321,314.5C 318.544,316.321 315.711,316.988 312.5,316.5C 305.687,315.509 298.687,315.175 291.5,315.5C 291.5,312.167 291.5,308.833 291.5,305.5C 288.482,305.665 285.482,305.498 282.5,305C 281.549,301.943 281.216,298.777 281.5,295.5C 281.5,292.833 281.5,290.167 281.5,287.5C 284.728,286.586 288.061,286.253 291.5,286.5C 291.5,280.167 291.5,273.833 291.5,267.5C 294.5,267.5 297.5,267.5 300.5,267.5C 300.5,270.5 300.5,273.5 300.5,276.5C 303.5,276.5 306.5,276.5 309.5,276.5C 309.5,275.167 309.5,273.833 309.5,272.5 Z"/></g>
<g><path style="opacity:1" fill="#fbbfa9" d="M 271.5,267.5 C 277.833,267.5 284.167,267.5 290.5,267.5C 290.5,273.5 290.5,279.5 290.5,285.5C 287.5,285.5 284.5,285.5 281.5,285.5C 281.777,282.552 281.444,279.719 280.5,277C 277.518,276.502 274.518,276.335 271.5,276.5C 271.5,273.5 271.5,270.5 271.5,267.5 Z"/></g>
<g><path style="opacity:1" fill="#fdeeda" d="M 262.5,286.5 C 265.5,286.5 268.5,286.5 271.5,286.5C 271.5,289.5 271.5,292.5 271.5,295.5C 271.5,298.833 271.5,302.167 271.5,305.5C 268.455,305.508 265.455,305.841 262.5,306.5C 262.777,309.448 262.444,312.281 261.5,315C 258.518,315.498 255.518,315.665 252.5,315.5C 250.99,324.335 254.323,327.335 262.5,324.5C 271.833,324.5 281.167,324.5 290.5,324.5C 290.833,325.167 291.167,325.833 291.5,326.5C 292.788,332.446 292.788,338.446 291.5,344.5C 285.227,345.46 278.893,345.793 272.5,345.5C 272.5,348.5 272.5,351.5 272.5,354.5C 259.508,354.256 246.842,354.589 234.5,355.5C 233.517,351.702 233.183,347.702 233.5,343.5C 227.167,343.5 220.833,343.5 214.5,343.5C 214.5,337.167 214.5,330.833 214.5,324.5C 211.167,324.5 207.833,324.5 204.5,324.5C 204.5,318.167 204.5,311.833 204.5,305.5C 201.428,305.817 198.428,305.484 195.5,304.5C 194.546,298.896 194.212,293.229 194.5,287.5C 191.552,287.777 188.719,287.444 186,286.5C 184.801,283.274 184.301,279.941 184.5,276.5C 187.85,276.335 191.183,276.502 194.5,277C 195.451,280.057 195.784,283.223 195.5,286.5C 201.509,286.334 207.509,286.501 213.5,287C 214.167,290 214.833,293 215.5,296C 221.22,296.788 226.886,296.621 232.5,295.5C 233.208,292.634 233.875,289.8 234.5,287C 240.491,286.501 246.491,286.334 252.5,286.5C 252.5,283.5 252.5,280.5 252.5,277.5C 255.5,277.5 258.5,277.5 261.5,277.5C 261.19,280.713 261.523,283.713 262.5,286.5 Z"/></g>
<g><path style="opacity:1" fill="#f98087" d="M 280.5,295.5 C 277.833,295.5 275.167,295.5 272.5,295.5C 272.5,292.5 272.5,289.5 272.5,286.5C 275.167,286.5 277.833,286.5 280.5,286.5C 280.5,289.5 280.5,292.5 280.5,295.5 Z"/></g>
<g><path style="opacity:1" fill="#fba998" d="M 204.5,334.5 C 207.5,334.5 210.5,334.5 213.5,334.5C 213.5,337.5 213.5,340.5 213.5,343.5C 211.586,344.185 209.586,344.685 207.5,345C 206.484,345.519 205.818,346.353 205.5,347.5C 204.598,352.791 204.265,358.124 204.5,363.5C 201.223,363.216 198.057,363.549 195,364.5C 194.812,385.857 194.312,407.191 193.5,428.5C 193.608,429.442 193.941,430.275 194.5,431C 197.482,431.498 200.482,431.665 203.5,431.5C 203.5,437.5 203.5,443.5 203.5,449.5C 200.833,449.5 198.167,449.5 195.5,449.5C 195.5,446.5 195.5,443.5 195.5,440.5C 192.482,440.665 189.482,440.498 186.5,440C 185.875,437.2 185.208,434.366 184.5,431.5C 181.579,430.593 178.579,430.26 175.5,430.5C 175.5,427.167 175.5,423.833 175.5,420.5C 167.727,422.393 164.394,419.393 165.5,411.5C 162.5,411.5 159.5,411.5 156.5,411.5C 156.5,408.5 156.5,405.5 156.5,402.5C 152.625,402.915 148.958,402.415 145.5,401C 146.65,392.245 146.816,383.412 146,374.5C 142.471,373.869 138.971,373.036 135.5,372C 136.389,363.132 136.722,353.965 136.5,344.5C 133.5,344.5 130.5,344.5 127.5,344.5C 127.5,337.833 127.5,331.167 127.5,324.5C 119.727,326.393 116.394,323.393 117.5,315.5C 114.5,315.5 111.5,315.5 108.5,315.5C 108.5,312.167 108.5,308.833 108.5,305.5C 104.493,305.641 100.826,304.641 97.5,302.5C 97.5,299.167 97.5,295.833 97.5,292.5C 99.3079,291.082 99.9746,289.082 99.5,286.5C 102.5,286.5 105.5,286.5 108.5,286.5C 108.5,289.5 108.5,292.5 108.5,295.5C 117.782,293.445 121.115,296.778 118.5,305.5C 121.5,305.5 124.5,305.5 127.5,305.5C 127.5,308.833 127.5,312.167 127.5,315.5C 134.167,315.5 140.833,315.5 147.5,315.5C 147.337,317.857 147.503,320.19 148,322.5C 148.75,323.126 149.584,323.626 150.5,324C 155.823,324.499 161.156,324.666 166.5,324.5C 166.216,327.777 166.549,330.943 167.5,334C 179.829,334.5 192.162,334.667 204.5,334.5 Z"/></g>
<g><path style="opacity:1" fill="#f6c2ab" d="M 271.5,295.5 C 271.833,295.5 272.167,295.5 272.5,295.5C 275.167,295.5 277.833,295.5 280.5,295.5C 280.833,295.5 281.167,295.5 281.5,295.5C 281.216,298.777 281.549,301.943 282.5,305C 285.482,305.498 288.482,305.665 291.5,305.5C 291.5,308.833 291.5,312.167 291.5,315.5C 298.687,315.175 305.687,315.509 312.5,316.5C 311.661,317.641 310.994,318.974 310.5,320.5C 311.747,322.042 311.747,323.542 310.5,325C 303.878,325.36 297.545,325.86 291.5,326.5C 291.167,325.833 290.833,325.167 290.5,324.5C 290.5,321.5 290.5,318.5 290.5,315.5C 287.5,315.5 284.5,315.5 281.5,315.5C 281.5,312.5 281.5,309.5 281.5,306.5C 278.167,306.167 274.833,305.833 271.5,305.5C 271.5,302.167 271.5,298.833 271.5,295.5 Z"/></g>
<g><path style="opacity:1" fill="#fadfc1" d="M 271.5,305.5 C 274.833,305.833 278.167,306.167 281.5,306.5C 281.5,309.5 281.5,312.5 281.5,315.5C 284.5,315.5 287.5,315.5 290.5,315.5C 290.5,318.5 290.5,321.5 290.5,324.5C 281.167,324.5 271.833,324.5 262.5,324.5C 262.5,321.5 262.5,318.5 262.5,315.5C 265.5,315.5 268.5,315.5 271.5,315.5C 271.5,312.167 271.5,308.833 271.5,305.5 Z"/></g>
<g><path style="opacity:1" fill="#f7bea8" d="M 271.5,305.5 C 271.5,308.833 271.5,312.167 271.5,315.5C 268.5,315.5 265.5,315.5 262.5,315.5C 262.5,318.5 262.5,321.5 262.5,324.5C 254.323,327.335 250.99,324.335 252.5,315.5C 255.518,315.665 258.518,315.498 261.5,315C 262.444,312.281 262.777,309.448 262.5,306.5C 265.455,305.841 268.455,305.508 271.5,305.5 Z"/></g>
<g><path style="opacity:1" fill="#facaaf" d="M 223.5,325.5 C 233.172,325.334 242.839,325.5 252.5,326C 252.737,328.288 252.737,330.788 252.5,333.5C 242.833,333.5 233.167,333.5 223.5,333.5C 223.5,330.833 223.5,328.167 223.5,325.5 Z"/></g>
<g><path style="opacity:0.024" fill="#a6c8a5" d="M 89.5,332.5 C 90.2506,331.427 91.2506,331.26 92.5,332C 91.552,332.483 90.552,332.649 89.5,332.5 Z"/></g>
<g><path style="opacity:0.598" fill="#cec5a0" d="M 89.5,334.5 C 89.5,344.167 89.5,353.833 89.5,363.5C 89.6646,366.518 89.498,369.518 89,372.5C 85.9433,373.451 82.7766,373.784 79.5,373.5C 79.7678,375.099 79.4345,376.432 78.5,377.5C 78.5,375.833 78.5,374.167 78.5,372.5C 81.7766,372.784 84.9433,372.451 88,371.5C 88.8211,359.258 88.6544,347.091 87.5,335C 88.0944,334.536 88.7611,334.369 89.5,334.5 Z"/></g>
<g><path style="opacity:1" fill="#faaa98" d="M 89.5,363.5 C 92.5,363.5 95.5,363.5 98.5,363.5C 98.5,366.833 98.5,370.167 98.5,373.5C 101.448,373.223 104.281,373.556 107,374.5C 108.404,380.044 108.904,385.71 108.5,391.5C 111.786,392.207 115.119,392.54 118.5,392.5C 118.5,395.5 118.5,398.5 118.5,401.5C 121.5,401.5 124.5,401.5 127.5,401.5C 127.5,404.833 127.5,408.167 127.5,411.5C 134.167,411.5 140.833,411.5 147.5,411.5C 147.5,414.5 147.5,417.5 147.5,420.5C 150.5,420.5 153.5,420.5 156.5,420.5C 156.5,423.5 156.5,426.5 156.5,429.5C 160.142,430.08 163.809,430.58 167.5,431C 166.167,434 166.167,437 167.5,440C 160.799,440.503 154.132,440.836 147.5,441C 146.549,437.943 146.216,434.777 146.5,431.5C 143.119,431.54 139.786,431.207 136.5,430.5C 136.5,427.5 136.5,424.5 136.5,421.5C 130.491,421.666 124.491,421.499 118.5,421C 117.782,418.539 117.115,416.039 116.5,413.5C 113.634,412.792 110.8,412.125 108,411.5C 107.503,408.854 107.336,406.187 107.5,403.5C 101.536,402.693 95.5362,402.36 89.5,402.5C 89.9051,406.048 89.4051,409.381 88,412.5C 85.2809,411.556 82.4475,411.223 79.5,411.5C 79.5,414.833 79.5,418.167 79.5,421.5C 76.5,421.5 73.5,421.5 70.5,421.5C 70.6646,424.518 70.498,427.518 70,430.5C 66.9433,431.451 63.7766,431.784 60.5,431.5C 60.6646,434.518 60.498,437.518 60,440.5C 57.2809,441.444 54.4475,441.777 51.5,441.5C 50.6365,447.455 50.3032,453.455 50.5,459.5C 37.5,459.5 24.5,459.5 11.5,459.5C 10.1944,456.313 10.1944,452.98 11.5,449.5C 14.4174,448.934 17.4174,448.934 20.5,449.5C 22.139,443.889 23.139,437.889 23.5,431.5C 26.8544,433.113 29.8544,432.78 32.5,430.5C 31.8333,429.5 31.1667,428.5 30.5,427.5C 30.9431,425.035 31.2764,422.702 31.5,420.5C 34.1873,420.664 36.854,420.497 39.5,420C 40.1689,417.738 40.5023,415.571 40.5,413.5C 43.5885,412.215 46.9219,411.549 50.5,411.5C 50.5,408.5 50.5,405.5 50.5,402.5C 53.5184,402.665 56.5184,402.498 59.5,402C 60.4505,398.943 60.7839,395.777 60.5,392.5C 63.0593,392.802 65.3926,392.468 67.5,391.5C 68.8166,388.77 68.8166,385.937 67.5,383C 68.8985,380.438 70.5652,380.105 72.5,382C 74.5,382.667 76.5,382.667 78.5,382C 77.5868,380.586 77.5868,379.086 78.5,377.5C 79.4345,376.432 79.7678,375.099 79.5,373.5C 82.7766,373.784 85.9433,373.451 89,372.5C 89.498,369.518 89.6646,366.518 89.5,363.5 Z"/></g>
<g><path style="opacity:1" fill="#fdd5b9" d="M 243.5,381.5 C 249.619,381.663 255.786,381.996 262,382.5C 262.5,382.833 263,383.167 263.5,383.5C 263.106,385.53 262.773,387.863 262.5,390.5C 268.074,392.453 274.074,393.12 280.5,392.5C 280.5,395.5 280.5,398.5 280.5,401.5C 277.5,401.5 274.5,401.5 271.5,401.5C 271.5,408.167 271.5,414.833 271.5,421.5C 268.753,421.187 266.086,421.52 263.5,422.5C 262.833,425.167 262.167,427.833 261.5,430.5C 258.572,431.484 255.572,431.817 252.5,431.5C 252.223,434.448 252.556,437.281 253.5,440C 246.842,440.5 240.175,440.666 233.5,440.5C 233.726,443.249 233.393,445.916 232.5,448.5C 229.353,449.185 226.353,450.185 223.5,451.5C 223.5,441.5 223.5,431.5 223.5,421.5C 226.833,421.5 230.167,421.5 233.5,421.5C 233.5,415.167 233.5,408.833 233.5,402.5C 236.777,402.784 239.943,402.451 243,401.5C 243.5,394.842 243.666,388.175 243.5,381.5 Z"/></g>
<g><path style="opacity:0.592" fill="#d5b098" d="M 67.5,391.5 C 65.3926,392.468 63.0593,392.802 60.5,392.5C 60.7839,395.777 60.4505,398.943 59.5,402C 56.5184,402.498 53.5184,402.665 50.5,402.5C 50.5,405.5 50.5,408.5 50.5,411.5C 46.9219,411.549 43.5885,412.215 40.5,413.5C 39.9569,413.44 39.6236,413.107 39.5,412.5C 40.5217,411.646 41.3551,410.646 42,409.5C 44.3806,410.435 46.8806,410.768 49.5,410.5C 49.3354,407.482 49.502,404.482 50,401.5C 51.3159,398.972 52.4826,398.972 53.5,401.5C 55.4506,400.744 57.2839,400.411 59,400.5C 59.498,397.518 59.6646,394.518 59.5,391.5C 62.3387,391.031 65.0054,391.031 67.5,391.5 Z"/></g>
<g><path style="opacity:1" fill="#fcc0a1" d="M 97.5,302.5 C 100.826,304.641 104.493,305.641 108.5,305.5C 108.5,308.833 108.5,312.167 108.5,315.5C 111.5,315.5 114.5,315.5 117.5,315.5C 116.394,323.393 119.727,326.393 127.5,324.5C 127.5,331.167 127.5,337.833 127.5,344.5C 130.5,344.5 133.5,344.5 136.5,344.5C 136.722,353.965 136.389,363.132 135.5,372C 138.971,373.036 142.471,373.869 146,374.5C 146.816,383.412 146.65,392.245 145.5,401C 148.958,402.415 152.625,402.915 156.5,402.5C 156.5,405.5 156.5,408.5 156.5,411.5C 159.5,411.5 162.5,411.5 165.5,411.5C 164.394,419.393 167.727,422.393 175.5,420.5C 175.5,423.833 175.5,427.167 175.5,430.5C 178.579,430.26 181.579,430.593 184.5,431.5C 185.208,434.366 185.875,437.2 186.5,440C 189.482,440.498 192.482,440.665 195.5,440.5C 195.5,443.5 195.5,446.5 195.5,449.5C 198.167,449.5 200.833,449.5 203.5,449.5C 203.5,443.5 203.5,437.5 203.5,431.5C 200.482,431.665 197.482,431.498 194.5,431C 193.941,430.275 193.608,429.442 193.5,428.5C 194.312,407.191 194.812,385.857 195,364.5C 198.057,363.549 201.223,363.216 204.5,363.5C 204.265,358.124 204.598,352.791 205.5,347.5C 205.818,346.353 206.484,345.519 207.5,345C 209.586,344.685 211.586,344.185 213.5,343.5C 213.586,344.496 213.252,345.329 212.5,346C 218.748,346.188 224.915,346.688 231,347.5C 231.721,352.941 232.888,358.274 234.5,363.5C 237.039,364.115 239.539,364.782 242,365.5C 242.173,371.016 242.673,376.349 243.5,381.5C 243.666,388.175 243.5,394.842 243,401.5C 239.943,402.451 236.777,402.784 233.5,402.5C 233.5,408.833 233.5,415.167 233.5,421.5C 230.167,421.5 226.833,421.5 223.5,421.5C 223.5,431.5 223.5,441.5 223.5,451.5C 223.806,454.385 223.473,457.052 222.5,459.5C 190.833,459.5 159.167,459.5 127.5,459.5C 127.5,456.5 127.5,453.5 127.5,450.5C 118.167,450.5 108.833,450.5 99.5,450.5C 99.2962,453.518 98.9629,456.518 98.5,459.5C 98.5,460.167 98.5,460.833 98.5,461.5C 97.5,461.5 96.5,461.5 95.5,461.5C 67.5,460.833 39.5,460.167 11.5,459.5C 24.5,459.5 37.5,459.5 50.5,459.5C 50.3032,453.455 50.6365,447.455 51.5,441.5C 54.4475,441.777 57.2809,441.444 60,440.5C 60.498,437.518 60.6646,434.518 60.5,431.5C 63.7766,431.784 66.9433,431.451 70,430.5C 70.498,427.518 70.6646,424.518 70.5,421.5C 73.5,421.5 76.5,421.5 79.5,421.5C 79.5,418.167 79.5,414.833 79.5,411.5C 82.4475,411.223 85.2809,411.556 88,412.5C 89.4051,409.381 89.9051,406.048 89.5,402.5C 95.5362,402.36 101.536,402.693 107.5,403.5C 107.336,406.187 107.503,408.854 108,411.5C 110.8,412.125 113.634,412.792 116.5,413.5C 117.115,416.039 117.782,418.539 118.5,421C 124.491,421.499 130.491,421.666 136.5,421.5C 136.5,424.5 136.5,427.5 136.5,430.5C 139.786,431.207 143.119,431.54 146.5,431.5C 146.216,434.777 146.549,437.943 147.5,441C 154.132,440.836 160.799,440.503 167.5,440C 166.167,437 166.167,434 167.5,431C 163.809,430.58 160.142,430.08 156.5,429.5C 156.5,426.5 156.5,423.5 156.5,420.5C 153.5,420.5 150.5,420.5 147.5,420.5C 147.5,417.5 147.5,414.5 147.5,411.5C 140.833,411.5 134.167,411.5 127.5,411.5C 127.5,408.167 127.5,404.833 127.5,401.5C 124.5,401.5 121.5,401.5 118.5,401.5C 118.5,398.5 118.5,395.5 118.5,392.5C 115.119,392.54 111.786,392.207 108.5,391.5C 108.904,385.71 108.404,380.044 107,374.5C 104.281,373.556 101.448,373.223 98.5,373.5C 98.5,370.167 98.5,366.833 98.5,363.5C 95.5,363.5 92.5,363.5 89.5,363.5C 89.5,353.833 89.5,344.167 89.5,334.5C 92.0545,333.612 94.7212,333.279 97.5,333.5C 97.5,323.167 97.5,312.833 97.5,302.5 Z"/></g>
<g><path style="opacity:0.99" fill="#e0af98" d="M 31.5,420.5 C 31.2764,422.702 30.9431,425.035 30.5,427.5C 31.1667,428.5 31.8333,429.5 32.5,430.5C 29.8544,432.78 26.8544,433.113 23.5,431.5C 23.139,437.889 22.139,443.889 20.5,449.5C 20.536,443.107 20.3693,436.773 20,430.5C 22.1388,428.492 24.4721,428.492 27,430.5C 28.1667,430.333 29.3333,430.167 30.5,430C 30.0342,427.288 29.7008,424.621 29.5,422C 29.8333,421.167 30.1667,420.333 30.5,419.5C 31.1067,419.624 31.44,419.957 31.5,420.5 Z"/></g>
<g><path style="opacity:1" fill="#fde0c8" d="M 262.5,390.5 C 269.078,391.46 275.745,391.793 282.5,391.5C 282.335,394.518 282.502,397.518 283,400.5C 286.02,401.081 289.02,401.415 292,401.5C 292.498,404.482 292.665,407.482 292.5,410.5C 298.509,410.334 304.509,410.501 310.5,411C 311.285,413.908 311.619,416.742 311.5,419.5C 314.704,420.204 317.871,420.87 321,421.5C 320.573,424.093 320.406,426.593 320.5,429C 322.917,430.3 325.417,430.134 328,428.5C 330.277,431.699 331.11,435.365 330.5,439.5C 333.518,439.335 336.518,439.502 339.5,440C 340.125,442.8 340.792,445.634 341.5,448.5C 343.462,449.634 345.462,449.634 347.5,448.5C 349.073,448.752 350.406,449.418 351.5,450.5C 351.5,451.167 351.5,451.833 351.5,452.5C 350.755,455.39 350.088,458.39 349.5,461.5C 348.5,461.5 347.5,461.5 346.5,461.5C 343.167,460.167 339.833,460.167 336.5,461.5C 332.833,461.5 329.167,461.5 325.5,461.5C 325.167,460.167 324.833,460.167 324.5,461.5C 298.833,461.5 273.167,461.5 247.5,461.5C 243.5,460.167 239.5,460.167 235.5,461.5C 231.167,461.5 226.833,461.5 222.5,461.5C 222.5,461.167 222.5,460.833 222.5,460.5C 222.5,460.167 222.5,459.833 222.5,459.5C 223.473,457.052 223.806,454.385 223.5,451.5C 226.353,450.185 229.353,449.185 232.5,448.5C 233.393,445.916 233.726,443.249 233.5,440.5C 240.175,440.666 246.842,440.5 253.5,440C 252.556,437.281 252.223,434.448 252.5,431.5C 255.572,431.817 258.572,431.484 261.5,430.5C 262.167,427.833 262.833,425.167 263.5,422.5C 266.086,421.52 268.753,421.187 271.5,421.5C 271.5,414.833 271.5,408.167 271.5,401.5C 274.5,401.5 277.5,401.5 280.5,401.5C 280.5,398.5 280.5,395.5 280.5,392.5C 274.074,393.12 268.074,392.453 262.5,390.5 Z"/></g>
<g><path style="opacity:0.012" fill="#a9aaa9" d="M 18.5,446.5 C 19.8333,447.167 19.8333,447.167 18.5,446.5 Z"/></g>
<g><path style="opacity:0.02" fill="#98cc98" d="M 18.5,447.5 C 17.8333,448.167 17.8333,448.167 18.5,447.5 Z"/></g>
<g><path style="opacity:1" fill="#fbd6b9" d="M 127.5,459.5 C 117.833,459.5 108.167,459.5 98.5,459.5C 98.9629,456.518 99.2962,453.518 99.5,450.5C 108.833,450.5 118.167,450.5 127.5,450.5C 127.5,453.5 127.5,456.5 127.5,459.5 Z"/></g>
<g><path style="opacity:0.242" fill="#cacda4" d="M 98.5,459.5 C 108.167,459.5 117.833,459.5 127.5,459.5C 159.167,459.5 190.833,459.5 222.5,459.5C 222.5,459.833 222.5,460.167 222.5,460.5C 181.33,460.168 140.33,460.501 99.5,461.5C 99.1667,461.5 98.8333,461.5 98.5,461.5C 98.5,460.833 98.5,460.167 98.5,459.5 Z"/></g>
</svg>
