<?xml version="1.0" encoding="UTF-8"?>
<!DOCTYPE svg PUBLIC "-//W3C//DTD SVG 1.1//EN" "http://www.w3.org/Graphics/SVG/1.1/DTD/svg11.dtd">
<svg xmlns="http://www.w3.org/2000/svg" version="1.1" width="351px" height="464px" style="shape-rendering:geometricPrecision; text-rendering:geometricPrecision; image-rendering:optimizeQuality; fill-rule:evenodd; clip-rule:evenodd" xmlns:xlink="http://www.w3.org/1999/xlink">
<g><path style="opacity:1" fill="#c57d68" d="M 38.5,-0.5 C 45.1667,-0.5 51.8333,-0.5 58.5,-0.5C 58.5,5.83333 58.5,12.1667 58.5,18.5C 55.5,18.5 52.5,18.5 49.5,18.5C 49.5,15.5 49.5,12.5 49.5,9.5C 46.1667,9.5 42.8333,9.5 39.5,9.5C 39.5,12.5 39.5,15.5 39.5,18.5C 36.2869,18.19 33.2869,18.5233 30.5,19.5C 30.5,22.5 30.5,25.5 30.5,28.5C 26.8333,28.5 23.1667,28.5 19.5,28.5C 19.3354,25.4816 19.502,22.4816 20,19.5C 23,18.8333 26,18.1667 29,17.5C 29.769,14.9009 29.6023,12.4009 28.5,10C 29.7014,9.09748 30.5348,7.93081 31,6.5C 31.804,7.80449 32.9707,8.47116 34.5,8.5C 36.1285,7.57654 37.6285,7.24321 39,7.5C 38.7446,4.91844 38.578,2.25177 38.5,-0.5 Z"/></g>
<g><path style="opacity:0.047" fill="#a5b588" d="M 310.5,7.5 C 309.761,7.63101 309.094,7.46434 308.5,7C 309.437,6.30831 310.103,6.47498 310.5,7.5 Z"/></g>
<g><path style="opacity:0.031" fill="#87b286" d="M 313.5,7.5 C 314.251,6.42654 315.251,6.25988 316.5,7C 315.552,7.48278 314.552,7.64945 313.5,7.5 Z"/></g>
<g><path style="opacity:1" fill="#d5af98" d="M 58.5,-0.5 C 59.1667,-0.5 59.8333,-0.5 60.5,-0.5C 59.5651,2.11279 59.3985,4.77946 60,7.5C 63.2673,7.89528 66.2673,8.89528 69,10.5C 68.9132,15.9631 69.7465,21.1298 71.5,26C 70.8333,26.3333 70.1667,26.6667 69.5,27C 72.5716,27.4559 75.5716,27.4559 78.5,27C 79.1334,30.459 79.8,33.959 80.5,37.5C 82.6922,37.4683 85.0255,37.3016 87.5,37C 88.2113,39.7963 88.878,42.6296 89.5,45.5C 92.3056,46.1676 94.9723,46.8343 97.5,47.5C 94.2836,47.5811 91.2836,48.0811 88.5,49C 86.75,47.2458 86.0833,45.0792 86.5,42.5C 84.076,42.8076 81.7427,42.4742 79.5,41.5C 82.1306,39.9954 81.7973,39.3287 78.5,39.5C 75.3752,38.5206 72.0419,38.1872 68.5,38.5C 68.5,32.1667 68.5,25.8333 68.5,19.5C 65.2869,19.19 62.2869,19.5233 59.5,20.5C 59.1667,20.5 58.8333,20.5 58.5,20.5C 55.5,19.8333 52.5,19.1667 49.5,18.5C 52.5,18.5 55.5,18.5 58.5,18.5C 58.5,12.1667 58.5,5.83333 58.5,-0.5 Z"/></g>
<g><path style="opacity:0.008" fill="#fefffe" d="M 293.5,25.5 C 294.833,26.1667 294.833,26.1667 293.5,25.5 Z"/></g>
<g><path style="opacity:1" fill="#fbc0a3" d="M 49.5,18.5 C 52.5,19.1667 55.5,19.8333 58.5,20.5C 58.5,36.1667 58.5,51.8333 58.5,67.5C 61.8333,67.5 65.1667,67.5 68.5,67.5C 68.5,77.1667 68.5,86.8333 68.5,96.5C 65.1667,96.5 61.8333,96.5 58.5,96.5C 58.5,90.1667 58.5,83.8333 58.5,77.5C 55.4212,77.7399 52.4212,77.4066 49.5,76.5C 49.7473,70.0801 46.7473,67.0801 40.5,67.5C 40.665,64.1501 40.4983,60.8168 40,57.5C 36.7327,57.1047 33.7327,56.1047 31,54.5C 30.3333,46.1667 30.3333,37.8333 31,29.5C 33.7191,28.5562 36.5525,28.2229 39.5,28.5C 39.5,25.5 39.5,22.5 39.5,19.5C 36.5,19.5 33.5,19.5 30.5,19.5C 33.2869,18.5233 36.2869,18.19 39.5,18.5C 39.5,15.5 39.5,12.5 39.5,9.5C 42.8333,9.5 46.1667,9.5 49.5,9.5C 49.5,12.5 49.5,15.5 49.5,18.5 Z"/></g>
<g><path style="opacity:1" fill="#fcd4b7" d="M 30.5,19.5 C 33.5,19.5 36.5,19.5 39.5,19.5C 39.5,22.5 39.5,25.5 39.5,28.5C 36.5525,28.2229 33.7191,28.5562 31,29.5C 30.3333,37.8333 30.3333,46.1667 31,54.5C 33.7327,56.1047 36.7327,57.1047 40,57.5C 40.4983,60.8168 40.665,64.1501 40.5,67.5C 46.7473,67.0801 49.7473,70.0801 49.5,76.5C 52.4212,77.4066 55.4212,77.7399 58.5,77.5C 58.5,83.8333 58.5,90.1667 58.5,96.5C 61.8333,96.5 65.1667,96.5 68.5,96.5C 68.5,99.1667 68.5,101.833 68.5,104.5C 68.5,114.167 68.5,123.833 68.5,133.5C 65.5,133.5 62.5,133.5 59.5,133.5C 59.5,130.5 59.5,127.5 59.5,124.5C 52.8333,124.5 46.1667,124.5 39.5,124.5C 39.5,121.5 39.5,118.5 39.5,115.5C 36.5,115.5 33.5,115.5 30.5,115.5C 30.5,112.167 30.5,108.833 30.5,105.5C 27.2234,105.784 24.0567,105.451 21,104.5C 20.6667,99.8333 20.3333,95.1667 20,90.5C 19.237,93.0635 18.737,93.0635 18.5,90.5C 18.6082,89.5581 18.9415,88.7247 19.5,88C 16.5706,87.2228 13.7372,87.3895 11,88.5C 10.1376,86.913 9.47093,85.2464 9,83.5C 8.82831,78.7982 8.32831,74.1315 7.5,69.5C 5.61826,68.9067 3.78493,68.2401 2,67.5C 1.50008,83.1631 1.33341,98.8298 1.5,114.5C 4.0593,114.198 6.39263,114.532 8.5,115.5C 5.98239,115.649 3.48239,115.649 1,115.5C 0.831352,99.9945 0.331352,84.6612 -0.5,69.5C -0.5,68.8333 -0.5,68.1667 -0.5,67.5C 1.16431,66.001 3.16431,65.001 5.5,64.5C 6.69559,64.8457 6.69559,65.3457 5.5,66C 6.79323,66.49 8.12656,66.6567 9.5,66.5C 9.46656,57.6619 9.63323,48.6619 10,39.5C 12.8037,37.6556 15.9703,36.9889 19.5,37.5C 19.5,34.5 19.5,31.5 19.5,28.5C 23.1667,28.5 26.8333,28.5 30.5,28.5C 30.5,25.5 30.5,22.5 30.5,19.5 Z"/></g>
<g><path style="opacity:1" fill="#c77d6a" d="M 68.5,38.5 C 65.5,38.5 62.5,38.5 59.5,38.5C 59.5,32.5 59.5,26.5 59.5,20.5C 62.2869,19.5233 65.2869,19.19 68.5,19.5C 68.5,25.8333 68.5,32.1667 68.5,38.5 Z"/></g>
<g><path style="opacity:0.008" fill="#fefffe" d="M 277.5,41.5 C 278.525,41.8966 278.692,42.5632 278,43.5C 277.536,42.9056 277.369,42.2389 277.5,41.5 Z"/></g>
<g><path style="opacity:1" fill="#c97e6b" d="M 68.5,38.5 C 72.0419,38.1872 75.3752,38.5206 78.5,39.5C 78.5,45.5 78.5,51.5 78.5,57.5C 75.1667,57.5 71.8333,57.5 68.5,57.5C 68.5,51.1667 68.5,44.8333 68.5,38.5 Z"/></g>
<g><path style="opacity:0.016" fill="#80ff7f" d="M 99.5,46.5 C 100.833,47.1667 100.833,47.1667 99.5,46.5 Z"/></g>
<g><path style="opacity:1" fill="#fbc0a1" d="M 319.5,19.5 C 319.5,29.1667 319.5,38.8333 319.5,48.5C 315.833,48.5 312.167,48.5 308.5,48.5C 308.5,57.8333 308.5,67.1667 308.5,76.5C 305.5,76.5 302.5,76.5 299.5,76.5C 299.5,86.1667 299.5,95.8333 299.5,105.5C 296.5,105.5 293.5,105.5 290.5,105.5C 290.5,114.833 290.5,124.167 290.5,133.5C 293.713,133.19 296.713,133.523 299.5,134.5C 296.167,134.5 292.833,134.5 289.5,134.5C 289.5,137.5 289.5,140.5 289.5,143.5C 286.713,144.477 283.713,144.81 280.5,144.5C 280.5,141.167 280.5,137.833 280.5,134.5C 277.167,134.5 273.833,134.5 270.5,134.5C 270.5,121.833 270.5,109.167 270.5,96.5C 270.842,95.6618 271.508,95.3284 272.5,95.5C 275.167,95.5 277.833,95.5 280.5,95.5C 280.5,89.1667 280.5,82.8333 280.5,76.5C 283.5,76.5 286.5,76.5 289.5,76.5C 289.5,70.1667 289.5,63.8333 289.5,57.5C 292.833,57.5 296.167,57.5 299.5,57.5C 299.5,50.8333 299.5,44.1667 299.5,37.5C 302.5,37.5 305.5,37.5 308.5,37.5C 308.5,34.5 308.5,31.5 308.5,28.5C 311.833,28.5 315.167,28.5 318.5,28.5C 318.19,25.2869 318.523,22.2869 319.5,19.5 Z"/></g>
<g><path style="opacity:0.541" fill="#e1e6c7" d="M 338.5,9.5 C 339.49,15.31 339.823,21.31 339.5,27.5C 342.5,27.5 345.5,27.5 348.5,27.5C 348.207,53.4279 348.54,79.0946 349.5,104.5C 347.271,106.553 344.938,106.886 342.5,105.5C 344.144,105.714 345.644,105.38 347,104.5C 347.5,79.5022 347.667,54.5022 347.5,29.5C 344.421,29.7399 341.421,29.4066 338.5,28.5C 337.516,25.5719 337.183,22.5719 337.5,19.5C 338.167,19.5 338.5,19.1667 338.5,18.5C 338.5,15.5 338.5,12.5 338.5,9.5 Z"/></g>
<g><path style="opacity:0.008" fill="#00ff00" d="M 265.5,64.5 C 266.251,63.4265 267.251,63.2599 268.5,64C 267.552,64.4828 266.552,64.6495 265.5,64.5 Z"/></g>
<g><path style="opacity:1" fill="#d3a188" d="M 317.5,-0.5 C 321.5,-0.5 325.5,-0.5 329.5,-0.5C 329.5,2.5 329.5,5.5 329.5,8.5C 332.713,8.19 335.713,8.52333 338.5,9.5C 338.5,12.5 338.5,15.5 338.5,18.5C 331.978,18.1765 325.645,18.5098 319.5,19.5C 318.523,22.2869 318.19,25.2869 318.5,28.5C 315.167,28.5 311.833,28.5 308.5,28.5C 308.5,31.5 308.5,34.5 308.5,37.5C 305.5,37.5 302.5,37.5 299.5,37.5C 299.5,44.1667 299.5,50.8333 299.5,57.5C 296.167,57.5 292.833,57.5 289.5,57.5C 289.5,63.8333 289.5,70.1667 289.5,76.5C 286.5,76.5 283.5,76.5 280.5,76.5C 280.5,82.8333 280.5,89.1667 280.5,95.5C 277.833,95.5 275.167,95.5 272.5,95.5C 272.187,86.6385 272.52,77.6385 273.5,68.5C 276.237,69.2129 278.904,69.2129 281.5,68.5C 282.466,66.604 282.799,64.604 282.5,62.5C 283.978,62.762 285.311,62.4287 286.5,61.5C 283.951,60.7158 281.618,59.5492 279.5,58C 276.854,57.5026 274.187,57.3359 271.5,57.5C 271.675,59.6208 271.341,61.6208 270.5,63.5C 269.767,60.7203 269.434,57.8869 269.5,55C 272.675,55.8697 276.008,56.3697 279.5,56.5C 279.334,50.1579 279.5,43.8246 280,37.5C 281.796,36.233 283.629,36.233 285.5,37.5C 286.197,35.6155 287.197,35.2822 288.5,36.5C 289.288,33.5255 289.621,30.6922 289.5,28C 292.367,27.971 294.867,27.1376 297,25.5C 297.423,26.9561 298.256,27.4561 299.5,27C 298.39,24.2628 298.223,21.4294 299,18.5C 301.73,18.1553 304.563,17.9886 307.5,18C 307.955,14.2621 308.955,10.7621 310.5,7.5C 312.717,8.36863 315.05,8.70197 317.5,8.5C 318.424,5.44672 318.424,2.44672 317.5,-0.5 Z"/></g>
<g><path style="opacity:0.008" fill="#00ff00" d="M 275.5,54.5 C 276.833,55.1667 276.833,55.1667 275.5,54.5 Z"/></g>
<g><path style="opacity:0.031" fill="#7ca173" d="M 248.5,86.5 C 249.598,87.6009 249.765,88.9343 249,90.5C 248.51,89.2068 248.343,87.8734 248.5,86.5 Z"/></g>
<g><path style="opacity:1" fill="#c7806c" d="M 272.5,95.5 C 271.508,95.3284 270.842,95.6618 270.5,96.5C 267.607,95.9241 264.607,95.9241 261.5,96.5C 261.5,112.167 261.5,127.833 261.5,143.5C 264.5,143.5 267.5,143.5 270.5,143.5C 270.5,146.833 270.5,150.167 270.5,153.5C 270.5,156.833 270.5,160.167 270.5,163.5C 267.5,163.5 264.5,163.5 261.5,163.5C 261.5,160.167 261.5,156.833 261.5,153.5C 258.167,153.5 254.833,153.5 251.5,153.5C 251.5,150.167 251.5,146.833 251.5,143.5C 248.5,143.5 245.5,143.5 242.5,143.5C 242.815,139.629 242.482,135.962 241.5,132.5C 241.296,129.455 241.296,126.621 241.5,124C 244.475,123.956 247.475,124.123 250.5,124.5C 250.333,111.829 250.5,99.1623 251,86.5C 251.333,85.8333 251.667,85.1667 252,84.5C 254.667,85.8333 257.333,85.8333 260,84.5C 260.499,78.5092 260.666,72.5092 260.5,66.5C 263.187,66.6641 265.854,66.4974 268.5,66C 269.381,65.2917 270.047,64.4584 270.5,63.5C 271.341,61.6208 271.675,59.6208 271.5,57.5C 274.187,57.3359 276.854,57.5026 279.5,58C 281.618,59.5492 283.951,60.7158 286.5,61.5C 285.311,62.4287 283.978,62.762 282.5,62.5C 282.799,64.604 282.466,66.604 281.5,68.5C 278.904,69.2129 276.237,69.2129 273.5,68.5C 272.52,77.6385 272.187,86.6385 272.5,95.5 Z"/></g>
<g><path style="opacity:1" fill="#d38c78" d="M 78.5,67.5 C 81.5,67.5 84.5,67.5 87.5,67.5C 87.7219,72.9182 88.5552,78.2516 90,83.5C 92.7383,84.4817 95.5716,85.1484 98.5,85.5C 98.3336,94.5062 98.5002,103.506 99,112.5C 101.567,113.587 104.067,114.587 106.5,115.5C 103.315,115.98 100.481,115.314 98,113.5C 97.5006,107.843 97.3339,102.176 97.5,96.5C 94.1667,96.5 90.8333,96.5 87.5,96.5C 87.6662,90.1579 87.4995,83.8246 87,77.5C 84.2809,76.5562 81.4475,76.2229 78.5,76.5C 78.5,73.5 78.5,70.5 78.5,67.5 Z"/></g>
<g><path style="opacity:1" fill="#fce0c6" d="M 337.5,19.5 C 337.183,22.5719 337.516,25.5719 338.5,28.5C 341.421,29.4066 344.421,29.7399 347.5,29.5C 347.667,54.5022 347.5,79.5022 347,104.5C 345.644,105.38 344.144,105.714 342.5,105.5C 341.234,106.09 339.901,106.59 338.5,107C 339.65,116.089 339.817,125.255 339,134.5C 335.943,135.451 332.777,135.784 329.5,135.5C 329.336,138.187 329.503,140.854 330,143.5C 332.619,142.717 335.452,142.717 338.5,143.5C 339.628,150.116 339.795,156.782 339,163.5C 335.943,164.451 332.777,164.784 329.5,164.5C 329.664,167.187 329.497,169.854 329,172.5C 326.333,173.167 323.667,173.833 321,174.5C 320.601,174.272 320.435,173.938 320.5,173.5C 320.061,171.665 318.728,170.165 316.5,169C 318.788,167.041 320.121,164.541 320.5,161.5C 322.818,160.166 324.485,160.832 325.5,163.5C 326.958,161.862 327.292,160.195 326.5,158.5C 327.025,157.808 327.692,157.308 328.5,157C 328.017,152.598 328.017,148.098 328.5,143.5C 325.751,143.274 323.084,143.607 320.5,144.5C 319.749,143.624 319.249,142.624 319,141.5C 318.5,129.171 318.333,116.838 318.5,104.5C 321.109,104.06 323.776,103.726 326.5,103.5C 327.277,101.219 328.277,99.0521 329.5,97C 328.522,90.5898 328.189,84.0898 328.5,77.5C 330.807,77.0137 332.973,77.0137 335,77.5C 336,76.8333 337,76.1667 338,75.5C 338.667,63.8333 338.667,52.1667 338,40.5C 335.235,38.7991 332.235,37.4658 329,36.5C 328.833,34 328.667,31.5 328.5,29C 328.928,25.7934 328.928,22.7934 328.5,20C 331.482,19.502 334.482,19.3354 337.5,19.5 Z"/></g>
<g><path style="opacity:1" fill="#d6a189" d="M 270.5,96.5 C 270.5,109.167 270.5,121.833 270.5,134.5C 270.5,137.5 270.5,140.5 270.5,143.5C 267.5,143.5 264.5,143.5 261.5,143.5C 261.5,127.833 261.5,112.167 261.5,96.5C 264.607,95.9241 267.607,95.9241 270.5,96.5 Z"/></g>
<g><path style="opacity:1" fill="#fbbfa2" d="M 68.5,104.5 C 71.728,105.414 75.0613,105.747 78.5,105.5C 78.5,108.5 78.5,111.5 78.5,114.5C 82.7205,113.808 86.3872,114.808 89.5,117.5C 88.7264,126.184 88.393,134.851 88.5,143.5C 78.4815,143.41 68.4815,143.743 58.5,144.5C 58.5,147.5 58.5,150.5 58.5,153.5C 55.5,153.5 52.5,153.5 49.5,153.5C 49.5,150.5 49.5,147.5 49.5,144.5C 46.2234,144.784 43.0567,144.451 40,143.5C 39.5017,140.183 39.335,136.85 39.5,133.5C 36.8004,132.484 34.1337,132.484 31.5,133.5C 30.5159,130.572 30.1826,127.572 30.5,124.5C 22.4879,126.511 19.1546,123.511 20.5,115.5C 17.5,115.5 14.5,115.5 11.5,115.5C 11.5,124.833 11.5,134.167 11.5,143.5C 14.5184,143.665 17.5184,143.498 20.5,143C 21.646,142.355 22.646,141.522 23.5,140.5C 26.6196,146.114 27.2863,152.114 25.5,158.5C 23.6838,154.93 23.3505,150.93 24.5,146.5C 24.5472,145 23.8805,144 22.5,143.5C 21.3364,149.472 21.1697,155.472 22,161.5C 23.049,163.107 24.549,163.773 26.5,163.5C 24.6431,164.754 22.6431,164.754 20.5,163.5C 19.8124,157.948 19.1457,152.448 18.5,147C 18.9574,146.586 19.2907,146.086 19.5,145.5C 16.9659,144.223 14.4659,144.223 12,145.5C 10.9783,144.646 10.1449,143.646 9.5,142.5C 10.6362,134.215 10.8029,125.882 10,117.5C 9.72158,116.584 9.22158,115.918 8.5,115.5C 6.39263,114.532 4.0593,114.198 1.5,114.5C 1.33341,98.8298 1.50008,83.1631 2,67.5C 3.78493,68.2401 5.61826,68.9067 7.5,69.5C 8.32831,74.1315 8.82831,78.7982 9,83.5C 9.47093,85.2464 10.1376,86.913 11,88.5C 13.7372,87.3895 16.5706,87.2228 19.5,88C 18.9415,88.7247 18.6082,89.5581 18.5,90.5C 18.737,93.0635 19.237,93.0635 20,90.5C 20.3333,95.1667 20.6667,99.8333 21,104.5C 24.0567,105.451 27.2234,105.784 30.5,105.5C 30.5,108.833 30.5,112.167 30.5,115.5C 33.5,115.5 36.5,115.5 39.5,115.5C 39.5,118.5 39.5,121.5 39.5,124.5C 46.1667,124.5 52.8333,124.5 59.5,124.5C 59.5,127.5 59.5,130.5 59.5,133.5C 62.5,133.5 65.5,133.5 68.5,133.5C 68.5,123.833 68.5,114.167 68.5,104.5 Z"/></g>
<g><path style="opacity:0.008" fill="#fefffe" d="M 345.5,108.5 C 345.897,107.475 346.563,107.308 347.5,108C 346.906,108.464 346.239,108.631 345.5,108.5 Z"/></g>
<g><path style="opacity:1" fill="#faa998" d="M 58.5,20.5 C 58.8333,20.5 59.1667,20.5 59.5,20.5C 59.5,26.5 59.5,32.5 59.5,38.5C 62.5,38.5 65.5,38.5 68.5,38.5C 68.5,44.8333 68.5,51.1667 68.5,57.5C 71.8333,57.5 75.1667,57.5 78.5,57.5C 78.5,60.8333 78.5,64.1667 78.5,67.5C 78.5,70.5 78.5,73.5 78.5,76.5C 81.4475,76.2229 84.2809,76.5562 87,77.5C 87.4995,83.8246 87.6662,90.1579 87.5,96.5C 90.8333,96.5 94.1667,96.5 97.5,96.5C 97.3339,102.176 97.5006,107.843 98,113.5C 100.481,115.314 103.315,115.98 106.5,115.5C 107.477,118.287 107.81,121.287 107.5,124.5C 110.448,124.223 113.281,124.556 116,125.5C 116.498,128.482 116.665,131.482 116.5,134.5C 112.993,133.994 109.826,134.66 107,136.5C 106.959,145.563 107.459,154.563 108.5,163.5C 107.523,166.287 107.19,169.287 107.5,172.5C 106.795,169.772 106.128,166.939 105.5,164C 102.854,163.503 100.187,163.336 97.5,163.5C 97.5,157.167 97.5,150.833 97.5,144.5C 94.8589,143.737 92.1922,143.57 89.5,144C 87.8953,146.733 86.8953,149.733 86.5,153C 83.854,153.497 81.1873,153.664 78.5,153.5C 78.5,155.833 78.5,158.167 78.5,160.5C 77.0695,160.579 75.7362,160.246 74.5,159.5C 69.419,162.246 67.419,166.579 68.5,172.5C 76.2731,170.607 79.6065,173.607 78.5,181.5C 69.1667,181.5 59.8333,181.5 50.5,181.5C 50.7771,178.552 50.4438,175.719 49.5,173C 47.9238,172.56 46.5904,171.727 45.5,170.5C 38.7671,173.77 36.7671,171.77 39.5,164.5C 36.1667,164.5 32.8333,164.5 29.5,164.5C 28.609,163.89 27.609,163.557 26.5,163.5C 24.549,163.773 23.049,163.107 22,161.5C 21.1697,155.472 21.3364,149.472 22.5,143.5C 23.8805,144 24.5472,145 24.5,146.5C 23.3505,150.93 23.6838,154.93 25.5,158.5C 27.2863,152.114 26.6196,146.114 23.5,140.5C 22.646,141.522 21.646,142.355 20.5,143C 17.5184,143.498 14.5184,143.665 11.5,143.5C 11.5,134.167 11.5,124.833 11.5,115.5C 14.5,115.5 17.5,115.5 20.5,115.5C 19.1546,123.511 22.4879,126.511 30.5,124.5C 30.1826,127.572 30.5159,130.572 31.5,133.5C 34.1337,132.484 36.8004,132.484 39.5,133.5C 39.335,136.85 39.5017,140.183 40,143.5C 43.0567,144.451 46.2234,144.784 49.5,144.5C 49.5,147.5 49.5,150.5 49.5,153.5C 52.5,153.5 55.5,153.5 58.5,153.5C 58.5,150.5 58.5,147.5 58.5,144.5C 68.4815,143.743 78.4815,143.41 88.5,143.5C 88.393,134.851 88.7264,126.184 89.5,117.5C 86.3872,114.808 82.7205,113.808 78.5,114.5C 78.5,111.5 78.5,108.5 78.5,105.5C 75.0613,105.747 71.728,105.414 68.5,104.5C 68.5,101.833 68.5,99.1667 68.5,96.5C 68.5,86.8333 68.5,77.1667 68.5,67.5C 65.1667,67.5 61.8333,67.5 58.5,67.5C 58.5,51.8333 58.5,36.1667 58.5,20.5 Z"/></g>
<g><path style="opacity:1" fill="#d6a38b" d="M 78.5,39.5 C 81.7973,39.3287 82.1306,39.9954 79.5,41.5C 81.7427,42.4742 84.076,42.8076 86.5,42.5C 86.0833,45.0792 86.75,47.2458 88.5,49C 91.2836,48.0811 94.2836,47.5811 97.5,47.5C 98.4767,50.2869 98.81,53.2869 98.5,56.5C 97.5206,59.6248 97.1872,62.9581 97.5,66.5C 100.833,66.5 104.167,66.5 107.5,66.5C 107.5,73.1667 107.5,79.8333 107.5,86.5C 110.5,86.5 113.5,86.5 116.5,86.5C 116.5,89.8333 116.5,93.1667 116.5,96.5C 119.833,96.5 123.167,96.5 126.5,96.5C 126.5,99.5 126.5,102.5 126.5,105.5C 127.833,105.5 129.167,105.5 130.5,105.5C 130.5,104.5 130.5,103.5 130.5,102.5C 132.484,102.383 134.15,103.05 135.5,104.5C 136.5,124.155 136.833,143.822 136.5,163.5C 133.167,163.5 129.833,163.5 126.5,163.5C 120.5,163.5 114.5,163.5 108.5,163.5C 107.459,154.563 106.959,145.563 107,136.5C 109.826,134.66 112.993,133.994 116.5,134.5C 116.665,131.482 116.498,128.482 116,125.5C 113.281,124.556 110.448,124.223 107.5,124.5C 107.81,121.287 107.477,118.287 106.5,115.5C 104.067,114.587 101.567,113.587 99,112.5C 98.5002,103.506 98.3336,94.5062 98.5,85.5C 95.5716,85.1484 92.7383,84.4817 90,83.5C 88.5552,78.2516 87.7219,72.9182 87.5,67.5C 84.5,67.5 81.5,67.5 78.5,67.5C 78.5,64.1667 78.5,60.8333 78.5,57.5C 78.5,51.5 78.5,45.5 78.5,39.5 Z"/></g>
<g><path style="opacity:1" fill="#e7d1b6" d="M 98.5,56.5 C 101.518,56.3354 104.518,56.502 107.5,57C 107.792,59.7854 107.958,62.6188 108,65.5C 110.74,66.2822 113.574,66.7822 116.5,67C 117.423,69.0408 117.756,71.2075 117.5,73.5C 121.449,73.6932 121.449,74.1932 117.5,75C 120.667,75.2518 123.667,75.4185 126.5,75.5C 127.417,78.7577 127.751,82.091 127.5,85.5C 130.572,85.1826 133.572,85.5159 136.5,86.5C 136.509,92.4796 136.843,98.4796 137.5,104.5C 140.5,104.5 143.5,104.5 146.5,104.5C 147.541,107.542 147.541,110.542 146.5,113.5C 149.209,114.483 151.876,114.65 154.5,114C 155.574,114.739 156.241,115.739 156.5,117C 155.747,119.258 155.747,121.258 156.5,123C 169.34,123.169 182.007,123.669 194.5,124.5C 185.009,125.33 175.342,125.83 165.5,126C 165.44,133.023 165.607,140.19 166,147.5C 166.251,149.433 166.751,151.266 167.5,153C 164.036,154.759 160.37,155.926 156.5,156.5C 155.546,162.104 155.212,167.771 155.5,173.5C 152.788,173.737 150.288,173.737 148,173.5C 146.755,176.679 145.922,180.012 145.5,183.5C 143.358,183.69 141.025,183.856 138.5,184C 136.686,186.481 136.02,189.315 136.5,192.5C 133.167,192.5 129.833,192.5 126.5,192.5C 127.685,201.143 124.519,203.476 117,199.5C 116.444,197.115 116.61,194.782 117.5,192.5C 120.448,192.777 123.281,192.444 126,191.5C 126.5,182.173 126.666,172.839 126.5,163.5C 129.833,163.5 133.167,163.5 136.5,163.5C 136.833,143.822 136.5,124.155 135.5,104.5C 134.15,103.05 132.484,102.383 130.5,102.5C 130.5,103.5 130.5,104.5 130.5,105.5C 129.167,105.5 127.833,105.5 126.5,105.5C 126.5,102.5 126.5,99.5 126.5,96.5C 123.167,96.5 119.833,96.5 116.5,96.5C 116.5,93.1667 116.5,89.8333 116.5,86.5C 113.5,86.5 110.5,86.5 107.5,86.5C 107.5,79.8333 107.5,73.1667 107.5,66.5C 104.167,66.5 100.833,66.5 97.5,66.5C 97.1872,62.9581 97.5206,59.6248 98.5,56.5 Z"/></g>
<g><path style="opacity:0.055" fill="#6d9d6d" d="M 248.5,121.5 C 249.525,121.897 249.692,122.563 249,123.5C 248.536,122.906 248.369,122.239 248.5,121.5 Z"/></g>
<g><path style="opacity:1" fill="#fdd5b9" d="M 338.5,18.5 C 338.5,19.1667 338.167,19.5 337.5,19.5C 334.482,19.3354 331.482,19.502 328.5,20C 328.928,22.7934 328.928,25.7934 328.5,29C 328.667,31.5 328.833,34 329,36.5C 332.235,37.4658 335.235,38.7991 338,40.5C 338.667,52.1667 338.667,63.8333 338,75.5C 337,76.1667 336,76.8333 335,77.5C 332.973,77.0137 330.807,77.0137 328.5,77.5C 328.189,84.0898 328.522,90.5898 329.5,97C 328.277,99.0521 327.277,101.219 326.5,103.5C 323.776,103.726 321.109,104.06 318.5,104.5C 318.333,116.838 318.5,129.171 319,141.5C 319.249,142.624 319.749,143.624 320.5,144.5C 323.084,143.607 325.751,143.274 328.5,143.5C 328.017,148.098 328.017,152.598 328.5,157C 327.692,157.308 327.025,157.808 326.5,158.5C 327.292,160.195 326.958,161.862 325.5,163.5C 324.485,160.832 322.818,160.166 320.5,161.5C 320.121,164.541 318.788,167.041 316.5,169C 318.728,170.165 320.061,171.665 320.5,173.5C 319.441,179.707 319.275,186.04 320,192.5C 317.27,192.845 314.437,193.011 311.5,193C 310.565,195.381 310.232,197.881 310.5,200.5C 313.777,200.216 316.943,200.549 320,201.5C 319.639,207.44 319.473,213.44 319.5,219.5C 322.413,219.724 325.413,220.057 328.5,220.5C 329.499,230.478 329.832,240.478 329.5,250.5C 326.254,250.77 323.254,251.103 320.5,251.5C 319.708,257.449 319.208,263.449 319,269.5C 316.067,270.466 313.401,270.466 311,269.5C 309.489,270.564 309.323,271.897 310.5,273.5C 309.883,273.389 309.383,273.056 309,272.5C 308.506,274.134 308.34,275.801 308.5,277.5C 305.833,277.5 303.167,277.5 300.5,277.5C 300.5,274.833 300.5,272.167 300.5,269.5C 297.167,269.5 293.833,269.5 290.5,269.5C 290.5,275.5 290.5,281.5 290.5,287.5C 287.061,287.253 283.728,287.586 280.5,288.5C 280.5,287.833 280.5,287.167 280.5,286.5C 283.5,286.5 286.5,286.5 289.5,286.5C 289.5,280.833 289.5,275.167 289.5,269.5C 283.167,269.5 276.833,269.5 270.5,269.5C 264.167,269.5 257.833,269.5 251.5,269.5C 251.5,272.167 251.5,274.833 251.5,277.5C 254.833,277.5 258.167,277.5 261.5,277.5C 261.5,280.833 261.5,284.167 261.5,287.5C 260.523,284.713 260.19,281.713 260.5,278.5C 257.5,278.5 254.5,278.5 251.5,278.5C 251.5,281.5 251.5,284.5 251.5,287.5C 245.491,287.334 239.491,287.501 233.5,288C 232.556,290.719 232.223,293.552 232.5,296.5C 226.167,296.5 219.833,296.5 213.5,296.5C 213.777,293.552 213.444,290.719 212.5,288C 206.509,287.501 200.509,287.334 194.5,287.5C 194.784,284.223 194.451,281.057 193.5,278C 190.183,277.502 186.85,277.335 183.5,277.5C 183.301,280.941 183.801,284.274 185,287.5C 187.719,288.444 190.552,288.777 193.5,288.5C 193.212,294.229 193.546,299.896 194.5,305.5C 197.428,306.484 200.428,306.817 203.5,306.5C 203.5,312.833 203.5,319.167 203.5,325.5C 206.833,325.5 210.167,325.5 213.5,325.5C 213.5,329.167 213.5,332.833 213.5,336.5C 213.167,336.5 212.833,336.5 212.5,336.5C 209.713,335.523 206.713,335.19 203.5,335.5C 203.817,332.428 203.484,329.428 202.5,326.5C 196.561,325.543 190.561,325.21 184.5,325.5C 184.5,322.5 184.5,319.5 184.5,316.5C 181.14,316.616 177.807,316.949 174.5,317.5C 174.666,310.825 174.5,304.158 174,297.5C 171.364,297.455 168.53,297.288 165.5,297C 164.556,294.281 164.223,291.448 164.5,288.5C 158.167,288.5 151.833,288.5 145.5,288.5C 145.5,285.5 145.5,282.5 145.5,279.5C 142.421,279.74 139.421,279.407 136.5,278.5C 135.792,275.634 135.125,272.8 134.5,270C 131.854,269.503 129.187,269.336 126.5,269.5C 126.333,250.83 126.5,232.164 127,213.5C 129.481,211.686 132.315,211.02 135.5,211.5C 135.335,208.482 135.502,205.482 136,202.5C 139.057,201.549 142.223,201.216 145.5,201.5C 145.5,195.5 145.5,189.5 145.5,183.5C 145.922,180.012 146.755,176.679 148,173.5C 150.288,173.737 152.788,173.737 155.5,173.5C 155.212,167.771 155.546,162.104 156.5,156.5C 160.37,155.926 164.036,154.759 167.5,153C 166.751,151.266 166.251,149.433 166,147.5C 165.607,140.19 165.44,133.023 165.5,126C 175.342,125.83 185.009,125.33 194.5,124.5C 199.897,124.785 205.23,124.451 210.5,123.5C 211.167,123.833 211.833,124.167 212.5,124.5C 213.167,127.5 213.833,130.5 214.5,133.5C 222.653,133.426 230.986,133.426 239.5,133.5C 231.01,134.33 222.343,134.83 213.5,135C 212.549,138.057 212.216,141.223 212.5,144.5C 217.844,144.334 223.177,144.501 228.5,145C 229.416,145.374 230.25,145.874 231,146.5C 231.226,149.095 231.726,151.595 232.5,154C 236.001,155.561 239.501,155.728 243,154.5C 245.586,154.502 247.586,155.502 249,157.5C 250,154.833 251,154.833 252,157.5C 253.356,156.62 254.856,156.286 256.5,156.5C 257.044,158.58 257.878,160.58 259,162.5C 259.671,163.252 260.504,163.586 261.5,163.5C 264.5,163.5 267.5,163.5 270.5,163.5C 270.5,166.5 270.5,169.5 270.5,172.5C 276.829,172.9 283.162,173.233 289.5,173.5C 289.5,176.5 289.5,179.5 289.5,182.5C 296.167,182.5 302.833,182.5 309.5,182.5C 309.335,185.85 309.502,189.183 310,192.5C 312.719,191.556 315.552,191.223 318.5,191.5C 318.5,188.5 318.5,185.5 318.5,182.5C 315.552,182.777 312.719,182.444 310,181.5C 309.502,178.183 309.335,174.85 309.5,171.5C 309.5,168.5 309.5,165.5 309.5,162.5C 306.5,162.5 303.5,162.5 300.5,162.5C 299.817,153.182 299.483,143.849 299.5,134.5C 296.713,133.523 293.713,133.19 290.5,133.5C 290.5,124.167 290.5,114.833 290.5,105.5C 293.5,105.5 296.5,105.5 299.5,105.5C 299.5,95.8333 299.5,86.1667 299.5,76.5C 302.5,76.5 305.5,76.5 308.5,76.5C 308.5,67.1667 308.5,57.8333 308.5,48.5C 312.167,48.5 315.833,48.5 319.5,48.5C 319.5,38.8333 319.5,29.1667 319.5,19.5C 325.645,18.5098 331.978,18.1765 338.5,18.5 Z"/></g>
<g><path style="opacity:0.063" fill="#bedfbe" d="M 330.5,138.5 C 331.833,139.167 331.833,139.167 330.5,138.5 Z"/></g>
<g><path style="opacity:1" fill="#fac1a3" d="M 241.5,132.5 C 242.482,135.962 242.815,139.629 242.5,143.5C 245.5,143.5 248.5,143.5 251.5,143.5C 251.5,146.833 251.5,150.167 251.5,153.5C 254.833,153.5 258.167,153.5 261.5,153.5C 261.5,156.833 261.5,160.167 261.5,163.5C 260.504,163.586 259.671,163.252 259,162.5C 257.878,160.58 257.044,158.58 256.5,156.5C 254.856,156.286 253.356,156.62 252,157.5C 251,154.833 250,154.833 249,157.5C 247.586,155.502 245.586,154.502 243,154.5C 239.501,155.728 236.001,155.561 232.5,154C 231.726,151.595 231.226,149.095 231,146.5C 230.25,145.874 229.416,145.374 228.5,145C 223.177,144.501 217.844,144.334 212.5,144.5C 212.216,141.223 212.549,138.057 213.5,135C 222.343,134.83 231.01,134.33 239.5,133.5C 240.492,133.672 241.158,133.338 241.5,132.5 Z"/></g>
<g><path style="opacity:1" fill="#fc9a94" d="M 270.5,134.5 C 273.833,134.5 277.167,134.5 280.5,134.5C 280.5,137.833 280.5,141.167 280.5,144.5C 283.713,144.81 286.713,144.477 289.5,143.5C 290.473,141.052 290.806,138.385 290.5,135.5C 293.167,135.5 295.833,135.5 298.5,135.5C 298.5,138.5 298.5,141.5 298.5,144.5C 296.143,144.337 293.81,144.503 291.5,145C 290.139,147.584 290.805,149.584 293.5,151C 293.167,151.333 292.833,151.667 292.5,152C 293.793,152.49 295.127,152.657 296.5,152.5C 296.351,151.448 296.517,150.448 297,149.5C 298.734,154.379 299.9,159.379 300.5,164.5C 302.423,165.308 304.423,165.808 306.5,166C 307.554,167.388 307.72,168.888 307,170.5C 301.593,171.473 296.093,171.807 290.5,171.5C 289.527,169.052 289.194,166.385 289.5,163.5C 286.5,163.5 283.5,163.5 280.5,163.5C 280.5,160.167 280.5,156.833 280.5,153.5C 277.167,153.5 273.833,153.5 270.5,153.5C 270.5,150.167 270.5,146.833 270.5,143.5C 270.5,140.5 270.5,137.5 270.5,134.5 Z"/></g>
<g><path style="opacity:1" fill="#e57774" d="M 270.5,153.5 C 273.833,153.5 277.167,153.5 280.5,153.5C 280.5,156.833 280.5,160.167 280.5,163.5C 283.5,163.5 286.5,163.5 289.5,163.5C 289.194,166.385 289.527,169.052 290.5,171.5C 287.375,172.479 284.042,172.813 280.5,172.5C 280.777,169.552 280.444,166.719 279.5,164C 276.518,163.502 273.518,163.335 270.5,163.5C 270.5,160.167 270.5,156.833 270.5,153.5 Z"/></g>
<g><path style="opacity:1" fill="#fb9b93" d="M 107.5,172.5 C 110.49,172.959 113.323,173.959 116,175.5C 116.499,181.157 116.666,186.824 116.5,192.5C 113.5,192.5 110.5,192.5 107.5,192.5C 107.81,195.713 107.477,198.713 106.5,201.5C 106.5,198.5 106.5,195.5 106.5,192.5C 103.5,192.5 100.5,192.5 97.5,192.5C 97.5,189.167 97.5,185.833 97.5,182.5C 94.1667,182.5 90.8333,182.5 87.5,182.5C 87.5,185.833 87.5,189.167 87.5,192.5C 84.5,192.5 81.5,192.5 78.5,192.5C 78.5,188.833 78.5,185.167 78.5,181.5C 79.6065,173.607 76.2731,170.607 68.5,172.5C 67.419,166.579 69.419,162.246 74.5,159.5C 75.7362,160.246 77.0695,160.579 78.5,160.5C 78.5,158.167 78.5,155.833 78.5,153.5C 81.1873,153.664 83.854,153.497 86.5,153C 86.8953,149.733 87.8953,146.733 89.5,144C 92.1922,143.57 94.8589,143.737 97.5,144.5C 97.5,150.833 97.5,157.167 97.5,163.5C 100.187,163.336 102.854,163.503 105.5,164C 106.128,166.939 106.795,169.772 107.5,172.5 Z"/></g>
<g><path style="opacity:1" fill="#eba292" d="M 299.5,134.5 C 299.483,143.849 299.817,153.182 300.5,162.5C 303.5,162.5 306.5,162.5 309.5,162.5C 309.5,165.5 309.5,168.5 309.5,171.5C 308.735,172.66 307.735,173.66 306.5,174.5C 300.896,173.546 295.229,173.212 289.5,173.5C 283.162,173.233 276.829,172.9 270.5,172.5C 270.5,169.5 270.5,166.5 270.5,163.5C 273.518,163.335 276.518,163.502 279.5,164C 280.444,166.719 280.777,169.552 280.5,172.5C 284.042,172.813 287.375,172.479 290.5,171.5C 296.093,171.807 301.593,171.473 307,170.5C 307.72,168.888 307.554,167.388 306.5,166C 304.423,165.808 302.423,165.308 300.5,164.5C 299.9,159.379 298.734,154.379 297,149.5C 296.517,150.448 296.351,151.448 296.5,152.5C 295.127,152.657 293.793,152.49 292.5,152C 292.833,151.667 293.167,151.333 293.5,151C 290.805,149.584 290.139,147.584 291.5,145C 293.81,144.503 296.143,144.337 298.5,144.5C 298.5,141.5 298.5,138.5 298.5,135.5C 295.833,135.5 293.167,135.5 290.5,135.5C 290.806,138.385 290.473,141.052 289.5,143.5C 289.5,140.5 289.5,137.5 289.5,134.5C 292.833,134.5 296.167,134.5 299.5,134.5 Z"/></g>
<g><path style="opacity:0.106" fill="#9db78f" d="M 38.5,185.5 C 38.8966,184.475 39.5632,184.308 40.5,185C 39.9056,185.464 39.2389,185.631 38.5,185.5 Z"/></g>
<g><path style="opacity:1" fill="#d6a28b" d="M 309.5,171.5 C 309.335,174.85 309.502,178.183 310,181.5C 312.719,182.444 315.552,182.777 318.5,182.5C 318.5,185.5 318.5,188.5 318.5,191.5C 315.552,191.223 312.719,191.556 310,192.5C 309.502,189.183 309.335,185.85 309.5,182.5C 302.833,182.5 296.167,182.5 289.5,182.5C 289.5,179.5 289.5,176.5 289.5,173.5C 295.229,173.212 300.896,173.546 306.5,174.5C 307.735,173.66 308.735,172.66 309.5,171.5 Z"/></g>
<g><path style="opacity:1" fill="#fac1b1" d="M 108.5,163.5 C 114.5,163.5 120.5,163.5 126.5,163.5C 126.666,172.839 126.5,182.173 126,191.5C 123.281,192.444 120.448,192.777 117.5,192.5C 117.167,192.5 116.833,192.5 116.5,192.5C 116.666,186.824 116.499,181.157 116,175.5C 113.323,173.959 110.49,172.959 107.5,172.5C 107.19,169.287 107.523,166.287 108.5,163.5 Z"/></g>
<g><path style="opacity:1" fill="#fcc0a1" d="M 145.5,183.5 C 145.5,189.5 145.5,195.5 145.5,201.5C 142.223,201.216 139.057,201.549 136,202.5C 135.502,205.482 135.335,208.482 135.5,211.5C 132.315,211.02 129.481,211.686 127,213.5C 126.5,232.164 126.333,250.83 126.5,269.5C 129.187,269.336 131.854,269.503 134.5,270C 135.125,272.8 135.792,275.634 136.5,278.5C 139.421,279.407 142.421,279.74 145.5,279.5C 145.5,282.5 145.5,285.5 145.5,288.5C 151.833,288.5 158.167,288.5 164.5,288.5C 164.223,291.448 164.556,294.281 165.5,297C 168.53,297.288 171.364,297.455 174,297.5C 174.5,304.158 174.666,310.825 174.5,317.5C 177.807,316.949 181.14,316.616 184.5,316.5C 184.5,319.5 184.5,322.5 184.5,325.5C 190.561,325.21 196.561,325.543 202.5,326.5C 203.484,329.428 203.817,332.428 203.5,335.5C 190.491,335.54 177.491,335.874 164.5,336.5C 164.26,333.421 164.593,330.421 165.5,327.5C 159.528,326.67 153.528,326.17 147.5,326C 146.556,323.281 146.223,320.448 146.5,317.5C 139.833,317.5 133.167,317.5 126.5,317.5C 126.5,314.167 126.5,310.833 126.5,307.5C 123.813,307.664 121.146,307.497 118.5,307C 117.313,304.226 115.98,301.559 114.5,299C 112.167,298.667 109.833,298.333 107.5,298C 106.549,294.943 106.216,291.777 106.5,288.5C 103.388,289.078 100.388,289.078 97.5,288.5C 97.5037,283.334 97.0037,278.001 96,272.5C 94.8674,268.812 92.7007,267.812 89.5,269.5C 89.6641,266.813 89.4974,264.146 89,261.5C 88.3292,260.748 87.4959,260.414 86.5,260.5C 85.8114,257.647 83.978,255.981 81,255.5C 80.4926,254.004 80.9926,252.837 82.5,252C 80.7091,251.585 79.3757,250.585 78.5,249C 75.1832,248.502 71.8499,248.335 68.5,248.5C 68.1771,242.31 68.5104,236.31 69.5,230.5C 72.5,230.5 75.5,230.5 78.5,230.5C 78.5,227.5 78.5,224.5 78.5,221.5C 84.8333,221.5 91.1667,221.5 97.5,221.5C 97.5,218.167 97.5,214.833 97.5,211.5C 91.155,211.347 84.8217,211.014 78.5,210.5C 78.5,207.833 78.5,205.167 78.5,202.5C 88.015,202.827 97.3483,202.494 106.5,201.5C 107.477,198.713 107.81,195.713 107.5,192.5C 110.5,192.5 113.5,192.5 116.5,192.5C 116.833,192.5 117.167,192.5 117.5,192.5C 116.61,194.782 116.444,197.115 117,199.5C 124.519,203.476 127.685,201.143 126.5,192.5C 129.833,192.5 133.167,192.5 136.5,192.5C 136.02,189.315 136.686,186.481 138.5,184C 141.025,183.856 143.358,183.69 145.5,183.5 Z"/></g>
<g><path style="opacity:0.031" fill="#7fbf7f" d="M 54.5,194.5 C 55.8333,195.167 55.8333,195.167 54.5,194.5 Z"/></g>
<g><path style="opacity:1" fill="#e77674" d="M 106.5,201.5 C 97.1667,201.5 87.8333,201.5 78.5,201.5C 78.5,198.5 78.5,195.5 78.5,192.5C 81.5,192.5 84.5,192.5 87.5,192.5C 87.5,189.167 87.5,185.833 87.5,182.5C 90.8333,182.5 94.1667,182.5 97.5,182.5C 97.5,185.833 97.5,189.167 97.5,192.5C 100.5,192.5 103.5,192.5 106.5,192.5C 106.5,195.5 106.5,198.5 106.5,201.5 Z"/></g>
<g><path style="opacity:1" fill="#feedd9" d="M 271.5,221.5 C 270.347,227.319 270.181,233.319 271,239.5C 274.057,240.451 277.223,240.784 280.5,240.5C 280.5,246.833 280.5,253.167 280.5,259.5C 283.713,259.19 286.713,259.523 289.5,260.5C 289.813,263.247 289.48,265.914 288.5,268.5C 276.346,268.452 264.013,268.452 251.5,268.5C 251.5,262.167 251.5,255.833 251.5,249.5C 248.5,249.5 245.5,249.5 242.5,249.5C 242.5,243.167 242.5,236.833 242.5,230.5C 239.167,230.5 235.833,230.5 232.5,230.5C 232.5,227.167 232.5,223.833 232.5,220.5C 229.167,220.5 225.833,220.5 222.5,220.5C 222.5,217.5 222.5,214.5 222.5,211.5C 225.833,211.5 229.167,211.5 232.5,211.5C 232.5,207.833 232.5,204.167 232.5,200.5C 241.839,200.334 251.173,200.5 260.5,201C 261.456,204.394 261.789,207.894 261.5,211.5C 267.509,211.334 273.509,211.501 279.5,212C 281.282,214.243 281.782,216.743 281,219.5C 277.73,220.132 274.563,220.799 271.5,221.5 Z"/></g>
<g><path style="opacity:1" fill="#d7a28a" d="M 29.5,164.5 C 32.8333,164.5 36.1667,164.5 39.5,164.5C 36.7671,171.77 38.7671,173.77 45.5,170.5C 46.5904,171.727 47.9238,172.56 49.5,173C 50.4438,175.719 50.7771,178.552 50.5,181.5C 59.8333,181.5 69.1667,181.5 78.5,181.5C 78.5,185.167 78.5,188.833 78.5,192.5C 78.5,195.5 78.5,198.5 78.5,201.5C 87.8333,201.5 97.1667,201.5 106.5,201.5C 97.3483,202.494 88.015,202.827 78.5,202.5C 78.5,205.167 78.5,207.833 78.5,210.5C 84.8217,211.014 91.155,211.347 97.5,211.5C 97.5,214.833 97.5,218.167 97.5,221.5C 91.1667,221.5 84.8333,221.5 78.5,221.5C 78.5,224.5 78.5,227.5 78.5,230.5C 75.5,230.5 72.5,230.5 69.5,230.5C 70.12,224.074 69.4533,218.074 67.5,212.5C 64.5525,212.777 61.7191,212.444 59,211.5C 58.6667,206.167 58.3333,200.833 58,195.5C 57.3716,192.046 56.2049,191.713 54.5,194.5C 49.028,194.179 47.028,191.513 48.5,186.5C 44.6893,186.404 44.6893,185.738 48.5,184.5C 45.0245,183.92 41.6912,183.087 38.5,182C 39.8333,179.333 39.8333,176.667 38.5,174C 35.2423,173.788 32.0757,173.288 29,172.5C 29.2554,169.918 29.422,167.252 29.5,164.5 Z"/></g>
<g><path style="opacity:1" fill="#fcc1a1" d="M 222.5,222.5 C 225.167,222.5 227.833,222.5 230.5,222.5C 230.25,225.214 230.083,227.881 230,230.5C 233.383,231.752 236.716,233.086 240,234.5C 240.333,239.5 240.667,244.5 241,249.5C 243.196,252.125 246.03,253.125 249.5,252.5C 249.827,257.544 249.494,262.544 248.5,267.5C 246.929,268.309 245.262,268.643 243.5,268.5C 243.5,265.5 243.5,262.5 243.5,259.5C 236.825,259.334 230.158,259.5 223.5,260C 222.549,263.057 222.216,266.223 222.5,269.5C 206.5,269.5 190.5,269.5 174.5,269.5C 174.5,266.167 174.5,262.833 174.5,259.5C 171.167,259.5 167.833,259.5 164.5,259.5C 164.5,256.167 164.5,252.833 164.5,249.5C 167.579,249.74 170.579,249.407 173.5,248.5C 174.2,252.041 174.867,255.541 175.5,259C 184.827,259.5 194.161,259.666 203.5,259.5C 203.223,256.552 203.556,253.719 204.5,251C 210.491,250.501 216.491,250.334 222.5,250.5C 222.5,241.167 222.5,231.833 222.5,222.5 Z"/></g>
<g><path style="opacity:1" fill="#fbc5a7" d="M 271.5,221.5 C 274.833,221.5 278.167,221.5 281.5,221.5C 282.445,226.819 282.611,232.152 282,237.5C 284.456,239.321 287.289,239.988 290.5,239.5C 290.216,242.777 290.549,245.943 291.5,249C 297.157,249.499 302.824,249.666 308.5,249.5C 308.5,246.5 308.5,243.5 308.5,240.5C 311.833,240.5 315.167,240.5 318.5,240.5C 318.335,237.482 318.502,234.482 319,231.5C 322.057,230.549 325.223,230.216 328.5,230.5C 328.665,233.85 328.498,237.183 328,240.5C 324.798,242.537 324.298,244.87 326.5,247.5C 321.266,249.143 315.933,250.143 310.5,250.5C 311.979,259.023 308.646,262.356 300.5,260.5C 300.768,263.119 300.435,265.619 299.5,268C 296.518,268.498 293.518,268.665 290.5,268.5C 290.806,265.615 290.473,262.948 289.5,260.5C 286.713,259.523 283.713,259.19 280.5,259.5C 280.5,253.167 280.5,246.833 280.5,240.5C 277.223,240.784 274.057,240.451 271,239.5C 270.181,233.319 270.347,227.319 271.5,221.5 Z"/></g>
<g><path style="opacity:1" fill="#e2c1a0" d="M 67.5,212.5 C 69.4533,218.074 70.12,224.074 69.5,230.5C 68.5104,236.31 68.1771,242.31 68.5,248.5C 71.8499,248.335 75.1832,248.502 78.5,249C 79.3757,250.585 80.7091,251.585 82.5,252C 80.9926,252.837 80.4926,254.004 81,255.5C 83.978,255.981 85.8114,257.647 86.5,260.5C 83.4816,260.665 80.4816,260.498 77.5,260C 77.2964,257.379 77.2964,254.545 77.5,251.5C 74.1933,250.949 70.8599,250.616 67.5,250.5C 67.5,237.833 67.5,225.167 67.5,212.5 Z"/></g>
<g><path style="opacity:1" fill="#fcefdb" d="M 310.5,273.5 C 310.5,277.833 310.5,282.167 310.5,286.5C 313.572,286.183 316.572,286.516 319.5,287.5C 320.022,288.607 320.355,289.774 320.5,291C 319.468,299.027 319.302,307.194 320,315.5C 319.626,316.416 319.126,317.25 318.5,318C 315.495,318.326 312.829,318.159 310.5,317.5C 307.946,316.612 305.279,316.279 302.5,316.5C 298.5,316.5 294.5,316.5 290.5,316.5C 290.5,313.167 290.5,309.833 290.5,306.5C 287.482,306.665 284.482,306.498 281.5,306C 280.549,302.943 280.216,299.777 280.5,296.5C 280.5,293.833 280.5,291.167 280.5,288.5C 283.728,287.586 287.061,287.253 290.5,287.5C 290.5,281.5 290.5,275.5 290.5,269.5C 293.833,269.5 297.167,269.5 300.5,269.5C 300.5,272.167 300.5,274.833 300.5,277.5C 303.167,277.5 305.833,277.5 308.5,277.5C 308.34,275.801 308.506,274.134 309,272.5C 309.383,273.056 309.883,273.389 310.5,273.5 Z"/></g>
<g><path style="opacity:1" fill="#f0c8a8" d="M 86.5,260.5 C 87.4959,260.414 88.3292,260.748 89,261.5C 89.4974,264.146 89.6641,266.813 89.5,269.5C 92.7007,267.812 94.8674,268.812 96,272.5C 97.0037,278.001 97.5037,283.334 97.5,288.5C 97.5,295.5 97.5,302.5 97.5,309.5C 97.8261,318.017 97.4927,326.35 96.5,334.5C 96.4709,319.806 96.4709,304.806 96.5,289.5C 93.4816,289.665 90.4816,289.498 87.5,289C 87.0426,288.586 86.7093,288.086 86.5,287.5C 87.6911,278.661 87.6911,269.661 86.5,260.5 Z"/></g>
<g><path style="opacity:1" fill="#f8908e" d="M 270.5,269.5 C 270.5,272.167 270.5,274.833 270.5,277.5C 273.518,277.335 276.518,277.502 279.5,278C 280.444,280.719 280.777,283.552 280.5,286.5C 280.5,287.167 280.5,287.833 280.5,288.5C 280.5,291.167 280.5,293.833 280.5,296.5C 277.167,296.5 273.833,296.5 270.5,296.5C 270.5,293.5 270.5,290.5 270.5,287.5C 267.5,287.5 264.5,287.5 261.5,287.5C 261.5,284.167 261.5,280.833 261.5,277.5C 258.167,277.5 254.833,277.5 251.5,277.5C 251.5,274.833 251.5,272.167 251.5,269.5C 257.833,269.5 264.167,269.5 270.5,269.5 Z"/></g>
<g><path style="opacity:1" fill="#fabeaa" d="M 270.5,269.5 C 276.833,269.5 283.167,269.5 289.5,269.5C 289.5,275.167 289.5,280.833 289.5,286.5C 286.5,286.5 283.5,286.5 280.5,286.5C 280.777,283.552 280.444,280.719 279.5,278C 276.518,277.502 273.518,277.335 270.5,277.5C 270.5,274.833 270.5,272.167 270.5,269.5 Z"/></g>
<g><path style="opacity:0.008" fill="#fefffe" d="M 84.5,286.5 C 85.525,286.897 85.6917,287.563 85,288.5C 84.5357,287.906 84.369,287.239 84.5,286.5 Z"/></g>
<g><path style="opacity:1" fill="#fdefda" d="M 261.5,287.5 C 264.5,287.5 267.5,287.5 270.5,287.5C 270.5,290.5 270.5,293.5 270.5,296.5C 270.5,299.833 270.5,303.167 270.5,306.5C 267.167,306.5 263.833,306.5 260.5,306.5C 260.5,309.833 260.5,313.167 260.5,316.5C 257.5,316.5 254.5,316.5 251.5,316.5C 250.523,319.287 250.19,322.287 250.5,325.5C 241.167,325.5 231.833,325.5 222.5,325.5C 222.5,328.833 222.5,332.167 222.5,335.5C 235.833,335.5 249.167,335.5 262.5,335.5C 262.264,332.774 263.097,330.441 265,328.5C 272.346,328.208 279.846,328.541 287.5,329.5C 288.524,328.147 289.857,327.48 291.5,327.5C 291.666,333.509 291.499,339.509 291,345.5C 290.5,346 290,346.5 289.5,347C 283.509,347.499 277.509,347.666 271.5,347.5C 272.082,351.315 271.248,354.649 269,357.5C 257.247,356.512 245.414,356.179 233.5,356.5C 233.5,358.5 233.5,360.5 233.5,362.5C 232.511,357.025 232.178,351.358 232.5,345.5C 226.491,345.666 220.491,345.499 214.5,345C 213.556,342.281 213.223,339.448 213.5,336.5C 213.5,332.833 213.5,329.167 213.5,325.5C 210.167,325.5 206.833,325.5 203.5,325.5C 203.5,319.167 203.5,312.833 203.5,306.5C 200.428,306.817 197.428,306.484 194.5,305.5C 193.546,299.896 193.212,294.229 193.5,288.5C 190.552,288.777 187.719,288.444 185,287.5C 183.801,284.274 183.301,280.941 183.5,277.5C 186.85,277.335 190.183,277.502 193.5,278C 194.451,281.057 194.784,284.223 194.5,287.5C 200.509,287.334 206.509,287.501 212.5,288C 213.444,290.719 213.777,293.552 213.5,296.5C 219.833,296.5 226.167,296.5 232.5,296.5C 232.223,293.552 232.556,290.719 233.5,288C 239.491,287.501 245.491,287.334 251.5,287.5C 251.5,284.5 251.5,281.5 251.5,278.5C 254.5,278.5 257.5,278.5 260.5,278.5C 260.19,281.713 260.523,284.713 261.5,287.5 Z"/></g>
<g><path style="opacity:1" fill="#fbaa98" d="M 97.5,288.5 C 100.388,289.078 103.388,289.078 106.5,288.5C 106.216,291.777 106.549,294.943 107.5,298C 109.833,298.333 112.167,298.667 114.5,299C 115.98,301.559 117.313,304.226 118.5,307C 121.146,307.497 123.813,307.664 126.5,307.5C 126.5,310.833 126.5,314.167 126.5,317.5C 133.167,317.5 139.833,317.5 146.5,317.5C 146.223,320.448 146.556,323.281 147.5,326C 153.528,326.17 159.528,326.67 165.5,327.5C 164.593,330.421 164.26,333.421 164.5,336.5C 177.491,335.874 190.491,335.54 203.5,335.5C 206.713,335.19 209.713,335.523 212.5,336.5C 212.664,339.187 212.497,341.854 212,344.5C 209.876,345.227 207.709,345.894 205.5,346.5C 205.167,347.167 204.833,347.833 204.5,348.5C 203.592,354.125 203.258,359.792 203.5,365.5C 200.5,365.5 197.5,365.5 194.5,365.5C 194.5,387.833 194.5,410.167 194.5,432.5C 197.5,432.5 200.5,432.5 203.5,432.5C 203.5,439.167 203.5,445.833 203.5,452.5C 200.167,452.5 196.833,452.5 193.5,452.5C 193.665,449.482 193.498,446.482 193,443.5C 190.313,442.287 187.48,441.62 184.5,441.5C 184.5,438.5 184.5,435.5 184.5,432.5C 181.167,432.5 177.833,432.5 174.5,432.5C 174.5,429.5 174.5,426.5 174.5,423.5C 171.167,423.5 167.833,423.5 164.5,423.5C 164.5,420.167 164.5,416.833 164.5,413.5C 161.5,413.5 158.5,413.5 155.5,413.5C 155.5,410.167 155.5,406.833 155.5,403.5C 152.167,403.5 148.833,403.5 145.5,403.5C 145.5,394.167 145.5,384.833 145.5,375.5C 142.167,375.5 138.833,375.5 135.5,375.5C 135.5,365.833 135.5,356.167 135.5,346.5C 132.5,346.5 129.5,346.5 126.5,346.5C 126.5,340.167 126.5,333.833 126.5,327.5C 123.167,327.5 119.833,327.5 116.5,327.5C 116.665,324.15 116.498,320.817 116,317.5C 113.527,316.88 111.027,316.214 108.5,315.5C 107.607,312.916 107.274,310.249 107.5,307.5C 105.08,307.708 102.747,307.374 100.5,306.5C 99.7124,307.77 98.7124,308.77 97.5,309.5C 97.5,302.5 97.5,295.5 97.5,288.5 Z"/></g>
<g><path style="opacity:1" fill="#f8c1a9" d="M 270.5,296.5 C 273.833,296.5 277.167,296.5 280.5,296.5C 280.216,299.777 280.549,302.943 281.5,306C 284.482,306.498 287.482,306.665 290.5,306.5C 290.5,309.833 290.5,313.167 290.5,316.5C 294.5,316.5 298.5,316.5 302.5,316.5C 303.713,318.676 305.38,319.009 307.5,317.5C 308.833,319.5 308.833,321.5 307.5,323.5C 306.232,322.572 304.899,322.405 303.5,323C 303.957,323.414 304.291,323.914 304.5,324.5C 299.544,325.494 294.544,325.827 289.5,325.5C 289.5,322.5 289.5,319.5 289.5,316.5C 286.5,316.5 283.5,316.5 280.5,316.5C 280.5,313.5 280.5,310.5 280.5,307.5C 277.167,307.167 273.833,306.833 270.5,306.5C 270.5,303.167 270.5,299.833 270.5,296.5 Z"/></g>
<g><path style="opacity:1" fill="#f9ddc1" d="M 270.5,306.5 C 273.833,306.833 277.167,307.167 280.5,307.5C 280.5,310.5 280.5,313.5 280.5,316.5C 283.5,316.5 286.5,316.5 289.5,316.5C 289.5,319.5 289.5,322.5 289.5,325.5C 294.544,325.827 299.544,325.494 304.5,324.5C 304.291,323.914 303.957,323.414 303.5,323C 304.899,322.405 306.232,322.572 307.5,323.5C 308.833,321.5 308.833,319.5 307.5,317.5C 305.38,319.009 303.713,318.676 302.5,316.5C 305.279,316.279 307.946,316.612 310.5,317.5C 310.223,320.448 310.556,323.281 311.5,326C 310.667,326.833 309.833,327.667 309,328.5C 303.259,327.525 297.425,327.192 291.5,327.5C 289.857,327.48 288.524,328.147 287.5,329.5C 279.846,328.541 272.346,328.208 265,328.5C 263.097,330.441 262.264,332.774 262.5,335.5C 249.167,335.5 235.833,335.5 222.5,335.5C 222.5,332.167 222.5,328.833 222.5,325.5C 231.833,325.5 241.167,325.5 250.5,325.5C 250.19,322.287 250.523,319.287 251.5,316.5C 249.833,324.833 253.167,328.167 261.5,326.5C 261.5,323.167 261.5,319.833 261.5,316.5C 264.5,316.5 267.5,316.5 270.5,316.5C 270.5,313.167 270.5,309.833 270.5,306.5 Z"/></g>
<g><path style="opacity:1" fill="#f8c2ab" d="M 270.5,306.5 C 270.5,309.833 270.5,313.167 270.5,316.5C 267.5,316.5 264.5,316.5 261.5,316.5C 261.5,319.833 261.5,323.167 261.5,326.5C 253.167,328.167 249.833,324.833 251.5,316.5C 254.5,316.5 257.5,316.5 260.5,316.5C 260.5,313.167 260.5,309.833 260.5,306.5C 263.833,306.5 267.167,306.5 270.5,306.5 Z"/></g>
<g><path style="opacity:0.008" fill="#fefffe" d="M 87.5,333.5 C 88.8333,334.167 88.8333,334.167 87.5,333.5 Z"/></g>
<g><path style="opacity:1" fill="#e3c19f" d="M 96.5,335.5 C 95.8166,337.176 94.4832,337.843 92.5,337.5C 92.9383,340.893 92.1049,343.893 90,346.5C 89.5005,352.825 89.3338,359.158 89.5,365.5C 89.019,368.782 88.019,371.949 86.5,375C 83.854,375.497 81.1873,375.664 78.5,375.5C 79.0545,379.012 78.3878,382.012 76.5,384.5C 77.258,381.346 77.258,378.346 76.5,375.5C 79.4465,374.679 82.4465,374.179 85.5,374C 86,373.5 86.5,373 87,372.5C 87.4512,361.462 87.6179,350.629 87.5,340C 85.0426,338.488 85.0426,337.154 87.5,336C 90.4816,335.502 93.4816,335.335 96.5,335.5 Z"/></g>
<g><path style="opacity:1" fill="#fdd5b9" d="M 242.5,385.5 C 248.833,385.5 255.167,385.5 261.5,385.5C 261.216,388.777 261.549,391.943 262.5,395C 268.157,395.499 273.824,395.666 279.5,395.5C 280.152,401.396 277.485,403.73 271.5,402.5C 270.809,409.118 270.809,415.618 271.5,422C 268.51,422.897 265.51,423.731 262.5,424.5C 261.472,427.239 260.805,429.739 260.5,432C 257.574,432.218 254.74,432.718 252,433.5C 252.095,436.328 251.928,439.328 251.5,442.5C 244.591,441.059 237.925,440.392 231.5,440.5C 232.017,442.019 231.35,443.352 229.5,444.5C 230.326,445.451 230.492,446.451 230,447.5C 227.754,449.593 225.254,451.26 222.5,452.5C 222.5,442.833 222.5,433.167 222.5,423.5C 226.167,423.5 229.833,423.5 233.5,423.5C 233.5,417.167 233.5,410.833 233.5,404.5C 236.448,404.777 239.281,404.444 242,403.5C 242.499,397.509 242.666,391.509 242.5,385.5 Z"/></g>
<g><path style="opacity:1" fill="#f9aa98" d="M 89.5,365.5 C 92.1667,365.5 94.8333,365.5 97.5,365.5C 97.5,368.5 97.5,371.5 97.5,374.5C 101.375,374.085 105.042,374.585 108.5,376C 107.361,381.416 107.194,386.916 108,392.5C 110.738,393.482 113.572,394.148 116.5,394.5C 116.508,397.545 116.841,400.545 117.5,403.5C 120.5,403.5 123.5,403.5 126.5,403.5C 126.5,406.833 126.5,410.167 126.5,413.5C 132.833,413.5 139.167,413.5 145.5,413.5C 145.5,416.833 145.5,420.167 145.5,423.5C 153.476,421.633 156.81,424.633 155.5,432.5C 158.5,432.5 161.5,432.5 164.5,432.5C 164.5,435.833 164.5,439.167 164.5,442.5C 158.5,442.5 152.5,442.5 146.5,442.5C 146.5,439.167 146.5,435.833 146.5,432.5C 143.167,432.5 139.833,432.5 136.5,432.5C 137.802,429.39 137.469,426.39 135.5,423.5C 129.202,422.504 122.868,422.17 116.5,422.5C 116.5,419.5 116.5,416.5 116.5,413.5C 113.167,413.5 109.833,413.5 106.5,413.5C 106.5,410.5 106.5,407.5 106.5,404.5C 100.167,404.5 93.8333,404.5 87.5,404.5C 87.6641,407.187 87.4974,409.854 87,412.5C 84.2809,413.444 81.4475,413.777 78.5,413.5C 78.6641,416.187 78.4974,418.854 78,421.5C 75,422.167 72,422.833 69,423.5C 68.6667,426.5 68.3333,429.5 68,432.5C 65.595,433.274 63.095,433.774 60.5,434C 61.0313,441.967 57.3646,445.133 49.5,443.5C 49.5,448.833 49.5,454.167 49.5,459.5C 49.5,460.167 49.5,460.833 49.5,461.5C 36.8333,461.5 24.1667,461.5 11.5,461.5C 11.5,458.5 11.5,455.5 11.5,452.5C 14.0593,452.802 16.3926,452.468 18.5,451.5C 19.6921,450.434 19.3588,449.601 17.5,449C 19.4202,443.803 20.0868,438.303 19.5,432.5C 22.5719,432.817 25.5719,432.484 28.5,431.5C 29.296,428.731 29.6294,426.064 29.5,423.5C 32.4465,422.679 35.4465,422.179 38.5,422C 39.2822,419.26 39.7822,416.426 40,413.5C 42.7701,412.675 45.4367,412.341 48,412.5C 48.3333,409.5 48.6667,406.5 49,403.5C 50.7959,402.233 52.6293,402.233 54.5,403.5C 55.7481,402.96 56.9148,402.293 58,401.5C 57.7978,398.772 57.9645,396.105 58.5,393.5C 61.3331,393.418 64.3331,393.252 67.5,393C 67.2964,390.379 67.2964,387.545 67.5,384.5C 70.5533,383.576 73.5533,383.576 76.5,384.5C 78.3878,382.012 79.0545,379.012 78.5,375.5C 81.1873,375.664 83.854,375.497 86.5,375C 88.019,371.949 89.019,368.782 89.5,365.5 Z"/></g>
<g><path style="opacity:0.016" fill="#80ff7f" d="M 282.5,399.5 C 283.833,400.167 283.833,400.167 282.5,399.5 Z"/></g>
<g><path style="opacity:1" fill="#fcc0a1" d="M 212.5,336.5 C 212.833,336.5 213.167,336.5 213.5,336.5C 213.223,339.448 213.556,342.281 214.5,345C 220.491,345.499 226.491,345.666 232.5,345.5C 232.178,351.358 232.511,357.025 233.5,362.5C 235.857,364.098 238.523,365.098 241.5,365.5C 241.287,372.211 241.62,378.877 242.5,385.5C 242.666,391.509 242.499,397.509 242,403.5C 239.281,404.444 236.448,404.777 233.5,404.5C 233.5,410.833 233.5,417.167 233.5,423.5C 229.833,423.5 226.167,423.5 222.5,423.5C 222.5,433.167 222.5,442.833 222.5,452.5C 218.774,452.177 215.107,452.511 211.5,453.5C 214.478,455.348 214.812,457.348 212.5,459.5C 202.109,460.926 191.776,460.759 181.5,459C 180.584,458.626 179.75,458.126 179,457.5C 178.784,455.616 178.117,453.949 177,452.5C 174.835,454.653 174.002,457.319 174.5,460.5C 158.5,460.5 142.5,460.5 126.5,460.5C 126.5,457.5 126.5,454.5 126.5,451.5C 116.833,451.5 107.167,451.5 97.5,451.5C 97.7771,454.448 97.4438,457.281 96.5,460C 80.4832,460.776 64.8165,460.609 49.5,459.5C 49.5,454.167 49.5,448.833 49.5,443.5C 57.3646,445.133 61.0313,441.967 60.5,434C 63.095,433.774 65.595,433.274 68,432.5C 68.3333,429.5 68.6667,426.5 69,423.5C 72,422.833 75,422.167 78,421.5C 78.4974,418.854 78.6641,416.187 78.5,413.5C 81.4475,413.777 84.2809,413.444 87,412.5C 87.4974,409.854 87.6641,407.187 87.5,404.5C 93.8333,404.5 100.167,404.5 106.5,404.5C 106.5,407.5 106.5,410.5 106.5,413.5C 109.833,413.5 113.167,413.5 116.5,413.5C 116.5,416.5 116.5,419.5 116.5,422.5C 122.868,422.17 129.202,422.504 135.5,423.5C 137.469,426.39 137.802,429.39 136.5,432.5C 139.833,432.5 143.167,432.5 146.5,432.5C 146.5,435.833 146.5,439.167 146.5,442.5C 152.5,442.5 158.5,442.5 164.5,442.5C 164.5,439.167 164.5,435.833 164.5,432.5C 161.5,432.5 158.5,432.5 155.5,432.5C 156.81,424.633 153.476,421.633 145.5,423.5C 145.5,420.167 145.5,416.833 145.5,413.5C 139.167,413.5 132.833,413.5 126.5,413.5C 126.5,410.167 126.5,406.833 126.5,403.5C 123.5,403.5 120.5,403.5 117.5,403.5C 116.841,400.545 116.508,397.545 116.5,394.5C 113.572,394.148 110.738,393.482 108,392.5C 107.194,386.916 107.361,381.416 108.5,376C 105.042,374.585 101.375,374.085 97.5,374.5C 97.5,371.5 97.5,368.5 97.5,365.5C 94.8333,365.5 92.1667,365.5 89.5,365.5C 89.3338,359.158 89.5005,352.825 90,346.5C 92.1049,343.893 92.9383,340.893 92.5,337.5C 94.4832,337.843 95.8166,337.176 96.5,335.5C 96.5,335.167 96.5,334.833 96.5,334.5C 97.4927,326.35 97.8261,318.017 97.5,309.5C 98.7124,308.77 99.7124,307.77 100.5,306.5C 102.747,307.374 105.08,307.708 107.5,307.5C 107.274,310.249 107.607,312.916 108.5,315.5C 111.027,316.214 113.527,316.88 116,317.5C 116.498,320.817 116.665,324.15 116.5,327.5C 119.833,327.5 123.167,327.5 126.5,327.5C 126.5,333.833 126.5,340.167 126.5,346.5C 129.5,346.5 132.5,346.5 135.5,346.5C 135.5,356.167 135.5,365.833 135.5,375.5C 138.833,375.5 142.167,375.5 145.5,375.5C 145.5,384.833 145.5,394.167 145.5,403.5C 148.833,403.5 152.167,403.5 155.5,403.5C 155.5,406.833 155.5,410.167 155.5,413.5C 158.5,413.5 161.5,413.5 164.5,413.5C 164.5,416.833 164.5,420.167 164.5,423.5C 167.833,423.5 171.167,423.5 174.5,423.5C 174.5,426.5 174.5,429.5 174.5,432.5C 177.833,432.5 181.167,432.5 184.5,432.5C 184.5,435.5 184.5,438.5 184.5,441.5C 187.48,441.62 190.313,442.287 193,443.5C 193.498,446.482 193.665,449.482 193.5,452.5C 196.833,452.5 200.167,452.5 203.5,452.5C 203.5,445.833 203.5,439.167 203.5,432.5C 200.5,432.5 197.5,432.5 194.5,432.5C 194.5,410.167 194.5,387.833 194.5,365.5C 197.5,365.5 200.5,365.5 203.5,365.5C 203.258,359.792 203.592,354.125 204.5,348.5C 204.833,347.833 205.167,347.167 205.5,346.5C 207.709,345.894 209.876,345.227 212,344.5C 212.497,341.854 212.664,339.187 212.5,336.5 Z"/></g>
<g><path style="opacity:1" fill="#fce0c8" d="M 241.5,365.5 C 242.207,371.036 242.874,376.702 243.5,382.5C 249.798,383.496 256.132,383.83 262.5,383.5C 262.5,386.833 262.5,390.167 262.5,393.5C 268.833,393.5 275.167,393.5 281.5,393.5C 281.335,396.85 281.502,400.183 282,403.5C 289.973,400.479 293.139,403.479 291.5,412.5C 297.176,412.334 302.843,412.501 308.5,413C 309.167,416 309.833,419 310.5,422C 314.028,422.089 317.362,422.756 320.5,424C 319.864,426.394 319.864,428.894 320.5,431.5C 329.296,429.953 332.296,433.287 329.5,441.5C 332.909,441.249 336.242,441.583 339.5,442.5C 339.413,445.387 339.746,448.387 340.5,451.5C 343.525,450.189 346.859,450.189 350.5,451.5C 350.5,452.5 350.5,453.5 350.5,454.5C 349.167,457.167 349.167,459.833 350.5,462.5C 350.5,462.833 350.5,463.167 350.5,463.5C 347.833,463.5 345.167,463.5 342.5,463.5C 341.5,462.167 340.5,462.167 339.5,463.5C 309.5,463.5 279.5,463.5 249.5,463.5C 241.5,462.167 233.5,462.167 225.5,463.5C 224.167,463.5 222.833,463.5 221.5,463.5C 222.423,459.936 222.756,456.269 222.5,452.5C 225.254,451.26 227.754,449.593 230,447.5C 230.492,446.451 230.326,445.451 229.5,444.5C 231.35,443.352 232.017,442.019 231.5,440.5C 237.925,440.392 244.591,441.059 251.5,442.5C 251.928,439.328 252.095,436.328 252,433.5C 254.74,432.718 257.574,432.218 260.5,432C 260.805,429.739 261.472,427.239 262.5,424.5C 265.51,423.731 268.51,422.897 271.5,422C 270.809,415.618 270.809,409.118 271.5,402.5C 277.485,403.73 280.152,401.396 279.5,395.5C 273.824,395.666 268.157,395.499 262.5,395C 261.549,391.943 261.216,388.777 261.5,385.5C 255.167,385.5 248.833,385.5 242.5,385.5C 241.62,378.877 241.287,372.211 241.5,365.5 Z"/></g>
<g><path style="opacity:1" fill="#fbcaaf" d="M 222.5,452.5 C 222.756,456.269 222.423,459.936 221.5,463.5C 219.5,463.5 217.5,463.5 215.5,463.5C 160.51,461.504 105.177,460.837 49.5,461.5C 49.5,460.833 49.5,460.167 49.5,459.5C 64.8165,460.609 80.4832,460.776 96.5,460C 97.4438,457.281 97.7771,454.448 97.5,451.5C 107.167,451.5 116.833,451.5 126.5,451.5C 126.5,454.5 126.5,457.5 126.5,460.5C 142.5,460.5 158.5,460.5 174.5,460.5C 174.002,457.319 174.835,454.653 177,452.5C 178.117,453.949 178.784,455.616 179,457.5C 179.75,458.126 180.584,458.626 181.5,459C 191.776,460.759 202.109,460.926 212.5,459.5C 214.812,457.348 214.478,455.348 211.5,453.5C 215.107,452.511 218.774,452.177 222.5,452.5 Z"/></g>
<g><path style="opacity:0.294" fill="#d8c0a2" d="M 18.5,451.5 C 16.3926,452.468 14.0593,452.802 11.5,452.5C 11.5,455.5 11.5,458.5 11.5,461.5C 24.1667,461.5 36.8333,461.5 49.5,461.5C 105.177,460.837 160.51,461.504 215.5,463.5C 214.5,463.5 213.5,463.5 212.5,463.5C 145.335,462.501 78.0021,462.168 10.5,462.5C 10.2175,458.704 10.2175,455.037 10.5,451.5C 12.9866,451.218 15.6533,451.218 18.5,451.5 Z"/></g>
</svg>
