<?xml version="1.0" encoding="UTF-8"?>
<!DOCTYPE svg PUBLIC "-//W3C//DTD SVG 1.1//EN" "http://www.w3.org/Graphics/SVG/1.1/DTD/svg11.dtd">
<svg xmlns="http://www.w3.org/2000/svg" version="1.1" width="350px" height="462px" style="shape-rendering:geometricPrecision; text-rendering:geometricPrecision; image-rendering:optimizeQuality; fill-rule:evenodd; clip-rule:evenodd" xmlns:xlink="http://www.w3.org/1999/xlink">
<g><path style="opacity:1" fill="#dabea6" d="M 60.5,6.5 C 63.4475,6.22288 66.2809,6.55621 69,7.5C 70.2546,12.7298 70.4213,18.0631 69.5,23.5C 68.5318,21.3926 68.1984,19.0593 68.5,16.5C 65.5,16.5 62.5,16.5 59.5,16.5C 59.2529,13.0613 59.5863,9.72797 60.5,6.5 Z"/></g>
<g><path style="opacity:1" fill="#fac5ad" d="M 59.5,35.5 C 59.5,36.1667 59.5,36.8333 59.5,37.5C 57.9826,37.5106 56.8159,38.1772 56,39.5C 55.3741,37.0087 54.5407,37.0087 53.5,39.5C 52.2956,36.5853 50.2956,34.4186 47.5,33C 48.1344,30.9255 48.4677,28.7588 48.5,26.5C 48.6033,23.9627 48.1033,21.6294 47,19.5C 46.3333,20.8333 45.6667,20.8333 45,19.5C 42.3549,21.7236 41.8549,24.3903 43.5,27.5C 39.0685,27.2307 34.7352,27.564 30.5,28.5C 28.9106,27.3789 27.2439,27.5456 25.5,29C 26.6537,29.9138 26.487,30.7471 25,31.5C 22.8282,30.4911 21.6615,28.8244 21.5,26.5C 24.5,26.5 27.5,26.5 30.5,26.5C 30.5,23.1667 30.5,19.8333 30.5,16.5C 33.8333,16.5 37.1667,16.5 40.5,16.5C 40.5,13.5 40.5,10.5 40.5,7.5C 43.5,7.5 46.5,7.5 49.5,7.5C 49.5,10.8333 49.5,14.1667 49.5,17.5C 52.8333,17.5 56.1667,17.5 59.5,17.5C 59.5,23.5 59.5,29.5 59.5,35.5 Z"/></g>
<g><path style="opacity:1" fill="#c3816b" d="M 39.5,-0.5 C 46.5,-0.5 53.5,-0.5 60.5,-0.5C 59.9329,1.96864 59.9329,4.30198 60.5,6.5C 59.5863,9.72797 59.2529,13.0613 59.5,16.5C 62.5,16.5 65.5,16.5 68.5,16.5C 68.1984,19.0593 68.5318,21.3926 69.5,23.5C 69.5,24.5 69.5,25.5 69.5,26.5C 68.5233,29.2869 68.19,32.2869 68.5,35.5C 65.5,35.5 62.5,35.5 59.5,35.5C 59.5,29.5 59.5,23.5 59.5,17.5C 56.1667,17.5 52.8333,17.5 49.5,17.5C 49.5,14.1667 49.5,10.8333 49.5,7.5C 46.5,7.5 43.5,7.5 40.5,7.5C 40.5,10.5 40.5,13.5 40.5,16.5C 37.1667,16.5 33.8333,16.5 30.5,16.5C 30.5,19.8333 30.5,23.1667 30.5,26.5C 27.5,26.5 24.5,26.5 21.5,26.5C 20.8333,26.5 20.1667,26.5 19.5,26.5C 19.3354,23.4816 19.502,20.4816 20,17.5C 23.0567,16.5495 26.2234,16.2161 29.5,16.5C 29.781,13.1834 29.781,10.0168 29.5,7C 32.5431,5.94509 35.5431,5.77842 38.5,6.5C 39.4742,4.25731 39.8076,1.92397 39.5,-0.5 Z"/></g>
<g><path style="opacity:1" fill="#fcc0a1" d="M 59.5,37.5 C 58.3871,46.786 58.2204,56.1193 59,65.5C 62,65.8333 65,66.1667 68,66.5C 68.4998,76.1609 68.6665,85.8276 68.5,95.5C 65.6085,94.5975 62.6085,94.2641 59.5,94.5C 59.5,87.8333 59.5,81.1667 59.5,74.5C 51.1667,76.1667 47.8333,72.8333 49.5,64.5C 47.1432,64.6633 44.8098,64.4966 42.5,64C 41.7819,61.5393 41.1153,59.0393 40.5,56.5C 37.2317,55.513 33.8984,55.1796 30.5,55.5C 30.5,46.5 30.5,37.5 30.5,28.5C 34.7352,27.564 39.0685,27.2307 43.5,27.5C 41.8549,24.3903 42.3549,21.7236 45,19.5C 45.6667,20.8333 46.3333,20.8333 47,19.5C 48.1033,21.6294 48.6033,23.9627 48.5,26.5C 48.4677,28.7588 48.1344,30.9255 47.5,33C 50.2956,34.4186 52.2956,36.5853 53.5,39.5C 54.5407,37.0087 55.3741,37.0087 56,39.5C 56.8159,38.1772 57.9826,37.5106 59.5,37.5 Z"/></g>
<g><path style="opacity:1" fill="#fbc0a1" d="M 328.5,16.5 C 325.713,17.4767 322.713,17.81 319.5,17.5C 319.5,27.1667 319.5,36.8333 319.5,46.5C 316.167,46.5 312.833,46.5 309.5,46.5C 309.666,54.84 309.5,63.1733 309,71.5C 308.626,72.4162 308.126,73.2496 307.5,74C 305.19,74.4966 302.857,74.6633 300.5,74.5C 300.5,84.1667 300.5,93.8333 300.5,103.5C 297.5,103.5 294.5,103.5 291.5,103.5C 291.5,112.833 291.5,122.167 291.5,131.5C 294.713,131.19 297.713,131.523 300.5,132.5C 300.167,132.5 299.833,132.5 299.5,132.5C 296.5,132.5 293.5,132.5 290.5,132.5C 290.296,135.518 289.963,138.518 289.5,141.5C 286.5,141.5 283.5,141.5 280.5,141.5C 280.664,138.813 280.497,136.146 280,133.5C 277.281,132.556 274.448,132.223 271.5,132.5C 271.5,119.833 271.5,107.167 271.5,94.5C 271.5,94.1667 271.5,93.8333 271.5,93.5C 274.5,93.5 277.5,93.5 280.5,93.5C 280.5,87.1667 280.5,80.8333 280.5,74.5C 283.833,74.5 287.167,74.5 290.5,74.5C 290.5,68.1667 290.5,61.8333 290.5,55.5C 293.833,55.5 297.167,55.5 300.5,55.5C 300.5,49.1667 300.5,42.8333 300.5,36.5C 303.5,36.5 306.5,36.5 309.5,36.5C 309.5,33.1667 309.5,29.8333 309.5,26.5C 312.5,26.5 315.5,26.5 318.5,26.5C 318.5,23.1667 318.5,19.8333 318.5,16.5C 321.833,16.5 325.167,16.5 328.5,16.5 Z"/></g>
<g><path style="opacity:1" fill="#fdd5b9" d="M 328.5,16.5 C 331.833,16.5 335.167,16.5 338.5,16.5C 338.5,16.8333 338.5,17.1667 338.5,17.5C 335.5,17.5 332.5,17.5 329.5,17.5C 329.425,21.8967 329.925,26.23 331,30.5C 333.027,30.0137 335.193,30.0137 337.5,30.5C 338.394,45.145 338.727,59.8117 338.5,74.5C 335.552,74.2229 332.719,74.5562 330,75.5C 328.785,84.4399 328.118,93.4399 328,102.5C 325.281,103.444 322.448,103.777 319.5,103.5C 319.333,116.171 319.5,128.838 320,141.5C 321.017,144.028 322.184,144.028 323.5,141.5C 324.687,142.653 325.687,142.653 326.5,141.5C 327.833,141.5 329.167,141.5 330.5,141.5C 329.752,147.452 329.252,153.452 329,159.5C 326.614,161.091 323.947,162.091 321,162.5C 320.415,164.129 319.581,165.629 318.5,167C 319.414,168.406 320.08,169.906 320.5,171.5C 317.853,170.927 315.187,170.26 312.5,169.5C 312.479,167.398 312.813,165.232 313.5,163C 312.643,162.311 311.977,161.478 311.5,160.5C 314.131,151.785 310.798,147.785 301.5,148.5C 300.549,143.23 300.215,137.897 300.5,132.5C 297.713,131.523 294.713,131.19 291.5,131.5C 291.5,122.167 291.5,112.833 291.5,103.5C 294.5,103.5 297.5,103.5 300.5,103.5C 300.5,93.8333 300.5,84.1667 300.5,74.5C 302.857,74.6633 305.19,74.4966 307.5,74C 308.126,73.2496 308.626,72.4162 309,71.5C 309.5,63.1733 309.666,54.84 309.5,46.5C 312.833,46.5 316.167,46.5 319.5,46.5C 319.5,36.8333 319.5,27.1667 319.5,17.5C 322.713,17.81 325.713,17.4767 328.5,16.5 Z"/></g>
<g><path style="opacity:1" fill="#e0c2a9" d="M 69.5,23.5 C 70.5523,24.5305 71.8857,25.1971 73.5,25.5C 75.4719,24.8433 77.3052,24.8433 79,25.5C 79.4983,28.8168 79.665,32.1501 79.5,35.5C 76.5,35.5 73.5,35.5 70.5,35.5C 69.5233,32.7131 69.19,29.7131 69.5,26.5C 69.5,25.5 69.5,24.5 69.5,23.5 Z"/></g>
<g><path style="opacity:1" fill="#fcd4b8" d="M 19.5,26.5 C 20.1667,26.5 20.8333,26.5 21.5,26.5C 21.6615,28.8244 22.8282,30.4911 25,31.5C 26.487,30.7471 26.6537,29.9138 25.5,29C 27.2439,27.5456 28.9106,27.3789 30.5,28.5C 30.5,37.5 30.5,46.5 30.5,55.5C 33.8984,55.1796 37.2317,55.513 40.5,56.5C 41.1153,59.0393 41.7819,61.5393 42.5,64C 44.8098,64.4966 47.1432,64.6633 49.5,64.5C 47.8333,72.8333 51.1667,76.1667 59.5,74.5C 59.5,81.1667 59.5,87.8333 59.5,94.5C 62.6085,94.2641 65.6085,94.5975 68.5,95.5C 68.5,98.1667 68.5,100.833 68.5,103.5C 68.5,113.167 68.5,122.833 68.5,132.5C 65.5,132.5 62.5,132.5 59.5,132.5C 59.5,129.167 59.5,125.833 59.5,122.5C 53.1667,122.5 46.8333,122.5 40.5,122.5C 40.7261,119.751 40.3928,117.084 39.5,114.5C 36.6336,113.792 33.8003,113.125 31,112.5C 30.502,109.518 30.3354,106.518 30.5,103.5C 27.5,103.5 24.5,103.5 21.5,103.5C 21.5,97.1667 21.5,90.8333 21.5,84.5C 18.2234,84.7839 15.0567,84.4505 12,83.5C 11.6667,77.1667 11.3333,70.8333 11,64.5C 7.94325,65.4505 4.77659,65.7839 1.5,65.5C 3.14142,74.0615 3.80808,82.7282 3.5,91.5C 2.97789,93.2191 1.97789,94.5525 0.5,95.5C 0.166667,95.5 -0.166667,95.5 -0.5,95.5C -0.5,92.8333 -0.5,90.1667 -0.5,87.5C 0.301916,88.9516 0.801916,90.6183 1,92.5C 1.39826,83.1493 1.39826,73.8159 1,64.5C 3.74971,63.7009 6.74971,63.3675 10,63.5C 10.3333,54.1667 10.6667,44.8333 11,35.5C 14.1677,35.9125 17.3343,35.4125 20.5,34C 20.8065,31.63 20.4731,29.13 19.5,26.5 Z"/></g>
<g><path style="opacity:1" fill="#c87c6a" d="M 70.5,36.5 C 73.1667,36.5 75.8333,36.5 78.5,36.5C 78.5,42.8333 78.5,49.1667 78.5,55.5C 75.5,55.5 72.5,55.5 69.5,55.5C 69.1765,48.9779 69.5098,42.6446 70.5,36.5 Z"/></g>
<g><path style="opacity:1" fill="#c8806b" d="M 78.5,64.5 C 81.8333,64.5 85.1667,64.5 88.5,64.5C 89.069,68.3293 88.4023,71.6627 86.5,74.5C 83.8333,74.5 81.1667,74.5 78.5,74.5C 78.5,71.1667 78.5,67.8333 78.5,64.5 Z"/></g>
<g><path style="opacity:1" fill="#d4a289" d="M 318.5,-0.5 C 322.167,-0.5 325.833,-0.5 329.5,-0.5C 330.21,1.7463 330.71,4.07963 331,6.5C 331.333,5.83333 331.667,5.16667 332,4.5C 334.106,6.29104 336.606,6.95771 339.5,6.5C 339.5,9.83333 339.5,13.1667 339.5,16.5C 339.167,16.5 338.833,16.5 338.5,16.5C 335.167,16.5 331.833,16.5 328.5,16.5C 325.167,16.5 321.833,16.5 318.5,16.5C 318.5,19.8333 318.5,23.1667 318.5,26.5C 315.5,26.5 312.5,26.5 309.5,26.5C 309.5,29.8333 309.5,33.1667 309.5,36.5C 306.5,36.5 303.5,36.5 300.5,36.5C 300.5,42.8333 300.5,49.1667 300.5,55.5C 297.167,55.5 293.833,55.5 290.5,55.5C 290.5,61.8333 290.5,68.1667 290.5,74.5C 287.167,74.5 283.833,74.5 280.5,74.5C 280.5,80.8333 280.5,87.1667 280.5,93.5C 277.5,93.5 274.5,93.5 271.5,93.5C 271.5,84.1667 271.5,74.8333 271.5,65.5C 274.5,65.5 277.5,65.5 280.5,65.5C 280.5,62.1667 280.5,58.8333 280.5,55.5C 279.209,55.7373 278.209,55.404 277.5,54.5C 277.81,53.2617 278.31,53.2617 279,54.5C 279.333,48.5 279.667,42.5 280,36.5C 281.396,34.4732 283.062,34.1398 285,35.5C 285.869,32.2374 287.203,31.9041 289,34.5C 288.908,30.7068 289.908,27.3734 292,24.5C 294.041,25.4231 296.208,25.7564 298.5,25.5C 299.207,22.2139 299.54,18.8806 299.5,15.5C 302.526,16.5767 305.526,16.5767 308.5,15.5C 309.487,12.2317 309.82,8.89838 309.5,5.5C 312.455,6.15872 315.455,6.49205 318.5,6.5C 318.5,4.16667 318.5,1.83333 318.5,-0.5 Z"/></g>
<g><path style="opacity:1" fill="#fde0c8" d="M 338.5,17.5 C 338.335,21.1817 338.501,24.8484 339,28.5C 339.333,28.8333 339.667,29.1667 340,29.5C 342.106,27.709 344.606,27.0423 347.5,27.5C 347.829,33.5368 347.496,39.5368 346.5,45.5C 345.808,44.9747 345.308,44.3081 345,43.5C 346.772,60.73 346.939,78.0633 345.5,95.5C 344.5,95.5 343.5,95.5 342.5,95.5C 342.5,96.8333 342.5,98.1667 342.5,99.5C 343.5,99.5 344.5,99.5 345.5,99.5C 345.5,100.5 345.5,101.5 345.5,102.5C 343.833,102.5 342.167,102.5 340.5,102.5C 340.799,100.396 340.466,98.396 339.5,96.5C 338.158,98.0049 336.492,98.6715 334.5,98.5C 334.343,99.8734 334.51,101.207 335,102.5C 338.962,99.4723 339.962,100.139 338,104.5C 337.667,113.167 337.333,121.833 337,130.5C 335.532,132.816 333.699,133.149 331.5,131.5C 329.226,131.97 327.226,132.97 325.5,134.5C 328.167,136.5 328.167,138.5 325.5,140.5C 325.624,141.107 325.957,141.44 326.5,141.5C 325.687,142.653 324.687,142.653 323.5,141.5C 322.184,144.028 321.017,144.028 320,141.5C 319.5,128.838 319.333,116.171 319.5,103.5C 322.448,103.777 325.281,103.444 328,102.5C 328.118,93.4399 328.785,84.4399 330,75.5C 332.719,74.5562 335.552,74.2229 338.5,74.5C 338.727,59.8117 338.394,45.145 337.5,30.5C 335.193,30.0137 333.027,30.0137 331,30.5C 329.925,26.23 329.425,21.8967 329.5,17.5C 332.5,17.5 335.5,17.5 338.5,17.5 Z"/></g>
<g><path style="opacity:1" fill="#f0e2c6" d="M 338.5,16.5 C 338.833,16.5 339.167,16.5 339.5,16.5C 339.5,19.5 339.5,22.5 339.5,25.5C 343.162,25.0339 346.495,25.7006 349.5,27.5C 349.5,52.8333 349.5,78.1667 349.5,103.5C 346.332,104.792 343.165,104.792 340,103.5C 339.183,112.745 339.35,121.911 340.5,131C 339.833,131.667 339.167,132.333 338.5,133C 335.574,133.218 332.74,133.718 330,134.5C 330.41,136.947 330.576,139.28 330.5,141.5C 329.167,141.5 327.833,141.5 326.5,141.5C 325.957,141.44 325.624,141.107 325.5,140.5C 328.167,138.5 328.167,136.5 325.5,134.5C 327.226,132.97 329.226,131.97 331.5,131.5C 333.699,133.149 335.532,132.816 337,130.5C 337.333,121.833 337.667,113.167 338,104.5C 339.962,100.139 338.962,99.4723 335,102.5C 334.51,101.207 334.343,99.8734 334.5,98.5C 336.492,98.6715 338.158,98.0049 339.5,96.5C 340.466,98.396 340.799,100.396 340.5,102.5C 342.167,102.5 343.833,102.5 345.5,102.5C 345.5,101.5 345.5,100.5 345.5,99.5C 344.5,99.5 343.5,99.5 342.5,99.5C 342.5,98.1667 342.5,96.8333 342.5,95.5C 343.5,95.5 344.5,95.5 345.5,95.5C 346.939,78.0633 346.772,60.73 345,43.5C 345.308,44.3081 345.808,44.9747 346.5,45.5C 347.496,39.5368 347.829,33.5368 347.5,27.5C 344.606,27.0423 342.106,27.709 340,29.5C 339.667,29.1667 339.333,28.8333 339,28.5C 338.501,24.8484 338.335,21.1817 338.5,17.5C 338.5,17.1667 338.5,16.8333 338.5,16.5 Z"/></g>
<g><path style="opacity:1" fill="#d5a28a" d="M 98.5,54.5 C 94.8537,63.8783 97.687,67.2117 107,64.5C 107.5,71.1583 107.666,77.825 107.5,84.5C 110.833,84.5 114.167,84.5 117.5,84.5C 117.5,87.8333 117.5,91.1667 117.5,94.5C 120.5,94.5 123.5,94.5 126.5,94.5C 126.5,97.5 126.5,100.5 126.5,103.5C 129.833,103.5 133.167,103.5 136.5,103.5C 136.5,122.833 136.5,142.167 136.5,161.5C 133.167,161.5 129.833,161.5 126.5,161.5C 120.167,161.5 113.833,161.5 107.5,161.5C 107.5,161.167 107.5,160.833 107.5,160.5C 107.5,153.833 107.5,147.167 107.5,140.5C 107.5,137.833 107.5,135.167 107.5,132.5C 110.572,132.817 113.572,132.484 116.5,131.5C 118.15,128.652 117.816,126.152 115.5,124C 112.854,123.503 110.187,123.336 107.5,123.5C 107.74,120.421 107.407,117.421 106.5,114.5C 103.572,113.516 100.572,113.183 97.5,113.5C 97.5,107.167 97.5,100.833 97.5,94.5C 94.2869,94.81 91.2869,94.4767 88.5,93.5C 91.5,93.5 94.5,93.5 97.5,93.5C 97.5,90.5 97.5,87.5 97.5,84.5C 94.5,84.5 91.5,84.5 88.5,84.5C 88.9396,80.8215 88.273,77.4882 86.5,74.5C 88.4023,71.6627 89.069,68.3293 88.5,64.5C 85.1667,64.5 81.8333,64.5 78.5,64.5C 78.5,61.5 78.5,58.5 78.5,55.5C 78.5,49.1667 78.5,42.8333 78.5,36.5C 75.8333,36.5 73.1667,36.5 70.5,36.5C 70.5,36.1667 70.5,35.8333 70.5,35.5C 73.5,35.5 76.5,35.5 79.5,35.5C 81.9201,35.7076 84.2534,35.3742 86.5,34.5C 88.5116,35.4525 89.5116,37.1191 89.5,39.5C 89.4493,41.0998 89.1159,42.5998 88.5,44C 91.6847,45.2125 95.0181,45.5458 98.5,45C 98.781,48.0168 98.781,51.1834 98.5,54.5 Z"/></g>
<g><path style="opacity:1" fill="#fcc0a2" d="M 68.5,103.5 C 71.8333,103.5 75.1667,103.5 78.5,103.5C 78.5,106.5 78.5,109.5 78.5,112.5C 81.8788,112.322 85.0454,112.322 88,112.5C 88.4998,122.494 88.6665,132.494 88.5,142.5C 78.5138,141.834 68.5138,141.501 58.5,141.5C 58.5,144.833 58.5,148.167 58.5,151.5C 55.5,151.5 52.5,151.5 49.5,151.5C 49.6641,148.813 49.4974,146.146 49,143.5C 46.2617,142.518 43.4284,141.852 40.5,141.5C 40.5,138.167 40.5,134.833 40.5,131.5C 37.1667,131.5 33.8333,131.5 30.5,131.5C 30.5,128.5 30.5,125.5 30.5,122.5C 27.5,122.5 24.5,122.5 21.5,122.5C 21.5949,118.775 21.7616,115.109 22,111.5C 18.5044,112.203 15.0044,112.87 11.5,113.5C 11.6662,107.491 11.4995,101.491 11,95.5C 9.21339,94.6569 7.38005,94.4902 5.5,95C 4.17723,94.1841 3.51056,93.0174 3.5,91.5C 3.80808,82.7282 3.14142,74.0615 1.5,65.5C 4.77659,65.7839 7.94325,65.4505 11,64.5C 11.3333,70.8333 11.6667,77.1667 12,83.5C 15.0567,84.4505 18.2234,84.7839 21.5,84.5C 21.5,90.8333 21.5,97.1667 21.5,103.5C 24.5,103.5 27.5,103.5 30.5,103.5C 30.3354,106.518 30.502,109.518 31,112.5C 33.8003,113.125 36.6336,113.792 39.5,114.5C 40.3928,117.084 40.7261,119.751 40.5,122.5C 46.8333,122.5 53.1667,122.5 59.5,122.5C 59.5,125.833 59.5,129.167 59.5,132.5C 62.5,132.5 65.5,132.5 68.5,132.5C 68.5,122.833 68.5,113.167 68.5,103.5 Z"/></g>
<g><path style="opacity:1" fill="#c77d6a" d="M 88.5,84.5 C 91.5,84.5 94.5,84.5 97.5,84.5C 97.5,87.5 97.5,90.5 97.5,93.5C 94.5,93.5 91.5,93.5 88.5,93.5C 88.5,90.5 88.5,87.5 88.5,84.5 Z"/></g>
<g><path style="opacity:1" fill="#fac5b4" d="M 3.5,91.5 C 3.51056,93.0174 4.17723,94.1841 5.5,95C 7.38005,94.4902 9.21339,94.6569 11,95.5C 11.4995,101.491 11.6662,107.491 11.5,113.5C 8.11945,113.54 4.78611,113.207 1.5,112.5C 1.82141,106.974 1.48808,101.64 0.5,96.5C 0.5,96.1667 0.5,95.8333 0.5,95.5C 1.97789,94.5525 2.97789,93.2191 3.5,91.5 Z"/></g>
<g><path style="opacity:1" fill="#d6a188" d="M 271.5,94.5 C 271.5,107.167 271.5,119.833 271.5,132.5C 270.521,135.625 270.187,138.958 270.5,142.5C 267.5,142.5 264.5,142.5 261.5,142.5C 261.5,126.5 261.5,110.5 261.5,94.5C 264.833,94.5 268.167,94.5 271.5,94.5 Z"/></g>
<g><path style="opacity:0.89" fill="#a4926f" d="M 251.5,87.5 C 252.659,98.3255 252.826,109.326 252,120.5C 251.617,121.056 251.117,121.389 250.5,121.5C 251.457,110.217 251.79,98.8841 251.5,87.5 Z"/></g>
<g><path style="opacity:1" fill="#e5d1b5" d="M 98.5,54.5 C 101.518,54.3354 104.518,54.502 107.5,55C 108.125,57.8003 108.792,60.6336 109.5,63.5C 111.11,64.5522 112.777,64.5522 114.5,63.5C 116.029,63.5288 117.196,64.1955 118,65.5C 118.497,68.146 118.664,70.8127 118.5,73.5C 121.518,73.3354 124.518,73.502 127.5,74C 128.498,76.8122 128.664,79.6456 128,82.5C 130.847,83.1481 133.681,83.4814 136.5,83.5C 137.496,89.7985 137.83,96.1318 137.5,102.5C 140.572,102.183 143.572,102.516 146.5,103.5C 147.368,106.468 147.701,109.301 147.5,112C 150.482,112.498 153.482,112.665 156.5,112.5C 156.5,115.5 156.5,118.5 156.5,121.5C 162.358,121.178 168.025,121.511 173.5,122.5C 169.812,122.781 166.145,123.281 162.5,124C 162.043,124.414 161.709,124.914 161.5,125.5C 163.832,131.821 164.166,138.321 162.5,145C 165.244,147.814 164.577,149.647 160.5,150.5C 159.328,150.081 158.328,149.415 157.5,148.5C 156.914,148.709 156.414,149.043 156,149.5C 155.5,156.492 155.334,163.492 155.5,170.5C 152.482,170.335 149.482,170.502 146.5,171C 145.549,174.057 145.216,177.223 145.5,180.5C 142.941,180.198 140.607,180.532 138.5,181.5C 137.041,183.993 135.708,186.659 134.5,189.5C 131.868,190.257 129.368,190.59 127,190.5C 128.538,198.637 125.538,201.304 118,198.5C 117.502,195.518 117.335,192.518 117.5,189.5C 120.458,190.541 123.458,190.541 126.5,189.5C 126.5,180.167 126.5,170.833 126.5,161.5C 129.833,161.5 133.167,161.5 136.5,161.5C 136.5,142.167 136.5,122.833 136.5,103.5C 133.167,103.5 129.833,103.5 126.5,103.5C 126.5,100.5 126.5,97.5 126.5,94.5C 123.5,94.5 120.5,94.5 117.5,94.5C 117.5,91.1667 117.5,87.8333 117.5,84.5C 114.167,84.5 110.833,84.5 107.5,84.5C 107.666,77.825 107.5,71.1583 107,64.5C 97.687,67.2117 94.8537,63.8783 98.5,54.5 Z"/></g>
<g><path style="opacity:0.51" fill="#a09371" d="M 244.5,122.5 C 242.732,125.162 242.065,128.162 242.5,131.5C 242.167,131.5 241.833,131.5 241.5,131.5C 241.335,128.482 241.502,125.482 242,122.5C 242.977,121.226 243.811,121.226 244.5,122.5 Z"/></g>
<g><path style="opacity:1" fill="#fdd5b9" d="M 195.5,121.5 C 194.577,125.064 194.244,128.731 194.5,132.5C 200.758,132.19 206.924,132.524 213,133.5C 213.958,129.066 213.125,125.066 210.5,121.5C 211.822,121.33 212.989,121.663 214,122.5C 214.498,125.482 214.665,128.482 214.5,131.5C 223.167,131.5 231.833,131.5 240.5,131.5C 231.89,132.066 223.223,133.232 214.5,135C 213.155,137.324 212.822,139.658 213.5,142C 219.5,142.333 225.5,142.667 231.5,143C 232.282,145.74 232.782,148.574 233,151.5C 233.75,152.126 234.584,152.626 235.5,153C 243.492,152.3 251.492,152.633 259.5,154C 259.017,157.462 257.85,157.962 256,155.5C 254.989,156.337 253.822,156.67 252.5,156.5C 252.286,158.144 252.62,159.644 253.5,161C 256.146,161.497 258.813,161.664 261.5,161.5C 264.5,161.5 267.5,161.5 270.5,161.5C 271.403,164.391 271.736,167.391 271.5,170.5C 274.5,170.5 277.5,170.5 280.5,170.5C 283.625,171.479 286.958,171.813 290.5,171.5C 290.5,174.5 290.5,177.5 290.5,180.5C 296.833,180.5 303.167,180.5 309.5,180.5C 309.5,183.833 309.5,187.167 309.5,190.5C 310.833,190.5 312.167,190.5 313.5,190.5C 312.791,191.404 311.791,191.737 310.5,191.5C 310.187,194.247 310.52,196.914 311.5,199.5C 313.092,199.583 314.759,199.249 316.5,198.5C 318.029,198.529 319.196,199.196 320,200.5C 320.499,206.157 320.666,211.824 320.5,217.5C 323.674,217.998 327.007,217.998 330.5,217.5C 330.795,219.735 330.461,221.735 329.5,223.5C 330.535,231.364 330.702,239.031 330,246.5C 329.225,248.223 327.892,249.223 326,249.5C 324.348,249.14 322.682,248.807 321,248.5C 320.831,254.859 320.331,261.193 319.5,267.5C 316.532,268.368 313.699,268.701 311,268.5C 310.502,271.482 310.335,274.482 310.5,277.5C 309.691,275.708 309.191,273.708 309,271.5C 308.506,273.134 308.34,274.801 308.5,276.5C 305.5,276.5 302.5,276.5 299.5,276.5C 299.5,273.5 299.5,270.5 299.5,267.5C 296.833,267.5 294.167,267.5 291.5,267.5C 290.68,273.797 290.347,280.131 290.5,286.5C 287.061,286.253 283.728,286.586 280.5,287.5C 280.5,286.833 280.5,286.167 280.5,285.5C 283.5,285.5 286.5,285.5 289.5,285.5C 289.5,279.5 289.5,273.5 289.5,267.5C 283.167,267.5 276.833,267.5 270.5,267.5C 264.167,267.5 257.833,267.5 251.5,267.5C 251.5,270.5 251.5,273.5 251.5,276.5C 254.833,276.5 258.167,276.5 261.5,276.5C 261.5,279.833 261.5,283.167 261.5,286.5C 260.523,283.713 260.19,280.713 260.5,277.5C 257.5,277.5 254.5,277.5 251.5,277.5C 251.5,280.5 251.5,283.5 251.5,286.5C 245.491,286.334 239.491,286.501 233.5,287C 232.875,289.8 232.208,292.634 231.5,295.5C 225.886,296.621 220.22,296.788 214.5,296C 213.833,293 213.167,290 212.5,287C 206.509,286.501 200.509,286.334 194.5,286.5C 194.784,283.223 194.451,280.057 193.5,277C 190.183,276.502 186.85,276.335 183.5,276.5C 183.301,279.941 183.801,283.274 185,286.5C 187.719,287.444 190.552,287.777 193.5,287.5C 193.212,293.229 193.546,298.896 194.5,304.5C 197.428,305.484 200.428,305.817 203.5,305.5C 203.5,311.833 203.5,318.167 203.5,324.5C 206.833,324.5 210.167,324.5 213.5,324.5C 213.5,328.167 213.5,331.833 213.5,335.5C 213.167,335.5 212.833,335.5 212.5,335.5C 209.713,334.523 206.713,334.19 203.5,334.5C 203.817,331.428 203.484,328.428 202.5,325.5C 196.561,324.543 190.561,324.21 184.5,324.5C 184.5,321.5 184.5,318.5 184.5,315.5C 181.5,315.5 178.5,315.5 175.5,315.5C 175.5,308.833 175.5,302.167 175.5,295.5C 172.5,295.5 169.5,295.5 166.5,295.5C 166.988,292.289 166.321,289.456 164.5,287C 158.509,286.501 152.509,286.334 146.5,286.5C 146.817,283.428 146.484,280.428 145.5,277.5C 142.63,276.878 139.796,276.211 137,275.5C 136.503,272.854 136.336,270.187 136.5,267.5C 133.167,267.5 129.833,267.5 126.5,267.5C 126.5,248.167 126.5,228.833 126.5,209.5C 129.833,209.5 133.167,209.5 136.5,209.5C 136.5,206.167 136.5,202.833 136.5,199.5C 139.5,199.5 142.5,199.5 145.5,199.5C 145.666,194.156 145.499,188.823 145,183.5C 143.103,181.984 140.936,181.317 138.5,181.5C 140.607,180.532 142.941,180.198 145.5,180.5C 145.216,177.223 145.549,174.057 146.5,171C 149.482,170.502 152.482,170.335 155.5,170.5C 155.334,163.492 155.5,156.492 156,149.5C 156.414,149.043 156.914,148.709 157.5,148.5C 158.328,149.415 159.328,150.081 160.5,150.5C 164.577,149.647 165.244,147.814 162.5,145C 164.166,138.321 163.832,131.821 161.5,125.5C 161.709,124.914 162.043,124.414 162.5,124C 166.145,123.281 169.812,122.781 173.5,122.5C 180.876,122.726 188.209,122.392 195.5,121.5 Z"/></g>
<g><path style="opacity:1" fill="#f9c4a2" d="M 195.5,121.5 C 200.5,121.5 205.5,121.5 210.5,121.5C 213.125,125.066 213.958,129.066 213,133.5C 206.924,132.524 200.758,132.19 194.5,132.5C 194.244,128.731 194.577,125.064 195.5,121.5 Z"/></g>
<g><path style="opacity:1" fill="#faa998" d="M 69.5,26.5 C 69.19,29.7131 69.5233,32.7131 70.5,35.5C 70.5,35.8333 70.5,36.1667 70.5,36.5C 69.5098,42.6446 69.1765,48.9779 69.5,55.5C 72.5,55.5 75.5,55.5 78.5,55.5C 78.5,58.5 78.5,61.5 78.5,64.5C 78.5,67.8333 78.5,71.1667 78.5,74.5C 81.1667,74.5 83.8333,74.5 86.5,74.5C 88.273,77.4882 88.9396,80.8215 88.5,84.5C 88.5,87.5 88.5,90.5 88.5,93.5C 91.2869,94.4767 94.2869,94.81 97.5,94.5C 97.5,100.833 97.5,107.167 97.5,113.5C 100.572,113.183 103.572,113.516 106.5,114.5C 107.407,117.421 107.74,120.421 107.5,123.5C 110.187,123.336 112.854,123.503 115.5,124C 117.816,126.152 118.15,128.652 116.5,131.5C 113.572,132.484 110.572,132.817 107.5,132.5C 107.5,135.167 107.5,137.833 107.5,140.5C 105.797,139.34 105.131,140.007 105.5,142.5C 103.239,143.409 101.072,143.742 99,143.5C 98.5006,149.157 98.3339,154.824 98.5,160.5C 101.5,160.5 104.5,160.5 107.5,160.5C 107.5,160.833 107.5,161.167 107.5,161.5C 107.969,163.995 107.969,166.661 107.5,169.5C 106.835,167.302 106.168,164.969 105.5,162.5C 102.916,161.607 100.249,161.274 97.5,161.5C 97.7929,155.107 97.4596,148.773 96.5,142.5C 89.1343,140.875 86.4677,143.875 88.5,151.5C 85.1667,151.5 81.8333,151.5 78.5,151.5C 78.5,154.5 78.5,157.5 78.5,160.5C 75.4212,160.74 72.4212,160.407 69.5,159.5C 66.4833,162.911 65.8167,166.744 67.5,171C 76.3045,169.306 79.9711,172.806 78.5,181.5C 69.1967,180.191 59.8634,180.191 50.5,181.5C 50.3352,178.303 50.1686,174.97 50,171.5C 47.2809,170.556 44.4475,170.223 41.5,170.5C 42.6621,161.998 38.9954,158.665 30.5,160.5C 27.5,160.5 24.5,160.5 21.5,160.5C 21.6662,154.491 21.4995,148.491 21,142.5C 18,141.833 15,141.167 12,140.5C 11.5002,131.506 11.3336,122.506 11.5,113.5C 15.0044,112.87 18.5044,112.203 22,111.5C 21.7616,115.109 21.5949,118.775 21.5,122.5C 24.5,122.5 27.5,122.5 30.5,122.5C 30.5,125.5 30.5,128.5 30.5,131.5C 33.8333,131.5 37.1667,131.5 40.5,131.5C 40.5,134.833 40.5,138.167 40.5,141.5C 43.4284,141.852 46.2617,142.518 49,143.5C 49.4974,146.146 49.6641,148.813 49.5,151.5C 52.5,151.5 55.5,151.5 58.5,151.5C 58.5,148.167 58.5,144.833 58.5,141.5C 68.5138,141.501 78.5138,141.834 88.5,142.5C 88.6665,132.494 88.4998,122.494 88,112.5C 85.0454,112.322 81.8788,112.322 78.5,112.5C 78.5,109.5 78.5,106.5 78.5,103.5C 75.1667,103.5 71.8333,103.5 68.5,103.5C 68.5,100.833 68.5,98.1667 68.5,95.5C 68.6665,85.8276 68.4998,76.1609 68,66.5C 65,66.1667 62,65.8333 59,65.5C 58.2204,56.1193 58.3871,46.786 59.5,37.5C 59.5,36.8333 59.5,36.1667 59.5,35.5C 62.5,35.5 65.5,35.5 68.5,35.5C 68.19,32.2869 68.5233,29.2869 69.5,26.5 Z"/></g>
<g><path style="opacity:1" fill="#f8a195" d="M 271.5,132.5 C 274.448,132.223 277.281,132.556 280,133.5C 280.497,136.146 280.664,138.813 280.5,141.5C 283.5,141.5 286.5,141.5 289.5,141.5C 289.963,138.518 290.296,135.518 290.5,132.5C 293.5,132.5 296.5,132.5 299.5,132.5C 299.334,141.506 299.5,150.506 300,159.5C 302.804,161.344 305.97,162.011 309.5,161.5C 309.5,164.833 309.5,168.167 309.5,171.5C 303.167,171.5 296.833,171.5 290.5,171.5C 286.958,171.813 283.625,171.479 280.5,170.5C 284.042,170.813 287.375,170.479 290.5,169.5C 296.206,169.829 301.872,169.495 307.5,168.5C 307.291,167.914 306.957,167.414 306.5,167C 304.343,166.922 302.343,166.755 300.5,166.5C 300.709,165.914 301.043,165.414 301.5,165C 300.333,164.5 299.5,163.667 299,162.5C 298.501,158.848 298.335,155.182 298.5,151.5C 295.833,151.5 293.167,151.5 290.5,151.5C 290.5,148.833 290.5,146.167 290.5,143.5C 287.482,143.665 284.482,143.498 281.5,143C 280.333,142.5 279.5,141.667 279,140.5C 280.5,134.333 278.333,132.5 272.5,135C 273.43,136.194 274.097,137.527 274.5,139C 273.917,142.915 273.583,147.082 273.5,151.5C 272.833,151.5 272.167,151.5 271.5,151.5C 271.81,148.287 271.477,145.287 270.5,142.5C 270.187,138.958 270.521,135.625 271.5,132.5 Z"/></g>
<g><path style="opacity:0.031" fill="#7fbf7f" d="M 8.5,141.5 C 9.83333,142.167 9.83333,142.167 8.5,141.5 Z"/></g>
<g><path style="opacity:1" fill="#fd9a94" d="M 290.5,169.5 C 290.5,166.833 290.5,164.167 290.5,161.5C 287.167,161.5 283.833,161.5 280.5,161.5C 280.5,161.167 280.5,160.833 280.5,160.5C 280.5,157.5 280.5,154.5 280.5,151.5C 278.167,151.5 275.833,151.5 273.5,151.5C 273.583,147.082 273.917,142.915 274.5,139C 274.097,137.527 273.43,136.194 272.5,135C 278.333,132.5 280.5,134.333 279,140.5C 279.5,141.667 280.333,142.5 281.5,143C 284.482,143.498 287.482,143.665 290.5,143.5C 290.5,146.167 290.5,148.833 290.5,151.5C 293.167,151.5 295.833,151.5 298.5,151.5C 298.335,155.182 298.501,158.848 299,162.5C 299.5,163.667 300.333,164.5 301.5,165C 301.043,165.414 300.709,165.914 300.5,166.5C 302.343,166.755 304.343,166.922 306.5,167C 306.957,167.414 307.291,167.914 307.5,168.5C 301.872,169.495 296.206,169.829 290.5,169.5 Z"/></g>
<g><path style="opacity:1" fill="#fbb7ab" d="M 107.5,140.5 C 107.5,147.167 107.5,153.833 107.5,160.5C 104.5,160.5 101.5,160.5 98.5,160.5C 98.3339,154.824 98.5006,149.157 99,143.5C 101.072,143.742 103.239,143.409 105.5,142.5C 105.131,140.007 105.797,139.34 107.5,140.5 Z"/></g>
<g><path style="opacity:1" fill="#fbc2a4" d="M 240.5,131.5 C 240.833,131.5 241.167,131.5 241.5,131.5C 241.833,131.5 242.167,131.5 242.5,131.5C 242.5,135.167 242.5,138.833 242.5,142.5C 245.5,142.5 248.5,142.5 251.5,142.5C 251.5,145.5 251.5,148.5 251.5,151.5C 254.833,151.5 258.167,151.5 261.5,151.5C 261.5,154.833 261.5,158.167 261.5,161.5C 258.813,161.664 256.146,161.497 253.5,161C 252.62,159.644 252.286,158.144 252.5,156.5C 253.822,156.67 254.989,156.337 256,155.5C 257.85,157.962 259.017,157.462 259.5,154C 251.492,152.633 243.492,152.3 235.5,153C 234.584,152.626 233.75,152.126 233,151.5C 232.782,148.574 232.282,145.74 231.5,143C 225.5,142.667 219.5,142.333 213.5,142C 212.822,139.658 213.155,137.324 214.5,135C 223.223,133.232 231.89,132.066 240.5,131.5 Z"/></g>
<g><path style="opacity:1" fill="#c7806b" d="M 277.5,54.5 C 278.209,55.404 279.209,55.7373 280.5,55.5C 280.5,58.8333 280.5,62.1667 280.5,65.5C 277.5,65.5 274.5,65.5 271.5,65.5C 271.5,74.8333 271.5,84.1667 271.5,93.5C 271.5,93.8333 271.5,94.1667 271.5,94.5C 268.167,94.5 264.833,94.5 261.5,94.5C 261.5,110.5 261.5,126.5 261.5,142.5C 264.5,142.5 267.5,142.5 270.5,142.5C 271.477,145.287 271.81,148.287 271.5,151.5C 271.5,154.5 271.5,157.5 271.5,160.5C 274.5,160.5 277.5,160.5 280.5,160.5C 280.5,160.833 280.5,161.167 280.5,161.5C 277.167,161.5 273.833,161.5 270.5,161.5C 267.5,161.5 264.5,161.5 261.5,161.5C 261.5,158.167 261.5,154.833 261.5,151.5C 258.167,151.5 254.833,151.5 251.5,151.5C 251.5,148.5 251.5,145.5 251.5,142.5C 248.5,142.5 245.5,142.5 242.5,142.5C 242.5,138.833 242.5,135.167 242.5,131.5C 242.065,128.162 242.732,125.162 244.5,122.5C 246.475,122.122 248.475,121.789 250.5,121.5C 251.117,121.389 251.617,121.056 252,120.5C 252.826,109.326 252.659,98.3255 251.5,87.5C 250.156,85.8151 250.323,84.1484 252,82.5C 254.737,83.6105 257.571,83.7772 260.5,83C 259.5,82.6667 258.5,82.3333 257.5,82C 259.044,81.7104 260.377,81.0437 261.5,80C 260.571,74.727 260.404,69.5604 261,64.5C 264,64.1667 267,63.8333 270,63.5C 270.498,60.5184 270.665,57.5184 270.5,54.5C 272.833,54.5 275.167,54.5 277.5,54.5 Z"/></g>
<g><path style="opacity:1" fill="#fbc9b5" d="M 299.5,132.5 C 299.833,132.5 300.167,132.5 300.5,132.5C 300.215,137.897 300.549,143.23 301.5,148.5C 310.798,147.785 314.131,151.785 311.5,160.5C 311.977,161.478 312.643,162.311 313.5,163C 312.813,165.232 312.479,167.398 312.5,169.5C 315.187,170.26 317.853,170.927 320.5,171.5C 320.5,171.833 320.5,172.167 320.5,172.5C 319.527,174.948 319.194,177.615 319.5,180.5C 316.5,180.5 313.5,180.5 310.5,180.5C 309.841,177.545 309.508,174.545 309.5,171.5C 309.5,168.167 309.5,164.833 309.5,161.5C 305.97,162.011 302.804,161.344 300,159.5C 299.5,150.506 299.334,141.506 299.5,132.5 Z"/></g>
<g><path style="opacity:1" fill="#e67873" d="M 271.5,151.5 C 272.167,151.5 272.833,151.5 273.5,151.5C 275.833,151.5 278.167,151.5 280.5,151.5C 280.5,154.5 280.5,157.5 280.5,160.5C 277.5,160.5 274.5,160.5 271.5,160.5C 271.5,157.5 271.5,154.5 271.5,151.5 Z"/></g>
<g><path style="opacity:0.94" fill="#d1b097" d="M 0.5,96.5 C 1.48808,101.64 1.82141,106.974 1.5,112.5C 4.78611,113.207 8.11945,113.54 11.5,113.5C 11.3336,122.506 11.5002,131.506 12,140.5C 15,141.167 18,141.833 21,142.5C 21.4995,148.491 21.6662,154.491 21.5,160.5C 24.5,160.5 27.5,160.5 30.5,160.5C 32.2681,163.162 32.9347,166.162 32.5,169.5C 34.4918,169.672 36.1585,169.005 37.5,167.5C 38.086,167.709 38.586,168.043 39,168.5C 40.2662,172.395 40.7662,176.395 40.5,180.5C 43.3854,180.194 46.0521,180.527 48.5,181.5C 45.3463,182.095 42.3463,182.095 39.5,181.5C 39.6646,178.482 39.498,175.482 39,172.5C 36.2008,171.802 33.0341,171.468 29.5,171.5C 29.6646,168.482 29.498,165.482 29,162.5C 27.0257,162.374 24.859,162.208 22.5,162C 21.3279,161.581 20.3279,160.915 19.5,160C 20.6389,154.584 20.8056,149.084 20,143.5C 17.3333,142.167 14.6667,142.167 12,143.5C 11.6667,142.833 11.3333,142.167 11,141.5C 10.5002,132.506 10.3336,123.506 10.5,114.5C 7.42116,114.74 4.42116,114.407 1.5,113.5C 0.50457,107.872 0.171237,102.206 0.5,96.5 Z"/></g>
<g><path style="opacity:1" fill="#f3e2c6" d="M 320.5,171.5 C 320.08,169.906 319.414,168.406 318.5,167C 319.581,165.629 320.415,164.129 321,162.5C 323.947,162.091 326.614,161.091 329,159.5C 329.252,153.452 329.752,147.452 330.5,141.5C 334.244,139.736 337.577,140.236 340.5,143C 339.688,149.085 339.188,155.252 339,161.5C 336.281,162.444 333.448,162.777 330.5,162.5C 331.919,171.431 328.586,174.431 320.5,171.5 Z"/></g>
<g><path style="opacity:1" fill="#d6a089" d="M 270.5,161.5 C 273.833,161.5 277.167,161.5 280.5,161.5C 280.5,164.5 280.5,167.5 280.5,170.5C 277.5,170.5 274.5,170.5 271.5,170.5C 271.736,167.391 271.403,164.391 270.5,161.5 Z"/></g>
<g><path style="opacity:1" fill="#fabdaf" d="M 107.5,161.5 C 113.833,161.5 120.167,161.5 126.5,161.5C 126.5,170.833 126.5,180.167 126.5,189.5C 123.458,190.541 120.458,190.541 117.5,189.5C 117.829,183.463 117.496,177.463 116.5,171.5C 113.47,170.831 110.47,170.165 107.5,169.5C 107.969,166.661 107.969,163.995 107.5,161.5 Z"/></g>
<g><path style="opacity:1" fill="#e57775" d="M 280.5,161.5 C 283.833,161.5 287.167,161.5 290.5,161.5C 290.5,164.167 290.5,166.833 290.5,169.5C 287.375,170.479 284.042,170.813 280.5,170.5C 280.5,167.5 280.5,164.5 280.5,161.5 Z"/></g>
<g><path style="opacity:1" fill="#d8a289" d="M 30.5,160.5 C 38.9954,158.665 42.6621,161.998 41.5,170.5C 44.4475,170.223 47.2809,170.556 50,171.5C 50.1686,174.97 50.3352,178.303 50.5,181.5C 49.8333,181.5 49.1667,181.5 48.5,181.5C 46.0521,180.527 43.3854,180.194 40.5,180.5C 40.7662,176.395 40.2662,172.395 39,168.5C 38.586,168.043 38.086,167.709 37.5,167.5C 36.1585,169.005 34.4918,169.672 32.5,169.5C 32.9347,166.162 32.2681,163.162 30.5,160.5 Z"/></g>
<g><path style="opacity:1" fill="#fc9c95" d="M 107.5,169.5 C 110.47,170.165 113.47,170.831 116.5,171.5C 117.496,177.463 117.829,183.463 117.5,189.5C 117.167,189.5 116.833,189.5 116.5,189.5C 116.5,186.5 116.5,183.5 116.5,180.5C 113.5,180.5 110.5,180.5 107.5,180.5C 107.5,183.833 107.5,187.167 107.5,190.5C 106.5,190.5 105.5,190.5 104.5,190.5C 102.167,190.5 99.8333,190.5 97.5,190.5C 97.5,187.167 97.5,183.833 97.5,180.5C 94.5,180.5 91.5,180.5 88.5,180.5C 88.5,183.833 88.5,187.167 88.5,190.5C 85.5,190.5 82.5,190.5 79.5,190.5C 79.1667,190.5 78.8333,190.5 78.5,190.5C 78.5,187.5 78.5,184.5 78.5,181.5C 79.9711,172.806 76.3045,169.306 67.5,171C 65.8167,166.744 66.4833,162.911 69.5,159.5C 72.4212,160.407 75.4212,160.74 78.5,160.5C 78.5,157.5 78.5,154.5 78.5,151.5C 81.8333,151.5 85.1667,151.5 88.5,151.5C 86.4677,143.875 89.1343,140.875 96.5,142.5C 97.4596,148.773 97.7929,155.107 97.5,161.5C 100.249,161.274 102.916,161.607 105.5,162.5C 106.168,164.969 106.835,167.302 107.5,169.5 Z"/></g>
<g><path style="opacity:1" fill="#d6a28a" d="M 78.5,181.5 C 78.5,184.5 78.5,187.5 78.5,190.5C 78.5,193.5 78.5,196.5 78.5,199.5C 78.5,202.833 78.5,206.167 78.5,209.5C 85.1667,209.5 91.8333,209.5 98.5,209.5C 98.5,212.833 98.5,216.167 98.5,219.5C 91.8333,219.5 85.1667,219.5 78.5,219.5C 78.5,222.5 78.5,225.5 78.5,228.5C 75.5,228.5 72.5,228.5 69.5,228.5C 69.8182,233.032 69.4849,237.366 68.5,241.5C 68.4373,231.653 68.4373,221.987 68.5,212.5C 68.2907,211.914 67.9574,211.414 67.5,211C 64.5184,210.502 61.5184,210.335 58.5,210.5C 58.5,204.167 58.5,197.833 58.5,191.5C 55.6533,191.218 52.9866,191.218 50.5,191.5C 49.9219,188.631 48.9219,185.965 47.5,183.5C 47.8627,182.817 48.1961,182.15 48.5,181.5C 49.1667,181.5 49.8333,181.5 50.5,181.5C 59.8634,180.191 69.1967,180.191 78.5,181.5 Z"/></g>
<g><path style="opacity:1" fill="#d2a48c" d="M 290.5,171.5 C 296.833,171.5 303.167,171.5 309.5,171.5C 309.508,174.545 309.841,177.545 310.5,180.5C 313.5,180.5 316.5,180.5 319.5,180.5C 319.194,177.615 319.527,174.948 320.5,172.5C 320.666,178.509 320.499,184.509 320,190.5C 317.88,191.605 315.713,191.605 313.5,190.5C 312.167,190.5 310.833,190.5 309.5,190.5C 309.5,187.167 309.5,183.833 309.5,180.5C 303.167,180.5 296.833,180.5 290.5,180.5C 290.5,177.5 290.5,174.5 290.5,171.5 Z"/></g>
<g><path style="opacity:1" fill="#e97574" d="M 104.5,190.5 C 105.388,193.054 105.721,195.721 105.5,198.5C 96.8333,198.5 88.1667,198.5 79.5,198.5C 79.5,195.833 79.5,193.167 79.5,190.5C 82.5,190.5 85.5,190.5 88.5,190.5C 88.5,187.167 88.5,183.833 88.5,180.5C 91.5,180.5 94.5,180.5 97.5,180.5C 97.5,183.833 97.5,187.167 97.5,190.5C 99.8333,190.5 102.167,190.5 104.5,190.5 Z"/></g>
<g><path style="opacity:1" fill="#fbc0a1" d="M 138.5,181.5 C 140.936,181.317 143.103,181.984 145,183.5C 145.499,188.823 145.666,194.156 145.5,199.5C 142.5,199.5 139.5,199.5 136.5,199.5C 136.5,202.833 136.5,206.167 136.5,209.5C 133.167,209.5 129.833,209.5 126.5,209.5C 126.5,228.833 126.5,248.167 126.5,267.5C 129.833,267.5 133.167,267.5 136.5,267.5C 136.336,270.187 136.503,272.854 137,275.5C 139.796,276.211 142.63,276.878 145.5,277.5C 146.484,280.428 146.817,283.428 146.5,286.5C 152.509,286.334 158.509,286.501 164.5,287C 166.321,289.456 166.988,292.289 166.5,295.5C 169.5,295.5 172.5,295.5 175.5,295.5C 175.5,302.167 175.5,308.833 175.5,315.5C 178.5,315.5 181.5,315.5 184.5,315.5C 184.5,318.5 184.5,321.5 184.5,324.5C 190.561,324.21 196.561,324.543 202.5,325.5C 203.484,328.428 203.817,331.428 203.5,334.5C 191.167,334.5 178.833,334.5 166.5,334.5C 166.937,331.193 166.27,328.193 164.5,325.5C 158.862,324.67 153.196,324.17 147.5,324C 146.556,321.281 146.223,318.448 146.5,315.5C 139.833,315.5 133.167,315.5 126.5,315.5C 126.5,312.5 126.5,309.5 126.5,306.5C 123.482,306.665 120.482,306.498 117.5,306C 116.549,302.943 116.216,299.777 116.5,296.5C 113.813,296.664 111.146,296.497 108.5,296C 107.556,293.281 107.223,290.448 107.5,287.5C 104.833,287.5 102.167,287.5 99.5,287.5C 99.5,293.5 99.5,299.5 99.5,305.5C 98.8333,299.833 98.1667,294.167 97.5,288.5C 94.3278,287.874 91.1612,287.207 88,286.5C 87.5002,277.173 87.3335,267.839 87.5,258.5C 84.4816,258.665 81.4816,258.498 78.5,258C 78.0153,255.32 77.6819,252.653 77.5,250C 74.5184,249.502 71.5184,249.335 68.5,249.5C 68.5,246.833 68.5,244.167 68.5,241.5C 69.4849,237.366 69.8182,233.032 69.5,228.5C 72.5,228.5 75.5,228.5 78.5,228.5C 78.5,225.5 78.5,222.5 78.5,219.5C 85.1667,219.5 91.8333,219.5 98.5,219.5C 98.5,216.167 98.5,212.833 98.5,209.5C 91.8333,209.5 85.1667,209.5 78.5,209.5C 78.5,206.167 78.5,202.833 78.5,199.5C 88.1667,199.5 97.8333,199.5 107.5,199.5C 107.336,196.813 107.503,194.146 108,191.5C 110.939,190.872 113.772,190.205 116.5,189.5C 116.833,189.5 117.167,189.5 117.5,189.5C 117.335,192.518 117.502,195.518 118,198.5C 125.538,201.304 128.538,198.637 127,190.5C 129.368,190.59 131.868,190.257 134.5,189.5C 135.708,186.659 137.041,183.993 138.5,181.5 Z"/></g>
<g><path style="opacity:1" fill="#e17e72" d="M 116.5,189.5 C 113.772,190.205 110.939,190.872 108,191.5C 107.503,194.146 107.336,196.813 107.5,199.5C 97.8333,199.5 88.1667,199.5 78.5,199.5C 78.5,196.5 78.5,193.5 78.5,190.5C 78.8333,190.5 79.1667,190.5 79.5,190.5C 79.5,193.167 79.5,195.833 79.5,198.5C 88.1667,198.5 96.8333,198.5 105.5,198.5C 105.721,195.721 105.388,193.054 104.5,190.5C 105.5,190.5 106.5,190.5 107.5,190.5C 107.5,187.167 107.5,183.833 107.5,180.5C 110.5,180.5 113.5,180.5 116.5,180.5C 116.5,183.5 116.5,186.5 116.5,189.5 Z"/></g>
<g><path style="opacity:1" fill="#fdedd9" d="M 290.5,209.5 C 290.5,212.5 290.5,215.5 290.5,218.5C 287.167,218.5 283.833,218.5 280.5,218.5C 280.5,221.5 280.5,224.5 280.5,227.5C 279.343,224.727 278.676,221.727 278.5,218.5C 275.881,218.232 273.381,218.565 271,219.5C 270.333,225.5 270.333,231.5 271,237.5C 274.057,238.451 277.223,238.784 280.5,238.5C 280.5,245.167 280.5,251.833 280.5,258.5C 283.833,258.5 287.167,258.5 290.5,258.5C 290.708,260.92 290.374,263.253 289.5,265.5C 277.185,266.499 264.851,266.832 252.5,266.5C 252.5,260.167 252.5,253.833 252.5,247.5C 249.167,247.5 245.833,247.5 242.5,247.5C 242.5,241.167 242.5,234.833 242.5,228.5C 239.167,228.5 235.833,228.5 232.5,228.5C 232.5,225.167 232.5,221.833 232.5,218.5C 229.5,218.5 226.5,218.5 223.5,218.5C 223.5,215.5 223.5,212.5 223.5,209.5C 226.5,209.5 229.5,209.5 232.5,209.5C 232.5,206.167 232.5,202.833 232.5,199.5C 242.167,199.5 251.833,199.5 261.5,199.5C 261.223,202.448 261.556,205.281 262.5,208C 268.435,209.239 274.435,209.739 280.5,209.5C 279.164,216.158 281.83,218.825 288.5,217.5C 288.337,215.143 288.503,212.81 289,210.5C 289.383,209.944 289.883,209.611 290.5,209.5 Z"/></g>
<g><path style="opacity:1" fill="#fdc0a2" d="M 155.5,218.5 C 158.167,218.5 160.833,218.5 163.5,218.5C 163.5,228.167 163.5,237.833 163.5,247.5C 160.833,247.5 158.167,247.5 155.5,247.5C 155.5,237.833 155.5,228.167 155.5,218.5 Z"/></g>
<g><path style="opacity:1" fill="#737c79" d="M 175.5,209.5 C 175.5,218.833 175.5,228.167 175.5,237.5C 178.713,237.19 181.713,237.523 184.5,238.5C 181.167,238.5 177.833,238.5 174.5,238.5C 174.5,231.833 174.5,225.167 174.5,218.5C 174.19,215.287 174.523,212.287 175.5,209.5 Z"/></g>
<g><path style="opacity:1" fill="#776857" d="M 290.5,218.5 C 287.713,219.477 284.713,219.81 281.5,219.5C 281.5,222.5 281.5,225.5 281.5,228.5C 281.167,228.5 280.833,228.5 280.5,228.5C 280.5,228.167 280.5,227.833 280.5,227.5C 280.5,224.5 280.5,221.5 280.5,218.5C 283.833,218.5 287.167,218.5 290.5,218.5 Z"/></g>
<g><path style="opacity:1" fill="#dcf5f4" d="M 174.5,218.5 C 174.5,225.167 174.5,231.833 174.5,238.5C 177.833,238.5 181.167,238.5 184.5,238.5C 184.5,241.5 184.5,244.5 184.5,247.5C 178.167,247.5 171.833,247.5 165.5,247.5C 165.5,238.167 165.5,228.833 165.5,219.5C 168.287,218.523 171.287,218.19 174.5,218.5 Z"/></g>
<g><path style="opacity:1" fill="#7f7f76" d="M 309.5,218.5 C 309.5,218.833 309.5,219.167 309.5,219.5C 306.5,219.5 303.5,219.5 300.5,219.5C 300.5,222.5 300.5,225.5 300.5,228.5C 299.521,225.375 299.187,222.042 299.5,218.5C 302.833,218.5 306.167,218.5 309.5,218.5 Z"/></g>
<g><path style="opacity:1" fill="#f6eedb" d="M 309.5,219.5 C 312.833,219.5 316.167,219.5 319.5,219.5C 319.5,226.167 319.5,232.833 319.5,239.5C 316.167,239.5 312.833,239.5 309.5,239.5C 309.5,239.167 309.5,238.833 309.5,238.5C 309.5,235.167 309.5,231.833 309.5,228.5C 306.5,228.5 303.5,228.5 300.5,228.5C 300.5,225.5 300.5,222.5 300.5,219.5C 303.5,219.5 306.5,219.5 309.5,219.5 Z"/></g>
<g><path style="opacity:1" fill="#f9c2a5" d="M 280.5,227.5 C 280.5,227.833 280.5,228.167 280.5,228.5C 280.5,231.833 280.5,235.167 280.5,238.5C 277.223,238.784 274.057,238.451 271,237.5C 270.333,231.5 270.333,225.5 271,219.5C 273.381,218.565 275.881,218.232 278.5,218.5C 278.676,221.727 279.343,224.727 280.5,227.5 Z"/></g>
<g><path style="opacity:1" fill="#f9c0a0" d="M 329.5,223.5 C 327.707,223.884 326.707,225.05 326.5,227C 329.194,233.432 327.194,236.932 320.5,237.5C 320.839,232.177 321.172,226.843 321.5,221.5C 324.021,220.215 326.687,219.548 329.5,219.5C 329.5,220.833 329.5,222.167 329.5,223.5 Z"/></g>
<g><path style="opacity:1" fill="#cee8e9" d="M 280.5,228.5 C 280.833,228.5 281.167,228.5 281.5,228.5C 284.5,228.5 287.5,228.5 290.5,228.5C 290.5,231.5 290.5,234.5 290.5,237.5C 287.272,238.414 283.939,238.747 280.5,238.5C 280.5,235.167 280.5,231.833 280.5,228.5 Z"/></g>
<g><path style="opacity:1" fill="#dcf4f5" d="M 310.5,229.5 C 313.167,229.5 315.833,229.5 318.5,229.5C 318.5,232.167 318.5,234.833 318.5,237.5C 315.833,237.5 313.167,237.5 310.5,237.5C 310.5,234.833 310.5,232.167 310.5,229.5 Z"/></g>
<g><path style="opacity:1" fill="#262d2b" d="M 290.5,209.5 C 296.833,209.5 303.167,209.5 309.5,209.5C 309.5,212.5 309.5,215.5 309.5,218.5C 306.167,218.5 302.833,218.5 299.5,218.5C 299.187,222.042 299.521,225.375 300.5,228.5C 303.5,228.5 306.5,228.5 309.5,228.5C 309.5,231.833 309.5,235.167 309.5,238.5C 302.978,238.823 296.645,238.49 290.5,237.5C 290.5,234.5 290.5,231.5 290.5,228.5C 287.5,228.5 284.5,228.5 281.5,228.5C 281.5,225.5 281.5,222.5 281.5,219.5C 284.713,219.81 287.713,219.477 290.5,218.5C 290.5,215.5 290.5,212.5 290.5,209.5 Z"/></g>
<g><path style="opacity:1" fill="#242d2c" d="M 175.5,209.5 C 184.833,209.5 194.167,209.5 203.5,209.5C 203.5,212.5 203.5,215.5 203.5,218.5C 196.978,218.177 190.645,218.51 184.5,219.5C 184.5,222.5 184.5,225.5 184.5,228.5C 190.5,228.5 196.5,228.5 202.5,228.5C 203.479,231.625 203.813,234.958 203.5,238.5C 200.5,238.5 197.5,238.5 194.5,238.5C 194.5,241.5 194.5,244.5 194.5,247.5C 191.167,247.5 187.833,247.5 184.5,247.5C 184.5,244.5 184.5,241.5 184.5,238.5C 181.713,237.523 178.713,237.19 175.5,237.5C 175.5,228.167 175.5,218.833 175.5,209.5 Z"/></g>
<g><path style="opacity:1" fill="#fbc0a1" d="M 309.5,239.5 C 309.5,242.167 309.5,244.833 309.5,247.5C 303.167,247.5 296.833,247.5 290.5,247.5C 292.588,255.343 289.921,258.009 282.5,255.5C 281.505,250.208 281.172,244.875 281.5,239.5C 290.833,239.5 300.167,239.5 309.5,239.5 Z"/></g>
<g><path style="opacity:1" fill="#e1c5b1" d="M 184.5,219.5 C 190.645,218.51 196.978,218.177 203.5,218.5C 207.167,218.5 210.833,218.5 214.5,218.5C 214.5,221.5 214.5,224.5 214.5,227.5C 218.226,227.177 221.893,227.511 225.5,228.5C 225.833,229.167 226.167,229.833 226.5,230.5C 225.711,236.115 225.211,241.782 225,247.5C 224.5,248 224,248.5 223.5,249C 205.165,249.317 186.832,249.151 168.5,248.5C 167.167,248.5 165.833,248.5 164.5,248.5C 164.173,238.652 164.506,228.986 165.5,219.5C 165.5,228.833 165.5,238.167 165.5,247.5C 171.833,247.5 178.167,247.5 184.5,247.5C 187.833,247.5 191.167,247.5 194.5,247.5C 203.833,247.5 213.167,247.5 222.5,247.5C 222.5,241.5 222.5,235.5 222.5,229.5C 219.167,229.5 215.833,229.5 212.5,229.5C 212.5,226.167 212.5,222.833 212.5,219.5C 209.167,219.5 205.833,219.5 202.5,219.5C 196.5,219.5 190.5,219.5 184.5,219.5 Z"/></g>
<g><path style="opacity:1" fill="#d6f3f3" d="M 202.5,219.5 C 205.833,219.5 209.167,219.5 212.5,219.5C 212.5,222.833 212.5,226.167 212.5,229.5C 215.833,229.5 219.167,229.5 222.5,229.5C 222.5,235.5 222.5,241.5 222.5,247.5C 213.167,247.5 203.833,247.5 194.5,247.5C 194.5,244.5 194.5,241.5 194.5,238.5C 197.5,238.5 200.5,238.5 203.5,238.5C 203.813,234.958 203.479,231.625 202.5,228.5C 203.833,225.5 203.833,222.5 202.5,219.5 Z"/></g>
<g><path style="opacity:1" fill="#f8f0de" d="M 184.5,219.5 C 190.5,219.5 196.5,219.5 202.5,219.5C 203.833,222.5 203.833,225.5 202.5,228.5C 196.5,228.5 190.5,228.5 184.5,228.5C 184.5,225.5 184.5,222.5 184.5,219.5 Z"/></g>
<g><path style="opacity:1" fill="#fbc1a1" d="M 223.5,218.5 C 226.5,218.5 229.5,218.5 232.5,218.5C 232.5,221.833 232.5,225.167 232.5,228.5C 232.794,232.708 234.46,233.375 237.5,230.5C 238.478,230.977 239.311,231.643 240,232.5C 240.333,238.5 240.667,244.5 241,250.5C 241.414,250.957 241.914,251.291 242.5,251.5C 244.834,248.665 247.668,247.999 251,249.5C 251.229,254.874 250.729,260.208 249.5,265.5C 247.253,266.374 244.92,266.708 242.5,266.5C 242.777,263.552 242.444,260.719 241.5,258C 232.173,257.5 222.839,257.334 213.5,257.5C 213.5,260.833 213.5,264.167 213.5,267.5C 203.5,267.5 193.5,267.5 183.5,267.5C 183.5,264.5 183.5,261.5 183.5,258.5C 176.743,258.877 170.076,258.377 163.5,257C 164.435,254.619 164.768,252.119 164.5,249.5C 166.099,249.768 167.432,249.434 168.5,248.5C 186.832,249.151 205.165,249.317 223.5,249C 224,248.5 224.5,248 225,247.5C 225.211,241.782 225.711,236.115 226.5,230.5C 226.167,229.833 225.833,229.167 225.5,228.5C 221.893,227.511 218.226,227.177 214.5,227.5C 214.5,224.5 214.5,221.5 214.5,218.5C 210.833,218.5 207.167,218.5 203.5,218.5C 203.5,215.5 203.5,212.5 203.5,209.5C 204.222,209.918 204.722,210.584 205,211.5C 206.47,209.848 208.303,208.848 210.5,208.5C 214.453,209.362 218.453,209.695 222.5,209.5C 222.19,212.713 222.523,215.713 223.5,218.5 Z"/></g>
<g><path style="opacity:1" fill="#fbbfa9" d="M 270.5,267.5 C 276.833,267.5 283.167,267.5 289.5,267.5C 289.5,273.5 289.5,279.5 289.5,285.5C 286.5,285.5 283.5,285.5 280.5,285.5C 280.777,282.552 280.444,279.719 279.5,277C 276.518,276.502 273.518,276.335 270.5,276.5C 270.5,273.5 270.5,270.5 270.5,267.5 Z"/></g>
<g><path style="opacity:1" fill="#fcefdb" d="M 310.5,277.5 C 310.892,280.146 310.892,282.646 310.5,285C 313.758,285.212 316.924,285.712 320,286.5C 320.667,296.167 320.667,305.833 320,315.5C 316.943,316.451 313.777,316.784 310.5,316.5C 304.021,315.509 297.354,315.176 290.5,315.5C 290.5,312.167 290.5,308.833 290.5,305.5C 287.482,305.665 284.482,305.498 281.5,305C 280.549,301.943 280.216,298.777 280.5,295.5C 280.5,292.833 280.5,290.167 280.5,287.5C 283.728,286.586 287.061,286.253 290.5,286.5C 290.347,280.131 290.68,273.797 291.5,267.5C 294.167,267.5 296.833,267.5 299.5,267.5C 299.5,270.5 299.5,273.5 299.5,276.5C 302.5,276.5 305.5,276.5 308.5,276.5C 308.34,274.801 308.506,273.134 309,271.5C 309.191,273.708 309.691,275.708 310.5,277.5 Z"/></g>
<g><path style="opacity:1" fill="#f68f8d" d="M 270.5,267.5 C 270.5,270.5 270.5,273.5 270.5,276.5C 273.518,276.335 276.518,276.502 279.5,277C 280.444,279.719 280.777,282.552 280.5,285.5C 280.5,286.167 280.5,286.833 280.5,287.5C 280.5,290.167 280.5,292.833 280.5,295.5C 280.167,295.5 279.833,295.5 279.5,295.5C 279.5,292.5 279.5,289.5 279.5,286.5C 276.833,286.5 274.167,286.5 271.5,286.5C 271.5,289.5 271.5,292.5 271.5,295.5C 271.167,295.5 270.833,295.5 270.5,295.5C 270.5,292.5 270.5,289.5 270.5,286.5C 267.5,286.5 264.5,286.5 261.5,286.5C 261.5,283.167 261.5,279.833 261.5,276.5C 258.167,276.5 254.833,276.5 251.5,276.5C 251.5,273.5 251.5,270.5 251.5,267.5C 257.833,267.5 264.167,267.5 270.5,267.5 Z"/></g>
<g><path style="opacity:1" fill="#fdeeda" d="M 261.5,286.5 C 264.5,286.5 267.5,286.5 270.5,286.5C 270.5,289.5 270.5,292.5 270.5,295.5C 270.5,298.833 270.5,302.167 270.5,305.5C 267.455,305.508 264.455,305.841 261.5,306.5C 261.777,309.448 261.444,312.281 260.5,315C 257.518,315.498 254.518,315.665 251.5,315.5C 249.99,324.335 253.323,327.335 261.5,324.5C 270.833,324.5 280.167,324.5 289.5,324.5C 291.042,325.301 292.708,325.634 294.5,325.5C 293.791,326.404 292.791,326.737 291.5,326.5C 291.829,332.537 291.496,338.537 290.5,344.5C 284.561,345.457 278.561,345.79 272.5,345.5C 272.777,348.448 272.444,351.281 271.5,354C 259.924,354.178 248.424,354.678 237,355.5C 236.259,354.359 235.425,354.359 234.5,355.5C 233.526,357.743 233.192,360.076 233.5,362.5C 232.51,356.355 232.177,350.022 232.5,343.5C 226.167,343.5 219.833,343.5 213.5,343.5C 213.5,340.833 213.5,338.167 213.5,335.5C 213.5,331.833 213.5,328.167 213.5,324.5C 210.167,324.5 206.833,324.5 203.5,324.5C 203.5,318.167 203.5,311.833 203.5,305.5C 200.428,305.817 197.428,305.484 194.5,304.5C 193.546,298.896 193.212,293.229 193.5,287.5C 190.552,287.777 187.719,287.444 185,286.5C 183.801,283.274 183.301,279.941 183.5,276.5C 186.85,276.335 190.183,276.502 193.5,277C 194.451,280.057 194.784,283.223 194.5,286.5C 200.509,286.334 206.509,286.501 212.5,287C 213.167,290 213.833,293 214.5,296C 220.22,296.788 225.886,296.621 231.5,295.5C 232.208,292.634 232.875,289.8 233.5,287C 239.491,286.501 245.491,286.334 251.5,286.5C 251.5,283.5 251.5,280.5 251.5,277.5C 254.5,277.5 257.5,277.5 260.5,277.5C 260.19,280.713 260.523,283.713 261.5,286.5 Z"/></g>
<g><path style="opacity:1" fill="#f98087" d="M 279.5,295.5 C 276.833,295.5 274.167,295.5 271.5,295.5C 271.5,292.5 271.5,289.5 271.5,286.5C 274.167,286.5 276.833,286.5 279.5,286.5C 279.5,289.5 279.5,292.5 279.5,295.5 Z"/></g>
<g><path style="opacity:1" fill="#fbaa98" d="M 203.5,334.5 C 206.713,334.19 209.713,334.523 212.5,335.5C 212.5,338.167 212.5,340.833 212.5,343.5C 210.586,344.185 208.586,344.685 206.5,345C 205.484,345.519 204.818,346.353 204.5,347.5C 204.261,352.732 204.261,358.065 204.5,363.5C 201.167,363.5 197.833,363.5 194.5,363.5C 194.5,385.833 194.5,408.167 194.5,430.5C 197.833,430.5 201.167,430.5 204.5,430.5C 204.19,436.758 204.524,442.924 205.5,449C 201.833,449.667 198.167,449.667 194.5,449C 194.296,446.379 194.296,443.545 194.5,440.5C 191.119,440.54 187.786,440.207 184.5,439.5C 184.5,436.833 184.5,434.167 184.5,431.5C 181.167,431.5 177.833,431.5 174.5,431.5C 174.5,428.5 174.5,425.5 174.5,422.5C 171.193,421.949 167.86,421.616 164.5,421.5C 164.664,418.813 164.497,416.146 164,413.5C 161.003,412.134 157.836,411.467 154.5,411.5C 154.5,408.5 154.5,405.5 154.5,402.5C 150.952,402.905 147.619,402.405 144.5,401C 145.485,391.917 145.818,382.751 145.5,373.5C 142.223,373.784 139.057,373.451 136,372.5C 135.5,363.506 135.334,354.506 135.5,345.5C 132.482,345.296 129.482,344.963 126.5,344.5C 126.666,338.824 126.499,333.157 126,327.5C 123.174,325.66 120.007,324.994 116.5,325.5C 118.336,317.673 115.336,314.34 107.5,315.5C 107.5,312.167 107.5,308.833 107.5,305.5C 104.763,305.401 102.096,305.735 99.5,306.5C 99.5,306.167 99.5,305.833 99.5,305.5C 99.5,299.5 99.5,293.5 99.5,287.5C 102.167,287.5 104.833,287.5 107.5,287.5C 107.223,290.448 107.556,293.281 108.5,296C 111.146,296.497 113.813,296.664 116.5,296.5C 116.216,299.777 116.549,302.943 117.5,306C 120.482,306.498 123.482,306.665 126.5,306.5C 126.5,309.5 126.5,312.5 126.5,315.5C 133.167,315.5 139.833,315.5 146.5,315.5C 146.223,318.448 146.556,321.281 147.5,324C 153.196,324.17 158.862,324.67 164.5,325.5C 166.27,328.193 166.937,331.193 166.5,334.5C 178.833,334.5 191.167,334.5 203.5,334.5 Z"/></g>
<g><path style="opacity:1" fill="#f7c2ab" d="M 270.5,295.5 C 270.833,295.5 271.167,295.5 271.5,295.5C 274.167,295.5 276.833,295.5 279.5,295.5C 279.833,295.5 280.167,295.5 280.5,295.5C 280.216,298.777 280.549,301.943 281.5,305C 284.482,305.498 287.482,305.665 290.5,305.5C 290.5,308.833 290.5,312.167 290.5,315.5C 297.354,315.176 304.021,315.509 310.5,316.5C 310.905,320.048 310.405,323.381 309,326.5C 304.263,325.531 299.43,325.197 294.5,325.5C 292.708,325.634 291.042,325.301 289.5,324.5C 289.5,321.5 289.5,318.5 289.5,315.5C 286.5,315.5 283.5,315.5 280.5,315.5C 280.5,312.5 280.5,309.5 280.5,306.5C 277.167,306.167 273.833,305.833 270.5,305.5C 270.5,302.167 270.5,298.833 270.5,295.5 Z"/></g>
<g><path style="opacity:1" fill="#fadfc1" d="M 270.5,305.5 C 273.833,305.833 277.167,306.167 280.5,306.5C 280.5,309.5 280.5,312.5 280.5,315.5C 283.5,315.5 286.5,315.5 289.5,315.5C 289.5,318.5 289.5,321.5 289.5,324.5C 280.167,324.5 270.833,324.5 261.5,324.5C 261.5,321.5 261.5,318.5 261.5,315.5C 264.5,315.5 267.5,315.5 270.5,315.5C 270.5,312.167 270.5,308.833 270.5,305.5 Z"/></g>
<g><path style="opacity:1" fill="#f7bea7" d="M 270.5,305.5 C 270.5,308.833 270.5,312.167 270.5,315.5C 267.5,315.5 264.5,315.5 261.5,315.5C 261.5,318.5 261.5,321.5 261.5,324.5C 253.323,327.335 249.99,324.335 251.5,315.5C 254.518,315.665 257.518,315.498 260.5,315C 261.444,312.281 261.777,309.448 261.5,306.5C 264.455,305.841 267.455,305.508 270.5,305.5 Z"/></g>
<g><path style="opacity:1" fill="#dbc3a0" d="M 97.5,288.5 C 98.1667,294.167 98.8333,299.833 99.5,305.5C 99.5,305.833 99.5,306.167 99.5,306.5C 100.136,315.565 99.4698,324.231 97.5,332.5C 96.7611,332.631 96.0944,332.464 95.5,332C 97.4731,317.744 98.1398,303.244 97.5,288.5 Z"/></g>
<g><path style="opacity:1" fill="#facaaf" d="M 222.5,325.5 C 232.172,325.334 241.839,325.5 251.5,326C 251.737,328.288 251.737,330.788 251.5,333.5C 241.833,333.5 232.167,333.5 222.5,333.5C 222.5,330.833 222.5,328.167 222.5,325.5 Z"/></g>
<g><path style="opacity:1" fill="#fcc0a1" d="M 212.5,343.5 C 212.586,344.496 212.252,345.329 211.5,346C 217.5,346.333 223.5,346.667 229.5,347C 230.602,349.401 230.769,351.901 230,354.5C 228.093,356.446 226.26,358.446 224.5,360.5C 225.601,362.642 226.601,364.808 227.5,367C 233.154,367.988 233.654,367.155 229,364.5C 228.503,362.19 228.337,359.857 228.5,357.5C 229.5,357.5 230.5,357.5 231.5,357.5C 231.338,359.527 231.505,361.527 232,363.5C 232.75,364.126 233.584,364.626 234.5,365C 233.179,366.545 233.512,367.711 235.5,368.5C 236.85,367.05 238.516,366.383 240.5,366.5C 240.149,370.159 241.149,373.159 243.5,375.5C 243.167,376.833 242.833,378.167 242.5,379.5C 242.666,386.175 242.5,392.842 242,399.5C 239.267,401.105 236.267,402.105 233,402.5C 232.667,408.167 232.333,413.833 232,419.5C 228.943,420.451 225.777,420.784 222.5,420.5C 222.666,430.172 222.5,439.839 222,449.5C 219.333,450.167 216.667,450.833 214,451.5C 214.792,453.846 214.625,456.179 213.5,458.5C 184.5,458.5 155.5,458.5 126.5,458.5C 126.5,455.833 126.5,453.167 126.5,450.5C 117.167,450.5 107.833,450.5 98.5,450.5C 98.6323,453.57 98.299,456.57 97.5,459.5C 81.5,459.5 65.5,459.5 49.5,459.5C 49.0753,452.385 49.5753,445.385 51,438.5C 52.6282,437.903 54.2949,438.237 56,439.5C 57.651,437.246 57.8177,434.912 56.5,432.5C 59.9398,430.777 63.6065,430.11 67.5,430.5C 67.9629,427.518 68.2962,424.518 68.5,421.5C 71.8333,421.5 75.1667,421.5 78.5,421.5C 78.5,418.167 78.5,414.833 78.5,411.5C 82.1667,411.5 85.8333,411.5 89.5,411.5C 89.5,408.5 89.5,405.5 89.5,402.5C 95.5,402.5 101.5,402.5 107.5,402.5C 107.5,405.5 107.5,408.5 107.5,411.5C 110.5,411.5 113.5,411.5 116.5,411.5C 116.216,414.777 116.549,417.943 117.5,421C 122.833,421.333 128.167,421.667 133.5,422C 135.105,424.733 136.105,427.733 136.5,431C 139.482,431.498 142.482,431.665 145.5,431.5C 145.223,434.448 145.556,437.281 146.5,440C 152.862,440.653 159.195,440.487 165.5,439.5C 165.664,436.813 165.497,434.146 165,431.5C 162.281,430.556 159.448,430.223 156.5,430.5C 156.665,427.482 156.498,424.482 156,421.5C 152.943,420.549 149.777,420.216 146.5,420.5C 145.841,417.545 145.508,414.545 145.5,411.5C 139.167,411.5 132.833,411.5 126.5,411.5C 126.665,408.482 126.498,405.482 126,402.5C 123.527,401.88 121.027,401.214 118.5,400.5C 117.593,397.579 117.26,394.579 117.5,391.5C 114.5,391.5 111.5,391.5 108.5,391.5C 108.666,385.491 108.499,379.491 108,373.5C 104.943,372.549 101.777,372.216 98.5,372.5C 98.5,369.5 98.5,366.5 98.5,363.5C 95.5,363.5 92.5,363.5 89.5,363.5C 91.6329,361.667 93.6329,359.667 95.5,357.5C 94.0094,355.988 92.1761,354.988 90,354.5C 89.5004,347.842 89.3337,341.175 89.5,334.5C 91.4147,334.784 93.0813,334.451 94.5,333.5C 95.791,333.737 96.791,333.404 97.5,332.5C 99.4698,324.231 100.136,315.565 99.5,306.5C 102.096,305.735 104.763,305.401 107.5,305.5C 107.5,308.833 107.5,312.167 107.5,315.5C 115.336,314.34 118.336,317.673 116.5,325.5C 120.007,324.994 123.174,325.66 126,327.5C 126.499,333.157 126.666,338.824 126.5,344.5C 129.482,344.963 132.482,345.296 135.5,345.5C 135.334,354.506 135.5,363.506 136,372.5C 139.057,373.451 142.223,373.784 145.5,373.5C 145.818,382.751 145.485,391.917 144.5,401C 147.619,402.405 150.952,402.905 154.5,402.5C 154.5,405.5 154.5,408.5 154.5,411.5C 157.836,411.467 161.003,412.134 164,413.5C 164.497,416.146 164.664,418.813 164.5,421.5C 167.86,421.616 171.193,421.949 174.5,422.5C 174.5,425.5 174.5,428.5 174.5,431.5C 177.833,431.5 181.167,431.5 184.5,431.5C 184.5,434.167 184.5,436.833 184.5,439.5C 187.786,440.207 191.119,440.54 194.5,440.5C 194.296,443.545 194.296,446.379 194.5,449C 198.167,449.667 201.833,449.667 205.5,449C 204.524,442.924 204.19,436.758 204.5,430.5C 201.167,430.5 197.833,430.5 194.5,430.5C 194.5,408.167 194.5,385.833 194.5,363.5C 197.833,363.5 201.167,363.5 204.5,363.5C 204.261,358.065 204.261,352.732 204.5,347.5C 204.818,346.353 205.484,345.519 206.5,345C 208.586,344.685 210.586,344.185 212.5,343.5 Z"/></g>
<g><path style="opacity:1" fill="#ebc2a1" d="M 94.5,333.5 C 93.0813,334.451 91.4147,334.784 89.5,334.5C 89.3337,341.175 89.5004,347.842 90,354.5C 92.1761,354.988 94.0094,355.988 95.5,357.5C 93.6329,359.667 91.6329,361.667 89.5,363.5C 88.8333,366.167 88.1667,368.833 87.5,371.5C 87.8218,359.253 87.4885,347.086 86.5,335C 88.9368,333.625 91.6035,333.125 94.5,333.5 Z"/></g>
<g><path style="opacity:1" fill="#f4c6a8" d="M 212.5,335.5 C 212.833,335.5 213.167,335.5 213.5,335.5C 213.5,338.167 213.5,340.833 213.5,343.5C 219.833,343.5 226.167,343.5 232.5,343.5C 232.177,350.022 232.51,356.355 233.5,362.5C 236.777,362.216 239.943,362.549 243,363.5C 243.241,367.639 243.407,371.639 243.5,375.5C 241.149,373.159 240.149,370.159 240.5,366.5C 238.516,366.383 236.85,367.05 235.5,368.5C 233.512,367.711 233.179,366.545 234.5,365C 233.584,364.626 232.75,364.126 232,363.5C 231.505,361.527 231.338,359.527 231.5,357.5C 230.5,357.5 229.5,357.5 228.5,357.5C 228.337,359.857 228.503,362.19 229,364.5C 233.654,367.155 233.154,367.988 227.5,367C 226.601,364.808 225.601,362.642 224.5,360.5C 226.26,358.446 228.093,356.446 230,354.5C 230.769,351.901 230.602,349.401 229.5,347C 223.5,346.667 217.5,346.333 211.5,346C 212.252,345.329 212.586,344.496 212.5,343.5C 212.5,340.833 212.5,338.167 212.5,335.5 Z"/></g>
<g><path style="opacity:0.2" fill="#afb692" d="M 77.5,371.5 C 78.2506,370.427 79.2506,370.26 80.5,371C 79.552,371.483 78.552,371.649 77.5,371.5 Z"/></g>
<g><path style="opacity:1" fill="#faa997" d="M 89.5,363.5 C 92.5,363.5 95.5,363.5 98.5,363.5C 98.5,366.5 98.5,369.5 98.5,372.5C 101.777,372.216 104.943,372.549 108,373.5C 108.499,379.491 108.666,385.491 108.5,391.5C 111.5,391.5 114.5,391.5 117.5,391.5C 117.26,394.579 117.593,397.579 118.5,400.5C 121.027,401.214 123.527,401.88 126,402.5C 126.498,405.482 126.665,408.482 126.5,411.5C 132.833,411.5 139.167,411.5 145.5,411.5C 145.508,414.545 145.841,417.545 146.5,420.5C 149.777,420.216 152.943,420.549 156,421.5C 156.498,424.482 156.665,427.482 156.5,430.5C 159.448,430.223 162.281,430.556 165,431.5C 165.497,434.146 165.664,436.813 165.5,439.5C 159.195,440.487 152.862,440.653 146.5,440C 145.556,437.281 145.223,434.448 145.5,431.5C 142.482,431.665 139.482,431.498 136.5,431C 136.105,427.733 135.105,424.733 133.5,422C 128.167,421.667 122.833,421.333 117.5,421C 116.549,417.943 116.216,414.777 116.5,411.5C 113.5,411.5 110.5,411.5 107.5,411.5C 107.5,408.5 107.5,405.5 107.5,402.5C 101.5,402.5 95.5,402.5 89.5,402.5C 89.5,405.5 89.5,408.5 89.5,411.5C 85.8333,411.5 82.1667,411.5 78.5,411.5C 78.5,414.833 78.5,418.167 78.5,421.5C 75.1667,421.5 71.8333,421.5 68.5,421.5C 68.2962,424.518 67.9629,427.518 67.5,430.5C 63.6065,430.11 59.9398,430.777 56.5,432.5C 57.8177,434.912 57.651,437.246 56,439.5C 54.2949,438.237 52.6282,437.903 51,438.5C 49.5753,445.385 49.0753,452.385 49.5,459.5C 36.8333,459.5 24.1667,459.5 11.5,459.5C 11.0604,455.821 11.727,452.488 13.5,449.5C 15.5,449.5 17.5,449.5 19.5,449.5C 21.4533,443.926 22.12,437.926 21.5,431.5C 24.0593,431.802 26.3926,431.468 28.5,430.5C 28.427,428.973 29.0937,427.973 30.5,427.5C 31.4511,426.081 31.7845,424.415 31.5,422.5C 34.4475,422.777 37.2809,422.444 40,421.5C 40.498,418.518 40.6646,415.518 40.5,412.5C 43.7877,412.073 46.7877,412.74 49.5,414.5C 49.9976,410.575 49.9976,406.575 49.5,402.5C 52.7131,402.81 55.7131,402.477 58.5,401.5C 58.5,401.167 58.5,400.833 58.5,400.5C 59.4731,398.052 59.8064,395.385 59.5,392.5C 64.0985,392.65 68.4319,393.65 72.5,395.5C 72.5,391.5 72.5,387.5 72.5,383.5C 74.4835,383.383 76.1502,384.05 77.5,385.5C 79.4661,383.175 81.2995,380.841 83,378.5C 85.077,379.017 87.077,379.684 89,380.5C 88.9948,377.464 88.4948,374.464 87.5,371.5C 88.1667,368.833 88.8333,366.167 89.5,363.5 Z"/></g>
<g><path style="opacity:1" fill="#fcd5b8" d="M 242.5,379.5 C 243.607,380.992 245.107,381.992 247,382.5C 252.494,382.436 257.994,382.436 263.5,382.5C 262.217,385.635 262.217,388.635 263.5,391.5C 268.975,392.489 274.642,392.822 280.5,392.5C 280.5,393.833 280.5,395.167 280.5,396.5C 279.778,396.918 279.278,397.584 279,398.5C 277.989,397.663 276.822,397.33 275.5,397.5C 275.297,399.39 275.963,400.89 277.5,402C 274.994,401.41 272.994,402.41 271.5,405C 270.741,410.128 270.241,415.295 270,420.5C 267.483,421.143 264.649,421.809 261.5,422.5C 261.817,425.572 261.484,428.572 260.5,431.5C 257.916,430.607 255.249,430.274 252.5,430.5C 252.784,433.777 252.451,436.943 251.5,440C 245.833,440.333 240.167,440.667 234.5,441C 233.056,442.763 232.056,444.763 231.5,447C 230.551,447.617 229.718,447.451 229,446.5C 228.693,449.876 226.86,451.21 223.5,450.5C 223.736,453.609 223.403,456.609 222.5,459.5C 186.329,459.168 150.329,459.502 114.5,460.5C 112.167,460.5 109.833,460.5 107.5,460.5C 104.375,459.521 101.042,459.187 97.5,459.5C 98.299,456.57 98.6323,453.57 98.5,450.5C 107.833,450.5 117.167,450.5 126.5,450.5C 126.5,453.167 126.5,455.833 126.5,458.5C 155.5,458.5 184.5,458.5 213.5,458.5C 214.625,456.179 214.792,453.846 214,451.5C 216.667,450.833 219.333,450.167 222,449.5C 222.5,439.839 222.666,430.172 222.5,420.5C 225.777,420.784 228.943,420.451 232,419.5C 232.333,413.833 232.667,408.167 233,402.5C 236.267,402.105 239.267,401.105 242,399.5C 242.5,392.842 242.666,386.175 242.5,379.5 Z"/></g>
<g><path style="opacity:1" fill="#ecad99" d="M 87.5,371.5 C 88.4948,374.464 88.9948,377.464 89,380.5C 87.077,379.684 85.077,379.017 83,378.5C 81.2995,380.841 79.4661,383.175 77.5,385.5C 76.1502,384.05 74.4835,383.383 72.5,383.5C 72.5,387.5 72.5,391.5 72.5,395.5C 68.4319,393.65 64.0985,392.65 59.5,392.5C 59.8064,395.385 59.4731,398.052 58.5,400.5C 58.0618,400.565 57.7284,400.399 57.5,400C 58.0508,396.728 58.8842,393.561 60,390.5C 62.7372,391.61 65.5706,391.777 68.5,391C 68.6535,388.331 68.3201,385.497 67.5,382.5C 70.5184,382.665 73.5184,382.498 76.5,382C 77.1667,381.333 77.8333,380.667 78.5,380C 78.0631,377.551 78.0631,375.217 78.5,373C 80.7271,372.879 82.5604,372.046 84,370.5C 85.0113,371.337 86.1779,371.67 87.5,371.5 Z"/></g>
<g><path style="opacity:1" fill="#ede4c6" d="M 263.5,391.5 C 269.5,391.5 275.5,391.5 281.5,391.5C 282.541,394.458 282.541,397.458 281.5,400.5C 284.638,400.916 287.638,401.083 290.5,401C 291.451,404.057 291.784,407.223 291.5,410.5C 297.833,410.5 304.167,410.5 310.5,410.5C 310.46,413.881 310.793,417.214 311.5,420.5C 314.5,420.5 317.5,420.5 320.5,420.5C 320.5,423.5 320.5,426.5 320.5,429.5C 319.683,427.031 319.183,424.365 319,421.5C 315.606,422.456 312.106,422.789 308.5,422.5C 308.167,420.5 307.833,418.5 307.5,416.5C 306.07,416.421 304.736,416.754 303.5,417.5C 302.571,416.311 302.238,414.978 302.5,413.5C 305.079,413.083 307.246,413.75 309,415.5C 309.49,414.207 309.657,412.873 309.5,411.5C 304.507,411.916 299.507,412.249 294.5,412.5C 294.5,413.5 294.5,414.5 294.5,415.5C 293.5,415.5 292.5,415.5 291.5,415.5C 290.577,412.223 289.744,408.89 289,405.5C 288.667,405.833 288.333,406.167 288,406.5C 285.376,404.965 282.543,403.798 279.5,403C 280.423,400.959 280.756,398.792 280.5,396.5C 280.5,395.167 280.5,393.833 280.5,392.5C 274.642,392.822 268.975,392.489 263.5,391.5 Z"/></g>
<g><path style="opacity:0.09" fill="#aec796" d="M 29.5,419.5 C 29.8966,418.475 30.5632,418.308 31.5,419C 30.9056,419.464 30.2389,419.631 29.5,419.5 Z"/></g>
<g><path style="opacity:0.973" fill="#dcaf98" d="M 58.5,401.5 C 55.7131,402.477 52.7131,402.81 49.5,402.5C 49.9976,406.575 49.9976,410.575 49.5,414.5C 46.7877,412.74 43.7877,412.073 40.5,412.5C 40.6646,415.518 40.498,418.518 40,421.5C 37.2809,422.444 34.4475,422.777 31.5,422.5C 31.7845,424.415 31.4511,426.081 30.5,427.5C 30.0074,425.194 29.6741,422.861 29.5,420.5C 32.2116,420.263 34.7116,420.263 37,420.5C 38.3974,419.774 39.2308,418.607 39.5,417C 38.5547,414.911 38.5547,412.911 39.5,411C 42.5,410.667 45.5,410.333 48.5,410C 48.1667,409.667 47.8333,409.333 47.5,409C 48.1492,405.805 48.9825,402.639 50,399.5C 51.0852,400.293 52.2519,400.96 53.5,401.5C 53.8333,400.833 54.1667,400.167 54.5,399.5C 55.5237,400.853 56.857,401.52 58.5,401.5 Z"/></g>
<g><path style="opacity:0.797" fill="#d7b29b" d="M 28.5,430.5 C 26.3926,431.468 24.0593,431.802 21.5,431.5C 22.12,437.926 21.4533,443.926 19.5,449.5C 20.6611,443.819 20.6611,437.819 19.5,431.5C 22.4281,430.516 25.4281,430.183 28.5,430.5 Z"/></g>
<g><path style="opacity:1" fill="#fde0c8" d="M 280.5,396.5 C 280.756,398.792 280.423,400.959 279.5,403C 282.543,403.798 285.376,404.965 288,406.5C 288.333,406.167 288.667,405.833 289,405.5C 289.744,408.89 290.577,412.223 291.5,415.5C 292.5,415.5 293.5,415.5 294.5,415.5C 294.5,414.5 294.5,413.5 294.5,412.5C 299.507,412.249 304.507,411.916 309.5,411.5C 309.657,412.873 309.49,414.207 309,415.5C 307.246,413.75 305.079,413.083 302.5,413.5C 302.238,414.978 302.571,416.311 303.5,417.5C 304.736,416.754 306.07,416.421 307.5,416.5C 307.833,418.5 308.167,420.5 308.5,422.5C 312.106,422.789 315.606,422.456 319,421.5C 319.183,424.365 319.683,427.031 320.5,429.5C 323.978,429.184 327.312,429.684 330.5,431C 330.248,433.468 329.914,435.968 329.5,438.5C 332.836,439.24 336.17,439.906 339.5,440.5C 339.621,443.002 339.788,445.668 340,448.5C 341.619,449.083 343.452,449.083 345.5,448.5C 347.16,449.172 348.493,450.172 349.5,451.5C 349.5,454.5 349.5,457.5 349.5,460.5C 348.508,460.328 347.842,460.662 347.5,461.5C 346.5,461.5 345.5,461.5 344.5,461.5C 341.833,460.167 339.167,460.167 336.5,461.5C 333.167,461.5 329.833,461.5 326.5,461.5C 325.833,460.167 325.167,460.167 324.5,461.5C 323.833,461.5 323.167,461.5 322.5,461.5C 313.167,460.167 303.833,460.167 294.5,461.5C 284.833,461.5 275.167,461.5 265.5,461.5C 265.5,460.833 265.167,460.5 264.5,460.5C 250.677,459.504 236.677,459.171 222.5,459.5C 223.403,456.609 223.736,453.609 223.5,450.5C 226.86,451.21 228.693,449.876 229,446.5C 229.718,447.451 230.551,447.617 231.5,447C 232.056,444.763 233.056,442.763 234.5,441C 240.167,440.667 245.833,440.333 251.5,440C 252.451,436.943 252.784,433.777 252.5,430.5C 255.249,430.274 257.916,430.607 260.5,431.5C 261.484,428.572 261.817,425.572 261.5,422.5C 264.649,421.809 267.483,421.143 270,420.5C 270.241,415.295 270.741,410.128 271.5,405C 272.994,402.41 274.994,401.41 277.5,402C 275.963,400.89 275.297,399.39 275.5,397.5C 276.822,397.33 277.989,397.663 279,398.5C 279.278,397.584 279.778,396.918 280.5,396.5 Z"/></g>
<g><path style="opacity:0.263" fill="#cbbb99" d="M 13.5,449.5 C 11.727,452.488 11.0604,455.821 11.5,459.5C 24.1667,459.5 36.8333,459.5 49.5,459.5C 65.5,459.5 81.5,459.5 97.5,459.5C 101.042,459.187 104.375,459.521 107.5,460.5C 75.9956,460.168 44.6622,460.502 13.5,461.5C 12.8333,461.5 12.1667,461.5 11.5,461.5C 10.4042,457.587 10.2375,453.587 11,449.5C 11.7697,448.402 12.603,448.402 13.5,449.5 Z"/></g>
<g><path style="opacity:0.425" fill="#cdd1aa" d="M 114.5,460.5 C 150.329,459.502 186.329,459.168 222.5,459.5C 236.677,459.171 250.677,459.504 264.5,460.5C 252.322,460.172 240.322,460.505 228.5,461.5C 227.833,461.5 227.167,461.5 226.5,461.5C 225.167,460.167 223.833,460.167 222.5,461.5C 221.833,461.5 221.167,461.5 220.5,461.5C 185.337,460.502 150.004,460.168 114.5,460.5 Z"/></g>
</svg>
